<svg xmlns:inkscape="http://www.inkscape.org/namespaces/inkscape"
     xmlns:sodipodi="http://sodipodi.sourceforge.net/DTD/sodipodi-0.dtd"
     xmlns="http://www.w3.org/2000/svg"
     xmlns:svg="http://www.w3.org/2000/svg"
     width="433"
     height="492"
     viewBox="-5 -5 433 492"
     version="1.1"
     id="svg5"
     inkscape:version="1.2.2 (b0a8486541, 2022-12-01)"
     sodipodi:docname="8bitdo_64__orig.svg"
     xml:space="preserve"
     data-name="8BitDo 64">
<sodipodi:namedview id="namedview7"
                    pagecolor="#ffffff"
                    bordercolor="#cccccc"
                    borderopacity="1"
                    inkscape:showpageshadow="0"
                    inkscape:pageopacity="1"
                    inkscape:pagecheckerboard="0"
                    inkscape:deskcolor="#d1d1d1"
                    inkscape:document-units="px"
                    showgrid="false"
                    inkscape:zoom="2.3786088"
                    inkscape:cx="175.31256"
                    inkscape:cy="132.64056"
                    inkscape:current-layer="layer6"
                    showguides="true">
  <sodipodi:guide position="79.819441,625.10983"
                  orientation="1,0"
                  id="guide6677"
                  inkscape:locked="false" />
  <sodipodi:guide position="1.8870967,97.789045"
                  orientation="1,0"
                  id="guide6695"
                  inkscape:locked="false" />
  <sodipodi:guide position="117.57138,239.1972"
                  orientation="0,-1"
                  id="guide7844"
                  inkscape:locked="false" />
  <sodipodi:guide position="209.65096,239.1972"
                  orientation="1,0"
                  id="guide636"
                  inkscape:locked="false" />
</sodipodi:namedview>
<defs id="defs2">
  <inkscape:path-effect effect="mirror_symmetry"
                        start_point="244,0"
                        end_point="244,680"
                        center_point="304.32964,504.90864"
                        id="path-effect540"
                        is_visible="true"
                        lpeversion="1.2"
                        lpesatellites=""
                        mode="free"
                        discard_orig_path="false"
                        fuse_paths="false"
                        oposite_fuse="false"
                        split_items="false"
                        split_open="false"
                        link_styles="false" />
  <inkscape:path-effect effect="mirror_symmetry"
                        start_point="244,0"
                        end_point="244,680"
                        center_point="304.32964,504.90864"
                        id="path-effect540-6"
                        is_visible="true"
                        lpeversion="1.2"
                        lpesatellites=""
                        mode="free"
                        discard_orig_path="false"
                        fuse_paths="false"
                        oposite_fuse="false"
                        split_items="false"
                        split_open="false"
                        link_styles="false" />
</defs>
<g inkscape:label="Layer 1"
   inkscape:groupmode="layer"
   id="layer1"
   style="display:inline"
   transform="translate(-32.597088,-176.56177)">
  <path id="path587"
        style="fill:#cccccc;fill-opacity:1;stroke:#000000;stroke-width:1px;stroke-linecap:butt;stroke-linejoin:miter;stroke-opacity:1"
        d="m 207.04688,352.94336 c -14.57344,0.20956 -19.53221,0.60889 -43.52735,1.91016 -30.26938,1.26343 -58.84735,6.44655 -84.576171,21.10937 -13.935207,7.94607 -26.66428,29.93005 -30.726562,45.37109 -11.935034,56.13195 -14.474177,91.89888 -14.699219,121.34961 -0.742661,25.88417 -1.747578,49.47948 9.103516,75.67969 10.327168,21.73944 27.783202,31.01695 33.90625,33.70117 7.75008,2.94785 11.010738,3.63589 16.550781,5.35547 l 7.876955,-22.72461 c 4.38056,-10.62707 9.54675,-21.0885 15.2168,-31.4414 14.96638,-29.04369 29.19138,-31.23036 39.94921,-33.13868 18.15562,-2.08362 39.51974,-1.06793 59.2793,-1.0625 H 244 272.59961 c 19.75956,-0.005 41.12368,-1.02112 59.2793,1.0625 10.75783,1.90832 24.98283,4.09499 39.94921,33.13868 5.67005,10.3529 10.83624,20.81433 15.2168,31.4414 l 7.87696,22.72461 c 5.54004,-1.71958 8.80069,-2.40762 16.55078,-5.35547 6.12304,-2.68422 23.57908,-11.96173 33.90625,-33.70117 10.8511,-26.20021 9.84617,-49.79552 9.10351,-75.67969 -0.22505,-29.45073 -2.76418,-65.21766 -14.69922,-121.34961 -4.06227,-15.44104 -16.79135,-37.42502 -30.72656,-45.37109 -25.72882,-14.66282 -54.30679,-19.84594 -84.57617,-21.10937 -23.99514,-1.30127 -28.95391,-1.7006 -43.52735,-1.91016 H 244 Z" />
  <circle style="font-variation-settings:normal;display:inline;opacity:1;vector-effect:none;fill:#808080;fill-opacity:0.211751;stroke:none;stroke-width:0.944907px;stroke-linecap:butt;stroke-linejoin:miter;stroke-miterlimit:4;stroke-dasharray:none;stroke-dashoffset:0;stroke-opacity:1;-inkscape-stroke:none;stop-color:#000000;stop-opacity:1"
          id="path7902"
          cx="242.24805"
          cy="429.36456"
          r="22.885695" />
  <circle style="font-variation-settings:normal;display:none;opacity:1;vector-effect:none;fill:#00ff00;fill-opacity:0.211751;stroke:#000000;stroke-width:0.944907px;stroke-linecap:butt;stroke-linejoin:miter;stroke-miterlimit:4;stroke-dasharray:none;stroke-dashoffset:0;stroke-opacity:1;-inkscape-stroke:none;stop-color:#000000;stop-opacity:1"
          id="path6749"
          cx="112.44059"
          cy="429.36456"
          r="37.727879" />
  <circle style="font-variation-settings:normal;display:inline;vector-effect:none;fill:none;fill-opacity:0.211751;stroke:#000000;stroke-width:0.944907px;stroke-linecap:butt;stroke-linejoin:miter;stroke-miterlimit:4;stroke-dasharray:none;stroke-dashoffset:0;stroke-opacity:1;-inkscape-stroke:none;stop-color:#000000"
          id="path6749-6"
          cx="372.05551"
          cy="429.36456"
          r="37.727879" />
  <circle style="font-variation-settings:normal;display:inline;opacity:1;vector-effect:none;fill:#e6e6e6;fill-opacity:1;stroke:#000000;stroke-width:0.944907px;stroke-linecap:butt;stroke-linejoin:miter;stroke-miterlimit:4;stroke-dasharray:none;stroke-dashoffset:0;stroke-opacity:1;-inkscape-stroke:none;stop-color:#000000;stop-opacity:1"
          id="path7904"
          cx="242.24805"
          cy="429.36456"
          r="17.560467" />
  <circle style="font-variation-settings:normal;display:inline;opacity:1;vector-effect:none;fill:#e6e6e6;fill-opacity:1;stroke:#000000;stroke-width:0.944907px;stroke-linecap:butt;stroke-linejoin:miter;stroke-miterlimit:4;stroke-dasharray:none;stroke-dashoffset:0;stroke-opacity:1;-inkscape-stroke:none;stop-color:#000000;stop-opacity:1"
          id="path7904-56"
          cx="242.24805"
          cy="382.78677"
          r="9.922864" />
  <circle style="font-variation-settings:normal;display:inline;opacity:1;vector-effect:none;fill:#e6e6e6;fill-opacity:1;stroke:#000000;stroke-width:0.944907px;stroke-linecap:butt;stroke-linejoin:miter;stroke-miterlimit:4;stroke-dasharray:none;stroke-dashoffset:0;stroke-opacity:1;-inkscape-stroke:none;stop-color:#000000;stop-opacity:1"
          id="path7904-56-9"
          cx="204.1366"
          cy="382.47211"
          r="9.922864" />
  <circle style="font-variation-settings:normal;display:inline;opacity:1;vector-effect:none;fill:#e6e6e6;fill-opacity:1;stroke:#000000;stroke-width:0.944907px;stroke-linecap:butt;stroke-linejoin:miter;stroke-miterlimit:4;stroke-dasharray:none;stroke-dashoffset:0;stroke-opacity:1;-inkscape-stroke:none;stop-color:#000000;stop-opacity:1"
          id="path7904-56-9-1"
          cx="279.97095"
          cy="382.78677"
          r="9.922864" />
  <circle style="font-variation-settings:normal;display:inline;opacity:1;vector-effect:none;fill:#e6e6e6;fill-opacity:1;stroke:#000000;stroke-width:0.944907px;stroke-linecap:butt;stroke-linejoin:miter;stroke-miterlimit:4;stroke-dasharray:none;stroke-dashoffset:0;stroke-opacity:1;-inkscape-stroke:none;stop-color:#000000;stop-opacity:1"
          id="path7904-5"
          cx="297.89969"
          cy="469.68628"
          r="19.211485" />
  <circle style="font-variation-settings:normal;opacity:1;vector-effect:none;fill:#e6e6e6;fill-opacity:1;stroke:#000000;stroke-width:0.944907px;stroke-linecap:butt;stroke-linejoin:miter;stroke-miterlimit:4;stroke-dasharray:none;stroke-dashoffset:0;stroke-opacity:1;-inkscape-stroke:none;stop-color:#000000;stop-opacity:1"
          id="path7904-5-3"
          cx="334.75635"
          cy="506.54294"
          r="19.211485" />
  <circle style="font-variation-settings:normal;vector-effect:none;fill:#e6e6e6;fill-opacity:1;stroke:#000000;stroke-width:0.944907px;stroke-linecap:butt;stroke-linejoin:miter;stroke-miterlimit:4;stroke-dasharray:none;stroke-dashoffset:0;stroke-opacity:1;-inkscape-stroke:none;stop-color:#000000"
          id="path8237"
          cx="342.7785"
          cy="429.36456"
          r="16.063303" />
  <circle style="font-variation-settings:normal;opacity:1;vector-effect:none;fill:#e6e6e6;fill-opacity:1;stroke:#000000;stroke-width:0.944907px;stroke-linecap:butt;stroke-linejoin:miter;stroke-miterlimit:4;stroke-dasharray:none;stroke-dashoffset:0;stroke-opacity:1;-inkscape-stroke:none;stop-color:#000000;stop-opacity:1"
          id="path8237-7"
          cx="-401.33252"
          cy="429.36456"
          r="16.063303"
          transform="scale(-1,1)" />
  <circle style="font-variation-settings:normal;opacity:1;vector-effect:none;fill:#e6e6e6;fill-opacity:1;stroke:#000000;stroke-width:0.944907px;stroke-linecap:butt;stroke-linejoin:miter;stroke-miterlimit:4;stroke-dasharray:none;stroke-dashoffset:0;stroke-opacity:1;-inkscape-stroke:none;stop-color:#000000;stop-opacity:1"
          id="path8237-7-3"
          cx="-458.64157"
          cy="-372.05551"
          r="16.063303"
          transform="matrix(0,-1,-1,0,0,0)" />
  <circle style="font-variation-settings:normal;opacity:1;vector-effect:none;fill:#e6e6e6;fill-opacity:1;stroke:#000000;stroke-width:0.944907px;stroke-linecap:butt;stroke-linejoin:miter;stroke-miterlimit:4;stroke-dasharray:none;stroke-dashoffset:0;stroke-opacity:1;-inkscape-stroke:none;stop-color:#000000;stop-opacity:1"
          id="path8237-7-3-6"
          cx="400.08755"
          cy="-372.05551"
          r="16.063303"
          transform="rotate(90)" />
  <path id="path1726"
        style="font-variation-settings:normal;display:inline;opacity:1;vector-effect:none;fill:#cccccc;fill-opacity:1;stroke:#000000;stroke-width:1px;stroke-linecap:butt;stroke-linejoin:miter;stroke-miterlimit:4;stroke-dasharray:none;stroke-dashoffset:0;stroke-opacity:1;-inkscape-stroke:none;stop-color:#000000;stop-opacity:1"
        d="m 242.24805,177.06177 -65.21289,0.27539 c -25.43161,1.22601 -50.65103,1.95196 -77.13477,5.67187 -20.59005,2.51622 -36.810906,9.31266 -43.302731,25.63477 -3.843586,18.30831 -3.167402,33.93567 -1.220703,48.81055 2.065233,16.2773 4.950885,29.07279 9.939453,42.02148 2.761669,7.94005 4.933807,12.0472 8.595703,17.3457 3.265223,4.31671 5.189333,6.9433 8.447266,10.53907 3.37985,3.24666 9.745757,7.46375 20.230472,7.4707 4.78476,-0.75282 10.13803,-1.60325 13.66015,-3.84961 5.79224,-3.3007 9.95186,-8.45275 13.44532,-14.35938 4.47101,-7.85428 9.9512,-14.47571 15.33984,-21.20898 5.947,-8.13195 11.96064,-12.85743 22.72851,-16.56836 13.91235,-4.15186 31.32721,-3.41226 46.63868,-3.66211 h 27.8457 27.8457 c 15.31147,0.24985 32.72633,-0.48975 46.63868,3.66211 10.76787,3.71093 16.78151,8.43641 22.72851,16.56836 5.38864,6.73327 10.86883,13.3547 15.33984,21.20898 3.49346,5.90663 7.65308,11.05868 13.44532,14.35938 3.52212,2.24636 8.87539,3.09679 13.66015,3.84961 10.48471,-0.007 16.85062,-4.22404 20.23047,-7.4707 3.25793,-3.59577 5.18204,-6.22236 8.44727,-10.53907 3.66189,-5.2985 5.83403,-9.40565 8.5957,-17.3457 4.98858,-12.94869 7.87423,-25.74418 9.93945,-42.02148 1.9467,-14.87488 2.62289,-30.50224 -1.2207,-48.81055 -6.49182,-16.32211 -22.71267,-23.11855 -43.30273,-25.63477 -26.48374,-3.71991 -51.70316,-4.44586 -77.13477,-5.67187 z" />
  <path id="path4756"
        style="display:inline;fill:none;stroke:#00ff00;stroke-width:1px;stroke-linecap:butt;stroke-linejoin:miter;stroke-opacity:1"
        d="m 136.47657,194.427 -40.074223,0.36914 c -7.465933,-0.37316 -10.429387,4.59311 -9.873047,13.73438 l -0.429688,27.36328 h 60.134768 v -4.38281 l -0.16602,-27.95704 c -0.0585,-7.83506 -4.25816,-9.34564 -9.59179,-9.12695 z" />
  <path id="path4756-3"
        style="display:inline;fill:#2c2c2c;fill-opacity:1;stroke:#00ff00;stroke-width:1px;stroke-linecap:butt;stroke-linejoin:miter;stroke-opacity:1"
        d="m 86.099612,235.8938 -0.07031,4.51562 c 0.104819,10.92795 0.276238,21.59525 3.972656,32.12891 3.958407,11.08941 7.052556,18.85868 17.501952,22.10156 5.54446,0.92814 11.57412,0.54457 17.64648,0.0469 8.87386,-0.7541 19.24083,-3.42905 21.08008,-23.72852 l 0.004,-35.06445 z" />
  <path id="path4756-7"
        style="font-variation-settings:normal;display:inline;opacity:1;vector-effect:none;fill:#e6e6e6;fill-opacity:1;stroke:#000000;stroke-width:0.944907px;stroke-linecap:butt;stroke-linejoin:miter;stroke-miterlimit:4;stroke-dasharray:none;stroke-dashoffset:0;stroke-opacity:1;-inkscape-stroke:none;stop-color:#000000;stop-opacity:1"
        d="m 136.47657,194.427 -40.074223,0.36914 c -7.465933,-0.37316 -10.429387,4.59311 -9.873047,13.73438 l -0.429688,27.36328 h 60.134768 v -4.38281 l -0.16602,-27.95704 c -0.0585,-7.83506 -4.25816,-9.34564 -9.59179,-9.12695 z" />
  <path id="path4756-3-5"
        style="font-variation-settings:normal;display:inline;opacity:1;vector-effect:none;fill:#e6e6e6;fill-opacity:1;stroke:#000000;stroke-width:0.944907px;stroke-linecap:butt;stroke-linejoin:miter;stroke-miterlimit:4;stroke-dasharray:none;stroke-dashoffset:0;stroke-opacity:1;-inkscape-stroke:none;stop-color:#000000;stop-opacity:1"
        d="m 86.099612,235.8938 -0.07031,4.51562 c 0.104819,10.92795 0.276238,21.59525 3.972656,32.12891 3.958407,11.08941 7.052556,18.85868 17.501952,22.10156 5.54446,0.92814 11.57412,0.54457 17.64648,0.0469 8.87386,-0.7541 19.24083,-3.42905 21.08008,-23.72852 l 0.004,-35.06445 z" />
  <path id="path4756-7-6"
        style="font-variation-settings:normal;display:inline;opacity:1;vector-effect:none;fill:#e6e6e6;fill-opacity:1;stroke:#000000;stroke-width:0.944907px;stroke-linecap:butt;stroke-linejoin:miter;stroke-miterlimit:4;stroke-dasharray:none;stroke-dashoffset:0;stroke-opacity:1;-inkscape-stroke:none;stop-color:#000000;stop-opacity:1"
        d="m 348.01953,194.427 40.07422,0.36914 c 7.46594,-0.37316 10.42939,4.59311 9.87305,13.73438 l 0.42969,27.36328 h -60.13477 v -4.38281 l 0.16602,-27.95704 c 0.0585,-7.83506 4.25816,-9.34564 9.59179,-9.12695 z" />
  <path id="path4756-3-5-2"
        style="font-variation-settings:normal;display:inline;opacity:1;vector-effect:none;fill:#e6e6e6;fill-opacity:1;stroke:#000000;stroke-width:0.944907px;stroke-linecap:butt;stroke-linejoin:miter;stroke-miterlimit:4;stroke-dasharray:none;stroke-dashoffset:0;stroke-opacity:1;-inkscape-stroke:none;stop-color:#000000;stop-opacity:1"
        d="m 398.39649,235.8938 0.0703,4.51562 c -0.10482,10.92795 -0.27624,21.59525 -3.97266,32.12891 -3.95841,11.08941 -7.05255,18.85868 -17.50195,22.10156 -5.54446,0.92814 -11.57412,0.54457 -17.64648,0.0469 -8.87386,-0.7541 -19.24083,-3.42905 -21.08008,-23.72852 l -0.004,-35.06445 z" />
  <path id="path1338"
        style="font-variation-settings:normal;opacity:1;vector-effect:none;fill:#e6e6e6;fill-opacity:1;stroke:#000000;stroke-width:0.944907px;stroke-linecap:butt;stroke-linejoin:miter;stroke-miterlimit:4;stroke-dasharray:none;stroke-dashoffset:0;stroke-opacity:1;-inkscape-stroke:none;stop-color:#000000;stop-opacity:1"
        d="m 136.78516,350.75781 c -7.27017,-0.0399 -14.39618,1.35783 -21.51954,2.76953 -7.7166,1.78971 -15.04617,4.26796 -21.712886,7.93164 -2.177512,1.37632 -3.928863,2.95213 -5.050781,4.81836 L 87.25,371.60547 c 18.85857,-9.10566 39.1182,-13.64844 60.34961,-15.67383 l -0.13281,-2.53125 c -0.0554,-0.99002 -0.25921,-1.93097 -1.91016,-2.39648 z" />
  <path id="path1338-7"
        style="font-variation-settings:normal;opacity:1;vector-effect:none;fill:#e6e6e6;fill-opacity:1;stroke:#000000;stroke-width:0.944907px;stroke-linecap:butt;stroke-linejoin:miter;stroke-miterlimit:4;stroke-dasharray:none;stroke-dashoffset:0;stroke-opacity:1;-inkscape-stroke:none;stop-color:#000000;stop-opacity:1"
        d="m 351.06291,350.75781 c 7.27017,-0.0399 14.39618,1.35783 21.51954,2.76953 7.7166,1.78971 15.04617,4.26796 21.71289,7.93164 2.17751,1.37632 3.92886,2.95213 5.05078,4.81836 l 1.25195,5.32813 c -18.85857,-9.10566 -39.1182,-13.64844 -60.34961,-15.67383 l 0.13281,-2.53125 c 0.0554,-0.99002 0.25921,-1.93097 1.91016,-2.39648 z" />
  <path style="display:inline;font-variation-settings:normal;opacity:1;vector-effect:none;fill:#e6e6e6;fill-opacity:1;stroke:#000000;stroke-width:0.944907px;stroke-linecap:butt;stroke-linejoin:miter;stroke-miterlimit:4;stroke-dasharray:none;stroke-dashoffset:0;stroke-opacity:1;-inkscape-stroke:none;stop-color:#000000;stop-opacity:1"
        d="m 112.3078,393.78712 25.12776,10.58024 10.38566,24.99871 -10.40875,25.11916 -25.14198,10.39883 L 87.142549,454.48523 76.724283,429.33787 87.165662,404.32103 112.3078,393.78712"
        id="path4238" />
</g>
<g inkscape:groupmode="layer"
   id="layer2"
   inkscape:label="stick idle"
   style="display:inline"
   transform="translate(-32.597088,-176.56177)"
   data-state="stick"
   data-type="stick"
   data-extents-x="-30 30"
   data-extents-y="-30 30">
  <g id="g1289"
     transform="matrix(2.738561,0,0,2.738561,11.67585,310.84504)"
     style="display:inline">
    <ellipse style="fill:#cccccc;stroke:#808080;stroke-width:0.404862;stroke-linecap:square;stroke-miterlimit:4;stroke-dasharray:none;stroke-opacity:0.999252;stop-color:#000000"
             id="path8830"
             cx="36.735207"
             cy="43.319874"
             rx="9.1904259"
             ry="9.1834383" />
    <circle style="fill:none;stroke:#808080;stroke-width:0.404862;stroke-linecap:square;stroke-miterlimit:4;stroke-dasharray:none;stroke-opacity:0.999252;stop-color:#000000"
            id="path8832"
            cx="36.735207"
            cy="43.319874"
            r="7.2345686" />
    <circle style="fill:none;stroke:#808080;stroke-width:0.404862;stroke-linecap:square;stroke-miterlimit:4;stroke-dasharray:none;stroke-opacity:0.999252;stop-color:#000000"
            id="path8834"
            cx="36.735207"
            cy="43.319874"
            r="5.115612" />
    <circle style="fill:none;stroke:#808080;stroke-width:0.404862;stroke-linecap:square;stroke-miterlimit:4;stroke-dasharray:none;stroke-opacity:0.999252;stop-color:#000000"
            id="path8836"
            cx="36.735207"
            cy="43.319874"
            r="2.8975477" />
  </g>
</g>
<g inkscape:groupmode="layer"
   id="g546"
   inkscape:label="stick active"
   style="display:inline"
   transform="translate(-32.597088,-176.56177)"
   data-state="stick"
   data-type="button">
  <g id="g544"
     transform="matrix(2.738561,0,0,2.738561,11.67585,310.84504)"
     style="display:inline">
    <ellipse style="fill:#cccccc;stroke:#808080;stroke-width:0.404862;stroke-linecap:square;stroke-miterlimit:4;stroke-dasharray:none;stroke-opacity:0.999252;stop-color:#000000"
             id="ellipse536"
             cx="36.735207"
             cy="43.319874"
             rx="9.1904259"
             ry="9.1834383" />
    <circle style="fill:#ff0000;stroke:#808080;stroke-width:0.404862;stroke-linecap:square;stroke-miterlimit:4;stroke-dasharray:none;stroke-opacity:0.999252;stop-color:#000000"
            id="circle538"
            cx="36.735207"
            cy="43.319874"
            r="7.2345686" />
    <circle style="fill:none;stroke:#808080;stroke-width:0.404862;stroke-linecap:square;stroke-miterlimit:4;stroke-dasharray:none;stroke-opacity:0.999252;stop-color:#000000"
            id="circle540"
            cx="36.735207"
            cy="43.319874"
            r="5.115612" />
    <circle style="fill:none;stroke:#808080;stroke-width:0.404862;stroke-linecap:square;stroke-miterlimit:4;stroke-dasharray:none;stroke-opacity:0.999252;stop-color:#000000"
            id="circle542"
            cx="36.735207"
            cy="43.319874"
            r="2.8975477" />
  </g>
</g>
<g inkscape:groupmode="layer"
   id="layer36"
   inkscape:label="d-pad"
   style="display:inline"
   transform="translate(-32.597088,-176.56177)">
  <path class="inactive transparent"
        d="m 176.31352,464.38642 c -2.1578,0 -3.89351,1.73837 -3.89351,3.89615 v 20.13064 3.89351 h -3.89617 -11.25265 -8.87796 c -2.1578,0 -3.89354,1.73838 -3.89354,3.89616 v 20.13063 c 0,2.1578 1.73574,3.89616 3.89354,3.89616 h 8.87796 11.25265 3.89617 v 15.7088 8.31535 c 0,2.15779 1.73571,3.89616 3.89351,3.89616 h 20.13064 c 2.15778,0 3.89615,-1.73837 3.89615,-3.89616 v -20.13063 -3.89352 h 3.89353 11.16811 8.96516 c 2.15778,0 3.89349,-1.73836 3.89349,-3.89616 v -20.13063 c 0,-2.15778 -1.73571,-3.89616 -3.89349,-3.89616 h -8.96516 -11.16811 -3.89353 v -13.71714 -10.30701 c 0,-2.15778 -1.73837,-3.89615 -3.89615,-3.89615 z"
        id="rect11305-3-6"
        style="font-variation-settings:normal;display:inline;vector-effect:none;fill:#7d7d7d;fill-opacity:1;stroke:#000000;stroke-width:1.26075;stroke-linecap:round;stroke-linejoin:round;stroke-miterlimit:4;stroke-dasharray:none;stroke-dashoffset:0;-inkscape-stroke:none;stop-color:#000000" />
  <circle class="secondary transparent"
          cx="186.38014"
          cy="506.26819"
          id="path16699-1"
          r="11.195739"
          style="font-variation-settings:normal;display:inline;vector-effect:none;fill:none;stroke:#000000;stroke-width:1.35456;stroke-linecap:round;stroke-linejoin:round;stroke-miterlimit:4;stroke-dasharray:none;stroke-dashoffset:0;-inkscape-stroke:none;stop-color:#000000" />
  <circle class="secondary transparent"
          cx="186.38014"
          cy="506.26819"
          id="path16699-5-8"
          r="11.195739"
          style="font-variation-settings:normal;display:inline;vector-effect:none;fill:none;stroke:#000000;stroke-width:1.35456;stroke-linecap:round;stroke-linejoin:round;stroke-miterlimit:4;stroke-dasharray:none;stroke-dashoffset:0;-inkscape-stroke:none;stop-color:#000000" />
  <path class="secondary transparent"
        d="m 104.7036,80.286546 -7.893053,0 -7.893049,0 3.946524,-6.835581 3.946525,-6.835581 3.946523,6.835581 z"
        id="path15700-7-1-1-56-7"
        inkscape:flatsided="false"
        inkscape:randomized="0"
        inkscape:rounded="0"
        inkscape:transform-center-x="-0.81532515"
        sodipodi:arg1="0.52359878"
        sodipodi:arg2="1.5707963"
        sodipodi:cx="96.810547"
        sodipodi:cy="75.729492"
        sodipodi:r1="9.1141081"
        sodipodi:r2="4.557054"
        sodipodi:sides="3"
        sodipodi:type="star"
        style="font-variation-settings:normal;display:inline;vector-effect:none;fill:none;stroke:#000000;stroke-width:1.00157;stroke-linecap:round;stroke-linejoin:round;stroke-miterlimit:4;stroke-dasharray:none;stroke-dashoffset:0;-inkscape-stroke:none;stop-color:#000000"
        transform="matrix(0,1.3524311,-1.3524311,0,313.63785,375.33859)"
        inkscape:transform-center-y="-1.0694961e-05" />
  <path class="secondary transparent"
        d="m 104.7036,80.286546 -7.893053,0 -7.893049,0 3.946524,-6.835581 3.946525,-6.835581 3.946523,6.835581 z"
        id="path15700-7-1-2-9"
        inkscape:flatsided="false"
        inkscape:randomized="0"
        inkscape:rounded="0"
        inkscape:transform-center-x="0.81532731"
        sodipodi:arg1="0.52359878"
        sodipodi:arg2="1.5707963"
        sodipodi:cx="96.810547"
        sodipodi:cy="75.729492"
        sodipodi:r1="9.1141081"
        sodipodi:r2="4.557054"
        sodipodi:sides="3"
        sodipodi:type="star"
        style="font-variation-settings:normal;display:inline;vector-effect:none;fill:none;stroke:#000000;stroke-width:1.00157;stroke-linecap:round;stroke-linejoin:round;stroke-miterlimit:4;stroke-dasharray:none;stroke-dashoffset:0;-inkscape-stroke:none;stop-color:#000000"
        transform="matrix(0,1.3524311,1.3524311,0,59.12244,375.3386)"
        inkscape:transform-center-y="-7.8721288e-06" />
  <path class="secondary transparent"
        d="m 104.7036,80.286546 -7.893053,0 -7.893049,0 3.946524,-6.835581 3.946525,-6.835581 3.946523,6.835581 z"
        id="path15700-7-9-2"
        inkscape:flatsided="false"
        inkscape:randomized="0"
        inkscape:rounded="0"
        inkscape:transform-center-y="0.8153177"
        sodipodi:arg1="0.52359878"
        sodipodi:arg2="1.5707963"
        sodipodi:cx="96.810547"
        sodipodi:cy="75.729492"
        sodipodi:r1="9.1141081"
        sodipodi:r2="4.557054"
        sodipodi:sides="3"
        sodipodi:type="star"
        style="font-variation-settings:normal;display:inline;vector-effect:none;fill:none;stroke:#000000;stroke-width:1.00157;stroke-linecap:round;stroke-linejoin:round;stroke-miterlimit:4;stroke-dasharray:none;stroke-dashoffset:0;-inkscape-stroke:none;stop-color:#000000"
        transform="matrix(1.3524311,0,0,-1.3524311,55.450561,633.64826)"
        inkscape:transform-center-x="2.0125178e-06" />
  <path class="secondary transparent"
        d="m 104.7036,80.286546 -7.893053,0 -7.893049,0 3.946524,-6.835581 3.946525,-6.835581 3.946523,6.835581 z"
        id="path15700-1-0"
        inkscape:flatsided="false"
        inkscape:randomized="0"
        inkscape:rounded="0"
        inkscape:transform-center-y="-0.81531671"
        sodipodi:arg1="0.52359878"
        sodipodi:arg2="1.5707963"
        sodipodi:cx="96.810547"
        sodipodi:cy="75.729492"
        sodipodi:r1="9.1141081"
        sodipodi:r2="4.557054"
        sodipodi:sides="3"
        sodipodi:type="star"
        style="font-variation-settings:normal;display:inline;vector-effect:none;fill:none;stroke:#000000;stroke-width:1.00157;stroke-linecap:round;stroke-linejoin:round;stroke-miterlimit:4;stroke-dasharray:none;stroke-dashoffset:0;-inkscape-stroke:none;stop-color:#000000"
        transform="matrix(1.3524311,0,0,1.3524311,55.450561,379.0079)"
        inkscape:transform-center-x="2.0125178e-06" />
</g>
<g inkscape:groupmode="layer"
   id="layer17"
   inkscape:label="up"
   style="display:none"
   transform="translate(-32.597088,-176.56177)"
   data-state="up"
   data-type="button">
  <path class="primary"
        d="m 176.31425,464.38725 c -2.15779,0 -3.89352,1.73835 -3.89352,3.89616 v 20.13063 3.89351 l 13.96015,13.96017 13.96015,-13.96017 v -13.71713 -10.30701 c 0,-2.15781 -1.73837,-3.89616 -3.89616,-3.89616 z"
        id="path1991-7"
        style="font-variation-settings:normal;display:inline;vector-effect:none;fill:#ff0000;stroke:#000000;stroke-width:1.26075;stroke-linecap:round;stroke-linejoin:round;stroke-miterlimit:4;stroke-dasharray:none;stroke-dashoffset:0;stroke-opacity:1;-inkscape-stroke:none;stop-color:#ff0000" />
  <path id="path1991-7-5"
        style="font-variation-settings:normal;display:inline;vector-effect:none;fill:none;stroke:#000000;stroke-width:1.26075;stroke-linecap:round;stroke-linejoin:round;stroke-miterlimit:4;stroke-dasharray:none;stroke-dashoffset:0;stroke-opacity:1;-inkscape-stroke:none;stop-color:#ff0000"
        class="primary"
        d="m 186.38086,495.07227 a 11.195739,11.195739 0 0 0 -7.89648,3.29882 l 7.89648,7.89649 7.91602,-7.91602 a 11.195739,11.195739 0 0 0 -7.91602,-3.27929 z" />
  <path class="secondary transparent"
        d="m 104.7036,80.286546 -7.893053,0 -7.893049,0 3.946524,-6.835581 3.946525,-6.835581 3.946523,6.835581 z"
        id="path15700-3"
        inkscape:flatsided="false"
        inkscape:randomized="0"
        inkscape:rounded="0"
        inkscape:transform-center-y="-0.81531671"
        sodipodi:arg1="0.52359878"
        sodipodi:arg2="1.5707963"
        sodipodi:cx="96.810547"
        sodipodi:cy="75.729492"
        sodipodi:r1="9.1141081"
        sodipodi:r2="4.557054"
        sodipodi:sides="3"
        sodipodi:type="star"
        style="font-variation-settings:normal;display:inline;vector-effect:none;fill:none;stroke:#000000;stroke-width:1.00157;stroke-linecap:round;stroke-linejoin:round;stroke-miterlimit:4;stroke-dasharray:none;stroke-dashoffset:0;-inkscape-stroke:none;stop-color:#000000"
        transform="matrix(1.3524311,0,0,1.3524311,55.450561,379.0079)"
        inkscape:transform-center-x="2.0125178e-06" />
</g>
<g inkscape:groupmode="layer"
   id="layer18"
   inkscape:label="down"
   style="display:none"
   transform="translate(-32.597088,-176.56177)"
   data-state="down"
   data-type="button">
  <path class="primary"
        d="m 186.38088,506.26772 -13.96015,13.96279 v 15.70877 8.31536 c 0,2.1578 1.73573,3.89618 3.89352,3.89618 h 20.13062 c 2.15779,0 3.89616,-1.73838 3.89616,-3.89618 v -20.13063 -3.8935 z"
        id="rect11305-2"
        style="font-variation-settings:normal;display:inline;opacity:1;vector-effect:none;fill:#ff0000;fill-opacity:1;stroke:#000000;stroke-width:1.26075;stroke-linecap:round;stroke-linejoin:round;stroke-miterlimit:4;stroke-dasharray:none;stroke-dashoffset:0;stroke-opacity:1;-inkscape-stroke:none;stop-color:#ff0000;stop-opacity:1" />
  <path id="rect11305-2-4"
        style="font-variation-settings:normal;display:inline;vector-effect:none;fill:none;stroke:#000000;stroke-width:1.26075;stroke-linecap:round;stroke-linejoin:round;stroke-miterlimit:4;stroke-dasharray:none;stroke-dashoffset:0;stroke-opacity:1;-inkscape-stroke:none;stop-color:#ff0000"
        class="primary"
        d="m 186.38086,506.26758 -7.89648,7.89648 a 11.195739,11.195739 0 0 0 7.89648,3.30078 11.195739,11.195739 0 0 0 7.89453,-3.30078 z" />
  <path class="secondary transparent"
        d="m 104.7036,80.286546 -7.893053,0 -7.893049,0 3.946524,-6.835581 3.946525,-6.835581 3.946523,6.835581 z"
        id="path15700-7-8"
        inkscape:flatsided="false"
        inkscape:randomized="0"
        inkscape:rounded="0"
        inkscape:transform-center-y="0.8153177"
        sodipodi:arg1="0.52359878"
        sodipodi:arg2="1.5707963"
        sodipodi:cx="96.810547"
        sodipodi:cy="75.729492"
        sodipodi:r1="9.1141081"
        sodipodi:r2="4.557054"
        sodipodi:sides="3"
        sodipodi:type="star"
        style="font-variation-settings:normal;display:inline;vector-effect:none;fill:none;stroke:#000000;stroke-width:1.00157;stroke-linecap:round;stroke-linejoin:round;stroke-miterlimit:4;stroke-dasharray:none;stroke-dashoffset:0;-inkscape-stroke:none;stop-color:#000000"
        transform="matrix(1.3524311,0,0,-1.3524311,55.450561,633.64826)"
        inkscape:transform-center-x="2.0125178e-06" />
</g>
<g inkscape:groupmode="layer"
   id="layer19"
   inkscape:label="left"
   style="display:none"
   transform="translate(-32.597088,-176.56177)"
   data-state="left"
   data-type="button">
  <path class="primary"
        d="m 148.39395,492.30755 c -2.15779,0 -3.89353,1.73837 -3.89353,3.89617 v 20.13062 c 0,2.15779 1.73574,3.89617 3.89353,3.89617 h 8.87796 11.25265 3.89617 l 13.96015,-13.96279 -13.96015,-13.96017 h -3.89617 -11.25265 z"
        id="path1994-5"
        style="font-variation-settings:normal;display:inline;opacity:1;vector-effect:none;fill:#ff0000;fill-opacity:1;stroke:#000000;stroke-width:1.26075;stroke-linecap:round;stroke-linejoin:round;stroke-miterlimit:4;stroke-dasharray:none;stroke-dashoffset:0;stroke-opacity:1;-inkscape-stroke:none;stop-color:#ff0000;stop-opacity:1" />
  <path id="path1994-5-7"
        style="font-variation-settings:normal;display:inline;vector-effect:none;fill:none;stroke:#030303;stroke-width:1.26075;stroke-linecap:round;stroke-linejoin:round;stroke-miterlimit:4;stroke-dasharray:none;stroke-dashoffset:0;stroke-opacity:1;-inkscape-stroke:none;stop-color:#ff0000"
        class="primary"
        d="m 178.48438,498.37109 a 11.195739,11.195739 0 0 0 -3.30079,7.89649 11.195739,11.195739 0 0 0 3.30079,7.89648 l 7.89648,-7.89648 z" />
  <path class="secondary transparent"
        d="m 104.7036,80.286546 -7.893053,0 -7.893049,0 3.946524,-6.835581 3.946525,-6.835581 3.946523,6.835581 z"
        id="path15700-7-1-9"
        inkscape:flatsided="false"
        inkscape:randomized="0"
        inkscape:rounded="0"
        inkscape:transform-center-x="0.81532731"
        sodipodi:arg1="0.52359878"
        sodipodi:arg2="1.5707963"
        sodipodi:cx="96.810547"
        sodipodi:cy="75.729492"
        sodipodi:r1="9.1141081"
        sodipodi:r2="4.557054"
        sodipodi:sides="3"
        sodipodi:type="star"
        style="font-variation-settings:normal;display:inline;vector-effect:none;fill:none;stroke:#000000;stroke-width:1.00157;stroke-linecap:round;stroke-linejoin:round;stroke-miterlimit:4;stroke-dasharray:none;stroke-dashoffset:0;-inkscape-stroke:none;stop-color:#000000"
        transform="matrix(0,1.3524311,1.3524311,0,59.12244,375.3386)"
        inkscape:transform-center-y="-7.8721288e-06" />
</g>
<g inkscape:groupmode="layer"
   id="layer20"
   inkscape:label="right"
   style="display:none"
   transform="translate(-32.597088,-176.56177)"
   data-state="right"
   data-type="button">
  <path class="primary"
        d="m 200.34103,492.30755 -13.96015,13.96017 13.96015,13.96279 h 3.89353 11.16811 8.96515 c 2.15777,0 3.89351,-1.73838 3.89351,-3.89617 v -20.13062 c 0,-2.1578 -1.73574,-3.89617 -3.89351,-3.89617 h -8.96515 -11.16811 z"
        id="path1931-6-2"
        style="font-variation-settings:normal;display:inline;opacity:1;vector-effect:none;fill:#ff0000;fill-opacity:1;stroke:#000000;stroke-width:1.26075;stroke-linecap:round;stroke-linejoin:round;stroke-miterlimit:4;stroke-dasharray:none;stroke-dashoffset:0;stroke-opacity:1;-inkscape-stroke:none;stop-color:#ff0000;stop-opacity:1" />
  <path class="secondary transparent"
        d="m 104.7036,80.286546 -7.893053,0 -7.893049,0 3.946524,-6.835581 3.946525,-6.835581 3.946523,6.835581 z"
        id="path15700-7-1-1-3"
        inkscape:flatsided="false"
        inkscape:randomized="0"
        inkscape:rounded="0"
        inkscape:transform-center-x="-0.81532891"
        sodipodi:arg1="0.52359878"
        sodipodi:arg2="1.5707963"
        sodipodi:cx="96.810547"
        sodipodi:cy="75.729492"
        sodipodi:r1="9.1141081"
        sodipodi:r2="4.557054"
        sodipodi:sides="3"
        sodipodi:type="star"
        style="font-variation-settings:normal;display:inline;vector-effect:none;fill:none;stroke:#000000;stroke-width:1.00157;stroke-linecap:round;stroke-linejoin:round;stroke-miterlimit:4;stroke-dasharray:none;stroke-dashoffset:0;-inkscape-stroke:none;stop-color:#000000"
        transform="matrix(0,1.3524311,-1.3524311,0,313.63787,375.3386)"
        inkscape:transform-center-y="-1.151441e-05" />
  <path id="path1931-6-2-3"
        style="font-variation-settings:normal;display:inline;vector-effect:none;fill:none;stroke:#000000;stroke-width:1.26075;stroke-linecap:round;stroke-linejoin:round;stroke-miterlimit:4;stroke-dasharray:none;stroke-dashoffset:0;stroke-opacity:1;-inkscape-stroke:none;stop-color:#ff0000"
        class="primary"
        d="m 194.29688,498.35156 -7.91602,7.91602 7.89453,7.89648 a 11.195739,11.195739 0 0 0 3.30078,-7.89648 11.195739,11.195739 0 0 0 -3.27929,-7.91602 z" />
</g>
<g inkscape:groupmode="layer"
   id="layer3"
   inkscape:label="a"
   style="display:none"
   transform="translate(-32.597088,-176.56177)"
   data-state="a"
   data-type="button">
  <circle style="font-variation-settings:normal;display:inline;vector-effect:none;fill:#0000ff;fill-opacity:1;stroke:#000000;stroke-width:0.944907px;stroke-linecap:butt;stroke-linejoin:miter;stroke-miterlimit:4;stroke-dasharray:none;stroke-dashoffset:0;stroke-opacity:1;-inkscape-stroke:none;stop-color:#000000"
          id="path7904-5-3-3"
          cx="334.75635"
          cy="506.54294"
          r="19.211485" />
</g>
<g inkscape:groupmode="layer"
   id="layer4"
   inkscape:label="b"
   style="display:none"
   transform="translate(-32.597088,-176.56177)"
   data-state="b"
   data-type="button">
  <circle style="font-variation-settings:normal;display:inline;vector-effect:none;fill:#008f00;fill-opacity:1;stroke:#000000;stroke-width:0.944907px;stroke-linecap:butt;stroke-linejoin:miter;stroke-miterlimit:4;stroke-dasharray:none;stroke-dashoffset:0;stroke-opacity:1;-inkscape-stroke:none;stop-color:#000000"
          id="path7904-5-1"
          cx="297.89969"
          cy="469.68628"
          r="19.211485" />
</g>
<g inkscape:groupmode="layer"
   id="layer5"
   inkscape:label="start"
   style="display:none"
   transform="translate(-32.597088,-176.56177)"
   data-state="start"
   data-type="button">
  <circle style="font-variation-settings:normal;display:inline;vector-effect:none;fill:#ff0000;fill-opacity:1;stroke:#000000;stroke-width:0.944907px;stroke-linecap:butt;stroke-linejoin:miter;stroke-miterlimit:4;stroke-dasharray:none;stroke-dashoffset:0;stroke-opacity:1;-inkscape-stroke:none;stop-color:#000000"
          id="path7904-9"
          cx="242.24805"
          cy="429.36456"
          r="17.560467" />
</g>
<g inkscape:groupmode="layer"
   id="layer6"
   inkscape:label="c_down"
   style="display:none"
   transform="translate(-32.597088,-176.56177)"
   data-state="c_down"
   data-type="button">
  <circle style="font-variation-settings:normal;display:inline;opacity:1;vector-effect:none;fill:#e9e900;fill-opacity:1;stroke:#000000;stroke-width:0.944907px;stroke-linecap:butt;stroke-linejoin:miter;stroke-miterlimit:4;stroke-dasharray:none;stroke-dashoffset:0;stroke-opacity:1;-inkscape-stroke:none;stop-color:#000000;stop-opacity:1"
          id="path8237-7-3-7"
          cx="-458.64157"
          cy="-372.05551"
          r="16.063303"
          transform="matrix(0,-1,-1,0,0,0)" />
</g>
<g inkscape:groupmode="layer"
   id="layer7"
   inkscape:label="c_left"
   style="display:none"
   transform="translate(-32.597088,-176.56177)"
   data-state="c_left"
   data-type="button">
  <circle style="font-variation-settings:normal;display:inline;vector-effect:none;fill:#e9e900;fill-opacity:1;stroke:#000000;stroke-width:0.944907px;stroke-linecap:butt;stroke-linejoin:miter;stroke-miterlimit:4;stroke-dasharray:none;stroke-dashoffset:0;stroke-opacity:1;-inkscape-stroke:none;stop-color:#000000"
          id="path8237-4"
          cx="342.7785"
          cy="429.36456"
          r="16.063303" />
</g>
<g inkscape:groupmode="layer"
   id="layer8"
   inkscape:label="c_right"
   style="display:none"
   transform="translate(-32.597088,-176.56177)"
   data-state="c_right"
   data-type="button">
  <circle style="font-variation-settings:normal;display:inline;opacity:1;vector-effect:none;fill:#e9e900;fill-opacity:1;stroke:#000000;stroke-width:0.944907px;stroke-linecap:butt;stroke-linejoin:miter;stroke-miterlimit:4;stroke-dasharray:none;stroke-dashoffset:0;stroke-opacity:1;-inkscape-stroke:none;stop-color:#000000;stop-opacity:1"
          id="path8237-7-8"
          cx="-401.33252"
          cy="429.36456"
          r="16.063303"
          transform="scale(-1,1)" />
</g>
<g inkscape:groupmode="layer"
   id="layer9"
   inkscape:label="c_up"
   style="display:none"
   transform="translate(-32.597088,-176.56177)"
   data-state="c_up"
   data-type="button">
  <circle style="font-variation-settings:normal;display:inline;opacity:1;vector-effect:none;fill:#e9e900;fill-opacity:1;stroke:#000000;stroke-width:0.944907px;stroke-linecap:butt;stroke-linejoin:miter;stroke-miterlimit:4;stroke-dasharray:none;stroke-dashoffset:0;stroke-opacity:1;-inkscape-stroke:none;stop-color:#000000;stop-opacity:1"
          id="path8237-7-3-6-4"
          cx="400.08755"
          cy="-372.05551"
          r="16.063303"
          transform="rotate(90)" />
</g>
<g inkscape:groupmode="layer"
   id="layer10"
   inkscape:label="l"
   style="display:none"
   transform="translate(-32.597088,-176.56177)"
   data-state="l"
   data-type="button">
  <path id="path1338-5"
        style="font-variation-settings:normal;display:inline;opacity:1;vector-effect:none;fill:#6f6f6f;fill-opacity:1;stroke:#000000;stroke-width:0.944907px;stroke-linecap:butt;stroke-linejoin:miter;stroke-miterlimit:4;stroke-dasharray:none;stroke-dashoffset:0;stroke-opacity:1;-inkscape-stroke:none;stop-color:#000000;stop-opacity:1"
        d="m 136.78516,350.75781 c -7.27017,-0.0399 -14.39618,1.35783 -21.51954,2.76953 -7.7166,1.78971 -15.04617,4.26796 -21.712886,7.93164 -2.177512,1.37632 -3.928863,2.95213 -5.050781,4.81836 L 87.25,371.60547 c 18.85857,-9.10566 39.1182,-13.64844 60.34961,-15.67383 l -0.13281,-2.53125 c -0.0554,-0.99002 -0.25921,-1.93097 -1.91016,-2.39648 z" />
  <path id="path4756-7-3"
        style="font-variation-settings:normal;display:inline;vector-effect:none;fill:#6f6f6f;fill-opacity:1;stroke:#000000;stroke-width:0.944907px;stroke-linecap:butt;stroke-linejoin:miter;stroke-miterlimit:4;stroke-dasharray:none;stroke-dashoffset:0;stroke-opacity:1;-inkscape-stroke:none;stop-color:#000000"
        d="m 136.47657,194.427 -40.074223,0.36914 c -7.465933,-0.37316 -10.429387,4.59311 -9.873047,13.73438 l -0.429688,27.36328 h 60.134768 v -4.38281 l -0.16602,-27.95704 c -0.0585,-7.83506 -4.25816,-9.34564 -9.59179,-9.12695 z" />
</g>
<g inkscape:groupmode="layer"
   id="layer11"
   inkscape:label="r"
   style="display:none"
   transform="translate(-32.597088,-176.56177)"
   data-state="r"
   data-type="button">
  <path id="path1338-7-0"
        style="font-variation-settings:normal;display:inline;opacity:1;vector-effect:none;fill:#6f6f6f;fill-opacity:1;stroke:#000000;stroke-width:0.944907px;stroke-linecap:butt;stroke-linejoin:miter;stroke-miterlimit:4;stroke-dasharray:none;stroke-dashoffset:0;stroke-opacity:1;-inkscape-stroke:none;stop-color:#000000;stop-opacity:1"
        d="m 351.06291,350.75781 c 7.27017,-0.0399 14.39618,1.35783 21.51954,2.76953 7.7166,1.78971 15.04617,4.26796 21.71289,7.93164 2.17751,1.37632 3.92886,2.95213 5.05078,4.81836 l 1.25195,5.32813 c -18.85857,-9.10566 -39.1182,-13.64844 -60.34961,-15.67383 l 0.13281,-2.53125 c 0.0554,-0.99002 0.25921,-1.93097 1.91016,-2.39648 z" />
  <path id="path4756-7-6-6"
        style="font-variation-settings:normal;display:inline;opacity:1;vector-effect:none;fill:#6f6f6f;fill-opacity:1;stroke:#000000;stroke-width:0.944907px;stroke-linecap:butt;stroke-linejoin:miter;stroke-miterlimit:4;stroke-dasharray:none;stroke-dashoffset:0;stroke-opacity:1;-inkscape-stroke:none;stop-color:#000000;stop-opacity:1"
        d="m 348.01953,194.427 40.07422,0.36914 c 7.46594,-0.37316 10.42939,4.59311 9.87305,13.73438 l 0.42969,27.36328 h -60.13477 v -4.38281 l 0.16602,-27.95704 c 0.0585,-7.83506 4.25816,-9.34564 9.59179,-9.12695 z" />
</g>
<g inkscape:groupmode="layer"
   id="layer12"
   inkscape:label="zl"
   style="display:none"
   transform="translate(-32.597088,-176.56177)"
   data-state="zl"
   data-type="button">
  <path id="path4756-3-5-1"
        style="font-variation-settings:normal;display:inline;opacity:1;vector-effect:none;fill:#6f6f6f;fill-opacity:1;stroke:#000000;stroke-width:0.944907px;stroke-linecap:butt;stroke-linejoin:miter;stroke-miterlimit:4;stroke-dasharray:none;stroke-dashoffset:0;stroke-opacity:1;-inkscape-stroke:none;stop-color:#000000;stop-opacity:1"
        d="m 86.099612,235.8938 -0.07031,4.51562 c 0.104819,10.92795 0.276238,21.59525 3.972656,32.12891 3.958407,11.08941 7.052556,18.85868 17.501952,22.10156 5.54446,0.92814 11.57412,0.54457 17.64648,0.0469 8.87386,-0.7541 19.24083,-3.42905 21.08008,-23.72852 l 0.004,-35.06445 z" />
</g>
<g inkscape:groupmode="layer"
   id="layer13"
   inkscape:label="zr"
   style="display:none"
   transform="translate(-32.597088,-176.56177)"
   data-state="zr"
   data-type="button">
  <path id="path4756-3-5-2-0"
        style="font-variation-settings:normal;display:inline;opacity:1;vector-effect:none;fill:#6f6f6f;fill-opacity:1;stroke:#000000;stroke-width:0.944907px;stroke-linecap:butt;stroke-linejoin:miter;stroke-miterlimit:4;stroke-dasharray:none;stroke-dashoffset:0;stroke-opacity:1;-inkscape-stroke:none;stop-color:#000000;stop-opacity:1"
        d="m 398.39649,235.8938 0.0703,4.51562 c -0.10482,10.92795 -0.27624,21.59525 -3.97266,32.12891 -3.95841,11.08941 -7.05255,18.85868 -17.50195,22.10156 -5.54446,0.92814 -11.57412,0.54457 -17.64648,0.0469 -8.87386,-0.7541 -19.24083,-3.42905 -21.08008,-23.72852 l -0.004,-35.06445 z" />
</g>
<g inkscape:groupmode="layer"
   id="layer14"
   inkscape:label="select"
   style="display:none"
   transform="translate(-32.597088,-176.56177)"
   data-state="select"
   data-type="button">
  <circle style="font-variation-settings:normal;display:inline;opacity:1;vector-effect:none;fill:#6f6f6f;fill-opacity:1;stroke:#000000;stroke-width:0.944907px;stroke-linecap:butt;stroke-linejoin:miter;stroke-miterlimit:4;stroke-dasharray:none;stroke-dashoffset:0;stroke-opacity:1;-inkscape-stroke:none;stop-color:#000000;stop-opacity:1"
          id="path7904-56-6"
          cx="242.24805"
          cy="382.78677"
          r="9.922864" />
</g>
<g inkscape:groupmode="layer"
   id="layer15"
   inkscape:label="heart"
   style="display:none"
   transform="translate(-32.597088,-176.56177)"
   data-state="heart"
   data-type="button">
  <circle style="font-variation-settings:normal;display:inline;opacity:1;vector-effect:none;fill:#6f6f6f;fill-opacity:1;stroke:#000000;stroke-width:0.944907px;stroke-linecap:butt;stroke-linejoin:miter;stroke-miterlimit:4;stroke-dasharray:none;stroke-dashoffset:0;stroke-opacity:1;-inkscape-stroke:none;stop-color:#000000;stop-opacity:1"
          id="path7904-56-9-1-3"
          cx="279.97095"
          cy="382.78677"
          r="9.922864" />
</g>
<g inkscape:groupmode="layer"
   id="layer16"
   inkscape:label="star"
   style="display:none"
   transform="translate(-32.597088,-176.56177)">
  <circle style="font-variation-settings:normal;display:inline;opacity:1;vector-effect:none;fill:#6f6f6f;fill-opacity:1;stroke:#000000;stroke-width:0.944907px;stroke-linecap:butt;stroke-linejoin:miter;stroke-miterlimit:4;stroke-dasharray:none;stroke-dashoffset:0;stroke-opacity:1;-inkscape-stroke:none;stop-color:#000000;stop-opacity:1"
          id="path7904-56-9-2"
          cx="204.1366"
          cy="382.47211"
          r="9.922864" />
</g>
</svg>

