<?xml version="1.0" encoding="UTF-8" standalone="no"?>
<svg
   width="69.157021mm"
   height="53.581734mm"
   viewBox="0 0 69.157021 53.581734"
   version="1.1"
   id="svg5"
   inkscape:version="1.1.2 (0a00cf5339, 2022-02-04)"
   sodipodi:docname="jaguar.svg"
   data-name="Atari Jaguar Pro Controller"
   xmlns:inkscape="http://www.inkscape.org/namespaces/inkscape"
   xmlns:sodipodi="http://sodipodi.sourceforge.net/DTD/sodipodi-0.dtd"
   xmlns="http://www.w3.org/2000/svg"
   xmlns:svg="http://www.w3.org/2000/svg">
  <sodipodi:namedview
     id="namedview7"
     pagecolor="#ffffff"
     bordercolor="#cccccc"
     borderopacity="1"
     inkscape:pageshadow="0"
     inkscape:pageopacity="1"
     inkscape:pagecheckerboard="0"
     inkscape:document-units="mm"
     showgrid="false"
     inkscape:zoom="4.1827231"
     inkscape:cx="-0.7172361"
     inkscape:cy="99.3372"
     inkscape:window-width="3840"
     inkscape:window-height="2089"
     inkscape:window-x="0"
     inkscape:window-y="34"
     inkscape:window-maximized="1"
     inkscape:current-layer="layer14"
     inkscape:object-paths="false"
     inkscape:snap-smooth-nodes="true"
     inkscape:snap-midpoints="true"
     inkscape:snap-bbox="true"
     inkscape:snap-bbox-midpoints="true"
     inkscape:snap-object-midpoints="false"
     inkscape:snap-intersection-paths="false"
     inkscape:snap-global="true"
     fit-margin-top="0"
     fit-margin-left="0"
     fit-margin-right="0"
     fit-margin-bottom="0" />
  <defs
     id="defs2">
    <inkscape:path-effect
       effect="mirror_symmetry"
       start_point="16.734005,17.007371"
       end_point="18.91094,19.184305"
       center_point="17.822472,18.095838"
       id="path-effect6499"
       is_visible="true"
       lpeversion="1.1"
       mode="free"
       discard_orig_path="false"
       fuse_paths="false"
       oposite_fuse="false"
       split_items="false"
       split_open="false" />
    <inkscape:path-effect
       effect="mirror_symmetry"
       start_point="25.016691,19.033828"
       end_point="27.053113,27.326478"
       center_point="26.034902,23.180153"
       id="path-effect4878"
       is_visible="true"
       lpeversion="1.1"
       mode="free"
       discard_orig_path="false"
       fuse_paths="false"
       oposite_fuse="false"
       split_items="false"
       split_open="false" />
    <inkscape:path-effect
       effect="mirror_symmetry"
       start_point="27.053113,19.184305"
       end_point="27.053113,27.326478"
       center_point="27.053113,23.255391"
       id="path-effect4838"
       is_visible="true"
       lpeversion="1.1"
       mode="free"
       discard_orig_path="false"
       fuse_paths="false"
       oposite_fuse="false"
       split_items="false"
       split_open="false" />
    <inkscape:path-effect
       effect="mirror_symmetry"
       start_point="16.734005,17.007371"
       end_point="18.91094,19.184305"
       center_point="17.822472,18.095838"
       id="path-effect6499-7"
       is_visible="true"
       lpeversion="1.1"
       mode="free"
       discard_orig_path="false"
       fuse_paths="false"
       oposite_fuse="false"
       split_items="false"
       split_open="false" />
    <inkscape:path-effect
       effect="mirror_symmetry"
       start_point="16.734005,17.007371"
       end_point="18.91094,19.184305"
       center_point="17.822472,18.095838"
       id="path-effect6499-3"
       is_visible="true"
       lpeversion="1.1"
       mode="free"
       discard_orig_path="false"
       fuse_paths="false"
       oposite_fuse="false"
       split_items="false"
       split_open="false" />
    <inkscape:path-effect
       effect="mirror_symmetry"
       start_point="16.734005,17.007371"
       end_point="18.91094,19.184305"
       center_point="17.822472,18.095838"
       id="path-effect6499-1"
       is_visible="true"
       lpeversion="1.1"
       mode="free"
       discard_orig_path="false"
       fuse_paths="false"
       oposite_fuse="false"
       split_items="false"
       split_open="false" />
    <inkscape:path-effect
       effect="mirror_symmetry"
       start_point="16.734005,17.007371"
       end_point="18.91094,19.184305"
       center_point="17.822472,18.095838"
       id="path-effect6499-1-2"
       is_visible="true"
       lpeversion="1.1"
       mode="free"
       discard_orig_path="false"
       fuse_paths="false"
       oposite_fuse="false"
       split_items="false"
       split_open="false" />
    <inkscape:path-effect
       effect="mirror_symmetry"
       start_point="16.734005,17.007371"
       end_point="18.91094,19.184305"
       center_point="17.822472,18.095838"
       id="path-effect6499-7-0"
       is_visible="true"
       lpeversion="1.1"
       mode="free"
       discard_orig_path="false"
       fuse_paths="false"
       oposite_fuse="false"
       split_items="false"
       split_open="false" />
    <inkscape:path-effect
       effect="mirror_symmetry"
       start_point="16.734005,17.007371"
       end_point="18.91094,19.184305"
       center_point="17.822472,18.095838"
       id="path-effect6499-2"
       is_visible="true"
       lpeversion="1.1"
       mode="free"
       discard_orig_path="false"
       fuse_paths="false"
       oposite_fuse="false"
       split_items="false"
       split_open="false" />
    <inkscape:path-effect
       effect="mirror_symmetry"
       start_point="16.734005,17.007371"
       end_point="18.91094,19.184305"
       center_point="17.822472,18.095838"
       id="path-effect6499-3-3"
       is_visible="true"
       lpeversion="1.1"
       mode="free"
       discard_orig_path="false"
       fuse_paths="false"
       oposite_fuse="false"
       split_items="false"
       split_open="false" />
    <inkscape:path-effect
       effect="mirror_symmetry"
       start_point="16.734005,17.007371"
       end_point="18.91094,19.184305"
       center_point="17.822472,18.095838"
       id="path-effect6499-7-3"
       is_visible="true"
       lpeversion="1.1"
       mode="free"
       discard_orig_path="false"
       fuse_paths="false"
       oposite_fuse="false"
       split_items="false"
       split_open="false" />
    <inkscape:path-effect
       effect="mirror_symmetry"
       start_point="16.734005,17.007371"
       end_point="18.91094,19.184305"
       center_point="17.822472,18.095838"
       id="path-effect6499-2-6"
       is_visible="true"
       lpeversion="1.1"
       mode="free"
       discard_orig_path="false"
       fuse_paths="false"
       oposite_fuse="false"
       split_items="false"
       split_open="false" />
    <inkscape:path-effect
       effect="mirror_symmetry"
       start_point="16.734005,17.007371"
       end_point="18.91094,19.184305"
       center_point="17.822472,18.095838"
       id="path-effect6499-3-7"
       is_visible="true"
       lpeversion="1.1"
       mode="free"
       discard_orig_path="false"
       fuse_paths="false"
       oposite_fuse="false"
       split_items="false"
       split_open="false" />
    <inkscape:path-effect
       effect="mirror_symmetry"
       start_point="16.734005,17.007371"
       end_point="18.91094,19.184305"
       center_point="17.822472,18.095838"
       id="path-effect6499-1-5"
       is_visible="true"
       lpeversion="1.1"
       mode="free"
       discard_orig_path="false"
       fuse_paths="false"
       oposite_fuse="false"
       split_items="false"
       split_open="false" />
  </defs>
  <g
     inkscape:label="Layer 1"
     inkscape:groupmode="layer"
     id="layer1"
     transform="translate(-4.2715735,-7.0282262)">
    <path
       id="path3538-0"
       style="display:inline;fill:#000000;stroke:#808080;stroke-width:0.264583px;stroke-linecap:butt;stroke-linejoin:miter;stroke-opacity:1"
       d="m 21.73459,7.1680379 c -0.183985,0.01197 -0.354345,0.068483 -0.521932,0.1338418 -4.043849,1.4451984 -6.906132,3.0378493 -8.693009,4.7645673 -0.343176,0.442404 -0.352837,0.665775 -0.409277,0.91984 v 1.16117 C 14.827788,11.418313 18.35171,9.3742257 22.816178,8.1405882 L 22.338688,7.3018797 C 22.116246,7.1886436 21.918575,7.1560684 21.73459,7.1680379 Z" />
    <path
       id="path3538-7-6"
       style="fill:#000000;stroke:#808080;stroke-width:0.264583px;stroke-linecap:butt;stroke-linejoin:miter;stroke-opacity:1"
       d="m 55.965576,7.1680379 c -0.183986,-0.01197 -0.381656,0.020606 -0.604099,0.1338418 l -0.477488,0.8387085 c 4.464669,1.233623 7.988355,3.2776288 10.705806,6.0068688 v -1.16117 c -0.05644,-0.254065 -0.0661,-0.477436 -0.409279,-0.91984 C 63.393639,10.339729 60.531358,8.7470781 56.487506,7.3018797 56.319919,7.236521 56.149559,7.1800071 55.965576,7.1680379 Z" />
    <path
       id="path981-7"
       style="display:inline;fill:#000000;stroke:#808080;stroke-width:0.264583px;stroke-linecap:butt;stroke-linejoin:miter;stroke-opacity:1"
       d="M 27.745592,7.1623533 C 10.463858,9.3984515 4.402107,21.336256 4.4038654,38.172863 c 0.049858,8.048196 2.2946648,14.700948 5.0317342,21.040061 1.4635174,0.957903 4.8603424,1.279422 5.1412884,1.264004 h 9.288322 v -0.643371 h 11.973946 c 0.02762,-0.04558 0.05683,-0.08966 0.08681,-0.133326 h 0.137978 c 0.456126,-0.798555 1.102397,-1.113028 2.786393,-1.158068 1.683993,0.04504 2.329749,0.359513 2.785875,1.158068 h 0.137977 c 0.02999,0.04366 0.05919,0.08774 0.08682,0.133326 h 11.974465 v 0.643371 h 9.288319 c 0.280948,0.01543 3.677772,-0.306101 5.141291,-1.264004 C 71.002151,52.873811 73.246442,46.221059 73.2963,38.172863 73.298152,21.336256 67.236823,9.3984515 49.95509,7.1623533 49.373879,7.2881015 49.188491,7.4180321 49.041452,7.5886841 L 47.507178,8.8175496 H 30.192988 L 28.659232,7.5886841 C 28.51219,7.4180321 28.326805,7.2881015 27.745592,7.1623533 Z" />
    <circle
       style="fill:none;fill-opacity:0.998382;stroke:#808080;stroke-width:0.265;stroke-linecap:round;stroke-linejoin:round;stroke-miterlimit:4;stroke-dasharray:none;stop-color:#000000"
       id="path4067"
       cx="21.184336"
       cy="21.457701"
       r="8.2550735" />
    <path
       id="path4067-5"
       style="fill:none;fill-opacity:0.998382;stroke:#808080;stroke-width:1.00157;stroke-linecap:round;stroke-linejoin:round;stroke-miterlimit:4;stroke-dasharray:none;stop-color:#000000"
       d="m 80.066406,57.3125 a 23.787278,23.787278 0 0 0 -7.259765,1.144531 c 7.4e-5,-0.0034 -7.5e-5,-0.0063 0,-0.0098 l -0.002,0.0098 a 23.787278,23.787278 0 0 0 -15.38086,15.38086 l -0.0098,0.002 c 0.0034,-7.5e-5 0.0063,7.4e-5 0.0098,0 A 23.787278,23.787278 0 0 0 56.279297,81.099609 23.787278,23.787278 0 0 0 80.066406,104.88672 23.787278,23.787278 0 0 0 103.85352,81.099609 23.787278,23.787278 0 0 0 80.066406,57.3125 Z"
       transform="scale(0.26458333)" />
    <circle
       style="display:none;fill:none;fill-opacity:0.998382;stroke:#00ffff;stroke-width:0.265;stroke-linecap:round;stroke-linejoin:round;stroke-miterlimit:4;stroke-dasharray:none;stop-color:#000000"
       id="path4067-5-9"
       cx="21.184336"
       cy="21.457701"
       r="6.2937174" />
    <path
       id="path4067-5-3"
       style="fill:#333333;fill-opacity:0.998382;stroke:none;stroke-width:0.263276;stroke-linecap:round;stroke-linejoin:round;stroke-miterlimit:4;stroke-dasharray:none;stop-color:#000000"
       d="m 21.184351,15.205126 a 6.2528097,6.2528097 0 0 0 -1.90841,0.300757 c 1.9e-5,-8.94e-4 -2e-5,-0.0017 0,-0.0026 l -5.17e-4,0.0026 a 6.2528097,6.2528097 0 0 0 -0.0031,10e-4 c -0.03694,1.694076 0.104735,3.019984 -0.521415,3.555855 -0.561852,0.591835 -1.828143,0.418361 -3.512964,0.471289 a 6.2528097,6.2528097 0 0 0 -0.0052,0.01499 l -0.0026,5.17e-4 c 8.94e-4,-1.9e-5 0.0017,2e-5 0.0026,0 a 6.2528097,6.2528097 0 0 0 -0.301273,1.907894 6.2528097,6.2528097 0 0 0 0.303857,1.922363 c 1.685822,0.05313 2.953473,-0.120265 3.515548,0.471806 0.626456,0.536132 0.484795,1.863693 0.521931,3.558956 a 6.2528097,6.2528097 0 0 0 1.911512,0.299723 6.2528097,6.2528097 0 0 0 1.920296,-0.302308 c 0.03693,-1.693993 -0.103681,-3.020518 0.522449,-3.556371 0.561186,-0.591136 1.825442,-0.418958 3.507279,-0.471289 a 6.2528097,6.2528097 0 0 0 0.302855,-1.92285 6.2528097,6.2528097 0 0 0 -0.303857,-1.923397 C 25.453627,19.482152 24.190394,19.653409 23.62968,19.062772 23.003937,18.52725 23.144436,17.201993 23.107748,15.5095 a 6.2528097,6.2528097 0 0 0 -1.923397,-0.304374 z" />
    <circle
       style="fill:#000000;fill-opacity:0.998382;stroke:#8a8a8a;stroke-width:0.265;stroke-linecap:round;stroke-linejoin:round;stroke-miterlimit:4;stroke-dasharray:none;stop-color:#000000"
       id="path1530-12"
       cx="50.212654"
       cy="28.345873"
       r="2.9326732" />
    <circle
       style="fill:#000000;fill-opacity:0.998382;stroke:#8a8a8a;stroke-width:0.265;stroke-linecap:round;stroke-linejoin:round;stroke-miterlimit:4;stroke-dasharray:none;stop-color:#000000"
       id="path1530-1-6"
       cx="55.63097"
       cy="23.161386"
       r="2.9326732" />
    <circle
       style="fill:#000000;fill-opacity:0.998382;stroke:#8a8a8a;stroke-width:0.265;stroke-linecap:round;stroke-linejoin:round;stroke-miterlimit:4;stroke-dasharray:none;stop-color:#000000"
       id="path1530-1-2-3"
       cx="61.58923"
       cy="18.984184"
       r="2.9326732" />
    <circle
       style="fill:#000000;fill-opacity:0.998382;stroke:#8a8a8a;stroke-width:0.264999;stroke-linecap:round;stroke-linejoin:round;stroke-miterlimit:4;stroke-dasharray:none;stop-color:#000000"
       id="path1678-1"
       cx="46.630047"
       cy="22.148285"
       r="2.0884423" />
    <circle
       style="fill:#000000;fill-opacity:0.998382;stroke:#8a8a8a;stroke-width:0.264999;stroke-linecap:round;stroke-linejoin:round;stroke-miterlimit:4;stroke-dasharray:none;stop-color:#000000"
       id="path1678-7-3"
       cx="51.363895"
       cy="17.559443"
       r="2.0884423" />
    <circle
       style="fill:#000000;fill-opacity:0.998382;stroke:#8a8a8a;stroke-width:0.264999;stroke-linecap:round;stroke-linejoin:round;stroke-miterlimit:4;stroke-dasharray:none;stop-color:#000000"
       id="path1678-7-0-9"
       cx="56.775013"
       cy="13.720577"
       r="2.0884423" />
    <path
       id="path1826-7"
       style="fill:#808080;fill-opacity:0.998382;stroke:#8a8a8a;stroke-width:0.248009;stroke-linecap:round;stroke-linejoin:round;stroke-miterlimit:4;stroke-dasharray:none;stop-color:#000000"
       d="m 28.366228,38.30257 a 0.68627214,0.68627214 0 0 0 -0.686263,0.686265 0.68627214,0.68627214 0 0 0 0.686263,0.686261 h 3.277319 A 0.68627214,0.68627214 0 0 0 32.32981,38.988835 0.68627214,0.68627214 0 0 0 31.643547,38.30257 Z" />
    <path
       id="path1826-23-4"
       style="fill:#808080;fill-opacity:0.998382;stroke:#8a8a8a;stroke-width:0.248009;stroke-linecap:round;stroke-linejoin:round;stroke-miterlimit:4;stroke-dasharray:none;stop-color:#000000"
       d="m 33.285458,27.348531 a 0.68627214,0.68627214 0 0 0 1e-6,0.970524 0.68627214,0.68627214 0 0 0 0.970521,-2e-6 l 2.317415,-2.317414 a 0.68627214,0.68627214 0 0 0 1e-6,-0.970521 0.68627214,0.68627214 0 0 0 -0.970523,-1e-6 z" />
    <path
       id="path1826-23-7-9"
       style="fill:#808080;fill-opacity:0.998382;stroke:#8a8a8a;stroke-width:0.248009;stroke-linecap:round;stroke-linejoin:round;stroke-miterlimit:4;stroke-dasharray:none;stop-color:#000000"
       d="m 38.633583,27.348531 a 0.68627214,0.68627214 0 0 0 10e-7,0.970524 0.68627214,0.68627214 0 0 0 0.970521,-2e-6 l 2.317415,-2.317414 a 0.68627214,0.68627214 0 0 0 10e-7,-0.970521 0.68627214,0.68627214 0 0 0 -0.970523,-1e-6 z" />
    <path
       id="path1826-6-8"
       style="fill:#808080;fill-opacity:0.998382;stroke:#8a8a8a;stroke-width:0.248009;stroke-linecap:round;stroke-linejoin:round;stroke-miterlimit:4;stroke-dasharray:none;stop-color:#000000"
       d="m 28.366228,43.906032 a 0.68627214,0.68627214 0 0 0 -0.686263,0.686265 0.68627214,0.68627214 0 0 0 0.686263,0.686261 h 3.277319 a 0.68627214,0.68627214 0 0 0 0.686263,-0.686261 0.68627214,0.68627214 0 0 0 -0.686263,-0.686265 z" />
    <path
       id="path1826-6-0-4"
       style="fill:#808080;fill-opacity:0.998382;stroke:#8a8a8a;stroke-width:0.248009;stroke-linecap:round;stroke-linejoin:round;stroke-miterlimit:4;stroke-dasharray:none;stop-color:#000000"
       d="m 28.366228,49.453727 a 0.68627214,0.68627214 0 0 0 -0.686263,0.686265 0.68627214,0.68627214 0 0 0 0.686263,0.686261 h 3.277319 a 0.68627214,0.68627214 0 0 0 0.686263,-0.686261 0.68627214,0.68627214 0 0 0 -0.686263,-0.686265 z" />
    <path
       id="path1826-6-0-6-5"
       style="fill:#808080;fill-opacity:0.998382;stroke:#8a8a8a;stroke-width:0.248009;stroke-linecap:round;stroke-linejoin:round;stroke-miterlimit:4;stroke-dasharray:none;stop-color:#000000"
       d="m 28.366228,54.87393 a 0.68627214,0.68627214 0 0 0 -0.686263,0.686265 0.68627214,0.68627214 0 0 0 0.686263,0.686261 h 3.277319 A 0.68627214,0.68627214 0 0 0 32.32981,55.560195 0.68627214,0.68627214 0 0 0 31.643547,54.87393 Z" />
    <path
       id="path1826-2-0"
       style="fill:#808080;fill-opacity:0.998382;stroke:#8a8a8a;stroke-width:0.248009;stroke-linecap:round;stroke-linejoin:round;stroke-miterlimit:4;stroke-dasharray:none;stop-color:#000000"
       d="m 37.293682,38.30257 a 0.68627214,0.68627214 0 0 0 -0.686263,0.686265 0.68627214,0.68627214 0 0 0 0.686263,0.686261 h 3.277319 a 0.68627214,0.68627214 0 0 0 0.686263,-0.686261 0.68627214,0.68627214 0 0 0 -0.686263,-0.686265 z" />
    <path
       id="path1826-6-6-3"
       style="fill:#808080;fill-opacity:0.998382;stroke:#8a8a8a;stroke-width:0.248009;stroke-linecap:round;stroke-linejoin:round;stroke-miterlimit:4;stroke-dasharray:none;stop-color:#000000"
       d="m 37.293682,43.906032 a 0.68627214,0.68627214 0 0 0 -0.686263,0.686265 0.68627214,0.68627214 0 0 0 0.686263,0.686261 h 3.277319 a 0.68627214,0.68627214 0 0 0 0.686263,-0.686261 0.68627214,0.68627214 0 0 0 -0.686263,-0.686265 z" />
    <path
       id="path1826-6-0-1-6"
       style="fill:#808080;fill-opacity:0.998382;stroke:#8a8a8a;stroke-width:0.248009;stroke-linecap:round;stroke-linejoin:round;stroke-miterlimit:4;stroke-dasharray:none;stop-color:#000000"
       d="m 37.293682,49.453727 a 0.68627214,0.68627214 0 0 0 -0.686263,0.686265 0.68627214,0.68627214 0 0 0 0.686263,0.686261 h 3.277319 a 0.68627214,0.68627214 0 0 0 0.686263,-0.686261 0.68627214,0.68627214 0 0 0 -0.686263,-0.686265 z" />
    <path
       id="path1826-6-0-6-8-1"
       style="fill:#808080;fill-opacity:0.998382;stroke:#8a8a8a;stroke-width:0.248009;stroke-linecap:round;stroke-linejoin:round;stroke-miterlimit:4;stroke-dasharray:none;stop-color:#000000"
       d="m 37.293682,54.87393 a 0.68627214,0.68627214 0 0 0 -0.686263,0.686265 0.68627214,0.68627214 0 0 0 0.686263,0.686261 h 3.277319 a 0.68627214,0.68627214 0 0 0 0.686263,-0.686261 0.68627214,0.68627214 0 0 0 -0.686263,-0.686265 z" />
    <path
       id="path1826-2-7-0"
       style="fill:#808080;fill-opacity:0.998382;stroke:#8a8a8a;stroke-width:0.248009;stroke-linecap:round;stroke-linejoin:round;stroke-miterlimit:4;stroke-dasharray:none;stop-color:#000000"
       d="m 45.981759,38.30257 a 0.68627214,0.68627214 0 0 0 -0.686263,0.686265 0.68627214,0.68627214 0 0 0 0.686263,0.686261 h 3.277319 a 0.68627214,0.68627214 0 0 0 0.686263,-0.686261 0.68627214,0.68627214 0 0 0 -0.686263,-0.686265 z" />
    <path
       id="path1826-6-6-9-6"
       style="fill:#808080;fill-opacity:0.998382;stroke:#8a8a8a;stroke-width:0.248009;stroke-linecap:round;stroke-linejoin:round;stroke-miterlimit:4;stroke-dasharray:none;stop-color:#000000"
       d="m 45.981759,43.906032 a 0.68627214,0.68627214 0 0 0 -0.686263,0.686265 0.68627214,0.68627214 0 0 0 0.686263,0.686261 h 3.277319 a 0.68627214,0.68627214 0 0 0 0.686263,-0.686261 0.68627214,0.68627214 0 0 0 -0.686263,-0.686265 z" />
    <path
       id="path1826-6-0-1-2-3"
       style="fill:#808080;fill-opacity:0.998382;stroke:#8a8a8a;stroke-width:0.248009;stroke-linecap:round;stroke-linejoin:round;stroke-miterlimit:4;stroke-dasharray:none;stop-color:#000000"
       d="m 45.981759,49.453727 a 0.68627214,0.68627214 0 0 0 -0.686263,0.686265 0.68627214,0.68627214 0 0 0 0.686263,0.686261 h 3.277319 a 0.68627214,0.68627214 0 0 0 0.686263,-0.686261 0.68627214,0.68627214 0 0 0 -0.686263,-0.686265 z" />
    <path
       id="path1826-6-0-6-8-0-2"
       style="fill:#808080;fill-opacity:0.998382;stroke:#8a8a8a;stroke-width:0.248009;stroke-linecap:round;stroke-linejoin:round;stroke-miterlimit:4;stroke-dasharray:none;stop-color:#000000"
       d="m 45.981759,54.87393 a 0.68627214,0.68627214 0 0 0 -0.686263,0.686265 0.68627214,0.68627214 0 0 0 0.686263,0.686261 h 3.277319 a 0.68627214,0.68627214 0 0 0 0.686263,-0.686261 0.68627214,0.68627214 0 0 0 -0.686263,-0.686265 z" />
    <path
       id="path2481-5"
       style="fill:none;stroke:#808080;stroke-width:0.264583px;stroke-linecap:butt;stroke-linejoin:miter;stroke-opacity:1"
       d="m 53.835474,59.833557 -0.02613,-22.689045 c 0,-1.3026 -0.795254,-1.807482 -1.807483,-1.807482 H 31.572522 m -7.707313,24.496527 0.02613,-22.689045 c 0,-1.3026 0.795254,-1.807482 1.807483,-1.807482 h 20.429339" />
  </g>
  <g
     inkscape:groupmode="layer"
     id="layer6"
     inkscape:label="a"
     data-state="a"
     style="display:none"
     transform="translate(-4.2715735,-7.0282262)"
     data-type="button">
    <circle
       style="fill:#ff0000;fill-opacity:0.998382;stroke:#8a8a8a;stroke-width:0.265;stroke-linecap:round;stroke-linejoin:round;stroke-miterlimit:4;stroke-dasharray:none;stop-color:#000000"
       id="path1530-1-2"
       cx="61.58923"
       cy="18.984184"
       r="2.9326732" />
  </g>
  <g
     inkscape:groupmode="layer"
     id="layer7"
     inkscape:label="b"
     data-state="b"
     style="display:none"
     transform="translate(-4.2715735,-7.0282262)"
     data-type="button">
    <circle
       style="fill:#ff0000;fill-opacity:0.998382;stroke:#8a8a8a;stroke-width:0.265;stroke-linecap:round;stroke-linejoin:round;stroke-miterlimit:4;stroke-dasharray:none;stop-color:#000000"
       id="path1530-1"
       cx="55.63097"
       cy="23.161386"
       r="2.9326732" />
  </g>
  <g
     inkscape:groupmode="layer"
     id="layer8"
     inkscape:label="c"
     data-state="c"
     style="display:none"
     transform="translate(-4.2715735,-7.0282262)"
     data-type="button">
    <circle
       style="fill:#ff0000;fill-opacity:0.998382;stroke:#8a8a8a;stroke-width:0.265;stroke-linecap:round;stroke-linejoin:round;stroke-miterlimit:4;stroke-dasharray:none;stop-color:#000000"
       id="path1530"
       cx="50.212654"
       cy="28.345873"
       r="2.9326732" />
  </g>
  <g
     inkscape:groupmode="layer"
     id="layer9"
     inkscape:label="option"
     data-state="option"
     style="display:none"
     transform="translate(-4.2715735,-7.0282262)"
     data-type="button">
    <path
       id="path1826-23-7"
       style="fill:#ff0000;fill-opacity:0.998382;stroke:#8a8a8a;stroke-width:0.248009;stroke-linecap:round;stroke-linejoin:round;stroke-miterlimit:4;stroke-dasharray:none;stop-color:#000000"
       d="m 38.633583,27.348531 a 0.68627214,0.68627214 0 0 0 10e-7,0.970524 0.68627214,0.68627214 0 0 0 0.970521,-2e-6 l 2.317415,-2.317414 a 0.68627214,0.68627214 0 0 0 10e-7,-0.970521 0.68627214,0.68627214 0 0 0 -0.970523,-1e-6 z" />
  </g>
  <g
     inkscape:groupmode="layer"
     id="layer10"
     inkscape:label="pause"
     data-state="pause"
     style="display:none"
     transform="translate(-4.2715735,-7.0282262)"
     data-type="button">
    <path
       id="path1826-23"
       style="fill:#ff0000;fill-opacity:0.998382;stroke:#8a8a8a;stroke-width:0.248009;stroke-linecap:round;stroke-linejoin:round;stroke-miterlimit:4;stroke-dasharray:none;stop-color:#000000"
       d="m 33.285458,27.348531 a 0.68627214,0.68627214 0 0 0 1e-6,0.970524 0.68627214,0.68627214 0 0 0 0.970521,-2e-6 l 2.317415,-2.317414 a 0.68627214,0.68627214 0 0 0 1e-6,-0.970521 0.68627214,0.68627214 0 0 0 -0.970523,-1e-6 z" />
  </g>
  <g
     inkscape:groupmode="layer"
     id="layer11"
     inkscape:label="1"
     data-state="1"
     style="display:none"
     transform="translate(-4.2715735,-7.0282262)"
     data-type="button">
    <path
       id="path1826"
       style="fill:#ff0000;fill-opacity:0.998382;stroke:#8a8a8a;stroke-width:0.937357;stroke-linecap:round;stroke-linejoin:round;stroke-miterlimit:4;stroke-dasharray:none;stop-color:#000000"
       d="m 107.21094,144.76562 a 2.5937845,2.5937845 0 0 0 -2.59375,2.59376 2.5937845,2.5937845 0 0 0 2.59375,2.59374 h 12.38672 a 2.5937845,2.5937845 0 0 0 2.59375,-2.59374 2.5937845,2.5937845 0 0 0 -2.59375,-2.59376 z"
       transform="scale(0.26458333)" />
  </g>
  <g
     inkscape:groupmode="layer"
     id="layer12"
     inkscape:label="2"
     data-state="2"
     style="display:none"
     transform="translate(-4.2715735,-7.0282262)"
     data-type="button">
    <path
       id="path1826-2"
       style="fill:#ff0000;fill-opacity:0.998382;stroke:#8a8a8a;stroke-width:0.248009;stroke-linecap:round;stroke-linejoin:round;stroke-miterlimit:4;stroke-dasharray:none;stop-color:#000000"
       d="m 37.293682,38.30257 a 0.68627214,0.68627214 0 0 0 -0.686263,0.686265 0.68627214,0.68627214 0 0 0 0.686263,0.686261 h 3.277319 a 0.68627214,0.68627214 0 0 0 0.686263,-0.686261 0.68627214,0.68627214 0 0 0 -0.686263,-0.686265 z" />
  </g>
  <g
     inkscape:groupmode="layer"
     id="layer13"
     inkscape:label="3"
     data-state="3"
     style="display:none"
     transform="translate(-4.2715735,-7.0282262)"
     data-type="button">
    <path
       id="path1826-2-7"
       style="fill:#ff0000;fill-opacity:0.998382;stroke:#8a8a8a;stroke-width:0.248009;stroke-linecap:round;stroke-linejoin:round;stroke-miterlimit:4;stroke-dasharray:none;stop-color:#000000"
       d="m 45.981759,38.30257 a 0.68627214,0.68627214 0 0 0 -0.686263,0.686265 0.68627214,0.68627214 0 0 0 0.686263,0.686261 h 3.277319 a 0.68627214,0.68627214 0 0 0 0.686263,-0.686261 0.68627214,0.68627214 0 0 0 -0.686263,-0.686265 z" />
  </g>
  <g
     inkscape:groupmode="layer"
     id="layer14"
     inkscape:label="4"
     data-state="4"
     style="display:none"
     transform="translate(-4.2715735,-7.0282262)"
     data-type="button">
    <path
       id="path1826-6"
       style="fill:#ff0000;fill-opacity:0.998382;stroke:#8a8a8a;stroke-width:0.248009;stroke-linecap:round;stroke-linejoin:round;stroke-miterlimit:4;stroke-dasharray:none;stop-color:#000000"
       d="m 28.366228,43.906032 a 0.68627214,0.68627214 0 0 0 -0.686263,0.686265 0.68627214,0.68627214 0 0 0 0.686263,0.686261 h 3.277319 a 0.68627214,0.68627214 0 0 0 0.686263,-0.686261 0.68627214,0.68627214 0 0 0 -0.686263,-0.686265 z" />
    <path
       id="path3538"
       style="display:inline;fill:#ff0000;stroke:#808080;stroke-width:0.999999px;stroke-linecap:butt;stroke-linejoin:miter;stroke-opacity:1"
       d="m 82.146484,27.091797 c -0.695376,0.04524 -1.339256,0.258834 -1.972656,0.505859 -15.283842,5.462167 -26.101918,11.481634 -32.855469,18.007813 -1.297043,1.672078 -1.333558,2.516317 -1.546875,3.476562 v 4.388672 C 56.042035,43.155829 69.360793,35.430145 86.234375,30.767578 l -1.804687,-3.169922 c -0.840724,-0.427979 -1.587827,-0.551098 -2.283204,-0.505859 z"
       transform="scale(0.26458333)" />
  </g>
  <g
     inkscape:groupmode="layer"
     id="layer15"
     inkscape:label="5"
     data-state="5"
     style="display:none"
     transform="translate(-4.2715735,-7.0282262)"
     data-type="button">
    <path
       id="path1826-6-6"
       style="fill:#ff0000;fill-opacity:0.998382;stroke:#8a8a8a;stroke-width:0.248009;stroke-linecap:round;stroke-linejoin:round;stroke-miterlimit:4;stroke-dasharray:none;stop-color:#000000"
       d="m 37.293682,43.906032 a 0.68627214,0.68627214 0 0 0 -0.686263,0.686265 0.68627214,0.68627214 0 0 0 0.686263,0.686261 h 3.277319 a 0.68627214,0.68627214 0 0 0 0.686263,-0.686261 0.68627214,0.68627214 0 0 0 -0.686263,-0.686265 z" />
  </g>
  <g
     inkscape:groupmode="layer"
     id="layer16"
     inkscape:label="6"
     data-state="6"
     style="display:none"
     transform="translate(-4.2715735,-7.0282262)"
     data-type="button">
    <path
       id="path1826-6-6-9"
       style="fill:#ff0000;fill-opacity:0.998382;stroke:#8a8a8a;stroke-width:0.248009;stroke-linecap:round;stroke-linejoin:round;stroke-miterlimit:4;stroke-dasharray:none;stop-color:#000000"
       d="m 45.981759,43.906032 a 0.68627214,0.68627214 0 0 0 -0.686263,0.686265 0.68627214,0.68627214 0 0 0 0.686263,0.686261 h 3.277319 a 0.68627214,0.68627214 0 0 0 0.686263,-0.686261 0.68627214,0.68627214 0 0 0 -0.686263,-0.686265 z" />
    <path
       id="path3538-7"
       style="fill:#ff0000;stroke:#808080;stroke-width:0.999999px;stroke-linecap:butt;stroke-linejoin:miter;stroke-opacity:1"
       d="m 211.52344,27.091797 c -0.69538,-0.04524 -1.44248,0.07788 -2.28321,0.505859 l -1.80468,3.169922 c 16.87434,4.662512 30.19221,12.38789 40.46289,22.703125 v -4.388672 c -0.21332,-0.960245 -0.24983,-1.804484 -1.54688,-3.476562 -6.75355,-6.526179 -17.57162,-12.545646 -32.85547,-18.007813 -0.6334,-0.247025 -1.27728,-0.460621 -1.97265,-0.505859 z"
       transform="scale(0.26458333)" />
  </g>
  <g
     inkscape:groupmode="layer"
     id="layer17"
     inkscape:label="7"
     data-state="7"
     style="display:none"
     transform="translate(-4.2715735,-7.0282262)"
     data-type="button">
    <path
       id="path1826-6-0"
       style="fill:#ff0000;fill-opacity:0.998382;stroke:#8a8a8a;stroke-width:0.248009;stroke-linecap:round;stroke-linejoin:round;stroke-miterlimit:4;stroke-dasharray:none;stop-color:#000000"
       d="m 28.366228,49.453727 a 0.68627214,0.68627214 0 0 0 -0.686263,0.686265 0.68627214,0.68627214 0 0 0 0.686263,0.686261 h 3.277319 a 0.68627214,0.68627214 0 0 0 0.686263,-0.686261 0.68627214,0.68627214 0 0 0 -0.686263,-0.686265 z" />
    <circle
       style="fill:#ff0000;fill-opacity:0.998382;stroke:#8a8a8a;stroke-width:0.264999;stroke-linecap:round;stroke-linejoin:round;stroke-miterlimit:4;stroke-dasharray:none;stop-color:#000000"
       id="path1678"
       cx="46.630047"
       cy="22.148285"
       r="2.0884423" />
  </g>
  <g
     inkscape:groupmode="layer"
     id="layer18"
     inkscape:label="8"
     data-state="8"
     style="display:none"
     transform="translate(-4.2715735,-7.0282262)"
     data-type="button">
    <path
       id="path1826-6-0-1"
       style="fill:#ff0000;fill-opacity:0.998382;stroke:#8a8a8a;stroke-width:0.248009;stroke-linecap:round;stroke-linejoin:round;stroke-miterlimit:4;stroke-dasharray:none;stop-color:#000000"
       d="m 37.293682,49.453727 a 0.68627214,0.68627214 0 0 0 -0.686263,0.686265 0.68627214,0.68627214 0 0 0 0.686263,0.686261 h 3.277319 a 0.68627214,0.68627214 0 0 0 0.686263,-0.686261 0.68627214,0.68627214 0 0 0 -0.686263,-0.686265 z" />
    <circle
       style="fill:#ff0000;fill-opacity:0.998382;stroke:#8a8a8a;stroke-width:0.264999;stroke-linecap:round;stroke-linejoin:round;stroke-miterlimit:4;stroke-dasharray:none;stop-color:#000000"
       id="path1678-7"
       cx="51.363895"
       cy="17.559443"
       r="2.0884423" />
  </g>
  <g
     inkscape:groupmode="layer"
     id="layer19"
     inkscape:label="9"
     data-state="9"
     style="display:none"
     transform="translate(-4.2715735,-7.0282262)"
     data-type="button">
    <path
       id="path1826-6-0-1-2"
       style="fill:#ff0000;fill-opacity:0.998382;stroke:#8a8a8a;stroke-width:0.248009;stroke-linecap:round;stroke-linejoin:round;stroke-miterlimit:4;stroke-dasharray:none;stop-color:#000000"
       d="m 45.981759,49.453727 a 0.68627214,0.68627214 0 0 0 -0.686263,0.686265 0.68627214,0.68627214 0 0 0 0.686263,0.686261 h 3.277319 a 0.68627214,0.68627214 0 0 0 0.686263,-0.686261 0.68627214,0.68627214 0 0 0 -0.686263,-0.686265 z" />
    <circle
       style="fill:#ff0000;fill-opacity:0.998382;stroke:#8a8a8a;stroke-width:0.264999;stroke-linecap:round;stroke-linejoin:round;stroke-miterlimit:4;stroke-dasharray:none;stop-color:#000000"
       id="path1678-7-0"
       cx="56.775013"
       cy="13.720577"
       r="2.0884423" />
  </g>
  <g
     inkscape:groupmode="layer"
     id="layer20"
     inkscape:label="*"
     data-state="*"
     style="display:none"
     transform="translate(-4.2715735,-7.0282262)"
     data-type="button">
    <path
       id="path1826-6-0-6"
       style="fill:#ff0000;fill-opacity:0.998382;stroke:#8a8a8a;stroke-width:0.248009;stroke-linecap:round;stroke-linejoin:round;stroke-miterlimit:4;stroke-dasharray:none;stop-color:#000000"
       d="m 28.366228,54.87393 a 0.68627214,0.68627214 0 0 0 -0.686263,0.686265 0.68627214,0.68627214 0 0 0 0.686263,0.686261 h 3.277319 A 0.68627214,0.68627214 0 0 0 32.32981,55.560195 0.68627214,0.68627214 0 0 0 31.643547,54.87393 Z" />
  </g>
  <g
     inkscape:groupmode="layer"
     id="layer21"
     inkscape:label="0"
     data-state="0"
     style="display:none"
     transform="translate(-4.2715735,-7.0282262)"
     data-type="button">
    <path
       id="path1826-6-0-6-8"
       style="fill:#ff0000;fill-opacity:0.998382;stroke:#8a8a8a;stroke-width:0.248009;stroke-linecap:round;stroke-linejoin:round;stroke-miterlimit:4;stroke-dasharray:none;stop-color:#000000"
       d="m 37.293682,54.87393 a 0.68627214,0.68627214 0 0 0 -0.686263,0.686265 0.68627214,0.68627214 0 0 0 0.686263,0.686261 h 3.277319 a 0.68627214,0.68627214 0 0 0 0.686263,-0.686261 0.68627214,0.68627214 0 0 0 -0.686263,-0.686265 z" />
  </g>
  <g
     inkscape:groupmode="layer"
     id="layer22"
     inkscape:label="#"
     data-state="#"
     style="display:none"
     transform="translate(-4.2715735,-7.0282262)"
     data-type="button">
    <path
       id="path1826-6-0-6-8-0"
       style="fill:#ff0000;fill-opacity:0.998382;stroke:#8a8a8a;stroke-width:0.248009;stroke-linecap:round;stroke-linejoin:round;stroke-miterlimit:4;stroke-dasharray:none;stop-color:#000000"
       d="m 45.981759,54.87393 a 0.68627214,0.68627214 0 0 0 -0.686263,0.686265 0.68627214,0.68627214 0 0 0 0.686263,0.686261 h 3.277319 a 0.68627214,0.68627214 0 0 0 0.686263,-0.686261 0.68627214,0.68627214 0 0 0 -0.686263,-0.686265 z" />
  </g>
  <g
     inkscape:groupmode="layer"
     id="layer2"
     inkscape:label="up"
     style="display:none"
     data-state="up"
     transform="translate(-4.2715735,-7.0282262)"
     data-type="button">
    <path
       id="path13719"
       style="fill:#ff0000;fill-opacity:0.998382;stroke:none;stroke-width:0.995059;stroke-linecap:round;stroke-linejoin:round;stroke-miterlimit:4;stroke-dasharray:none;stop-color:#000000"
       d="m 80.066406,57.46875 a 23.632667,23.632667 0 0 0 -7.21289,1.136719 c 7.1e-5,-0.0034 -7.6e-5,-0.0064 0,-0.0098 l -0.002,0.0098 a 23.632667,23.632667 0 0 0 -0.01172,0.0039 c -0.138072,6.331981 0.384735,11.303022 -1.892578,13.371094 l 9.11914,9.117187 9.142578,-9.140625 C 86.960913,69.877092 87.472579,64.922708 87.335938,58.619141 A 23.632667,23.632667 0 0 0 80.066406,57.46875 Z"
       transform="scale(0.26458333)" />
  </g>
  <g
     inkscape:groupmode="layer"
     id="layer3"
     inkscape:label="down"
     style="display:none"
     data-state="down"
     transform="translate(-4.2715735,-7.0282262)"
     data-type="button">
    <path
       id="path13723"
       style="fill:#ff0000;fill-opacity:0.998382;stroke:none;stroke-width:0.995059;stroke-linecap:round;stroke-linejoin:round;stroke-miterlimit:4;stroke-dasharray:none;stop-color:#000000"
       d="m 89.201172,90.232422 -9.134766,-9.134766 -9.11914,9.119141 c 2.277644,2.069536 1.755741,7.047029 1.894531,13.382813 a 23.632667,23.632667 0 0 0 7.224609,1.13281 23.632667,23.632667 0 0 0 7.257813,-1.14258 c 0.137645,-6.313833 -0.378284,-11.278879 1.876953,-13.357418 z"
       transform="scale(0.26458333)" />
  </g>
  <g
     inkscape:groupmode="layer"
     id="layer4"
     inkscape:label="left"
     style="display:none"
     data-state="left"
     transform="translate(-4.2715735,-7.0282262)"
     data-type="button">
    <path
       id="path4067-5-3-8"
       style="fill:#ff0000;fill-opacity:0.998382;stroke:none;stroke-width:0.995059;stroke-linecap:round;stroke-linejoin:round;stroke-miterlimit:4;stroke-dasharray:none;stop-color:#000000"
       d="m 70.947266,90.216797 9.11914,-9.119141 -9.11914,-9.117187 c -0.02547,0.02313 -0.05195,0.04596 -0.07813,0.06836 -2.123535,2.236857 -6.909517,1.581207 -13.277344,1.78125 a 23.632667,23.632667 0 0 0 -0.01953,0.05664 l -0.0098,0.002 c 0.0034,-7.2e-5 0.0064,7.5e-5 0.0098,0 a 23.632667,23.632667 0 0 0 -1.138672,7.210937 23.632667,23.632667 0 0 0 1.148437,7.265625 c 6.371611,0.200807 11.162732,-0.454545 13.28711,1.783204 0.02643,0.02262 0.05242,0.045 0.07813,0.06836 z"
       transform="scale(0.26458333)" />
  </g>
  <g
     inkscape:groupmode="layer"
     id="layer5"
     inkscape:label="right"
     style="display:none"
     data-state="right"
     transform="translate(-4.2715735,-7.0282262)"
     data-type="button">
    <path
       id="path13721"
       style="fill:#ff0000;fill-opacity:0.998382;stroke:none;stroke-width:0.995059;stroke-linecap:round;stroke-linejoin:round;stroke-miterlimit:4;stroke-dasharray:none;stop-color:#000000"
       d="m 89.208984,71.957031 -9.142578,9.140625 9.134766,9.134766 c 0.03167,-0.02919 0.06489,-0.05594 0.09766,-0.08398 2.121018,-2.234215 6.89931,-1.583464 13.255858,-1.78125 a 23.632667,23.632667 0 0 0 1.14453,-7.267579 23.632667,23.632667 0 0 0 -1.14844,-7.269531 c -6.348524,-0.196191 -11.122948,0.451079 -13.242182,-1.78125 -0.03448,-0.02951 -0.06635,-0.06103 -0.09961,-0.0918 z"
       transform="scale(0.26458333)" />
  </g>
</svg>
