<?xml version="1.0" encoding="UTF-8" standalone="no"?>
<svg
   version="1.1"
   id="svg884"
   width="602.87256"
   height="293.35699"
   viewBox="0 0 602.87256 293.35699"
   sodipodi:docname="nes30pro.svg"
   inkscape:version="1.1.2 (0a00cf5339, 2022-02-04)"
   data-name="8BitDo NES30 Pro Controller"
   xmlns:inkscape="http://www.inkscape.org/namespaces/inkscape"
   xmlns:sodipodi="http://sodipodi.sourceforge.net/DTD/sodipodi-0.dtd"
   xmlns="http://www.w3.org/2000/svg"
   xmlns:svg="http://www.w3.org/2000/svg">
  <defs
     id="defs888" />
  <sodipodi:namedview
     id="namedview886"
     pagecolor="#ff00ff"
     bordercolor="#666666"
     borderopacity="1.0"
     inkscape:pageshadow="2"
     inkscape:pageopacity="0"
     inkscape:pagecheckerboard="false"
     showgrid="false"
     inkscape:snap-object-midpoints="true"
     inkscape:snap-global="true"
     inkscape:snap-nodes="true"
     inkscape:object-paths="true"
     inkscape:object-nodes="true"
     inkscape:snap-others="true"
     inkscape:snap-grids="false"
     inkscape:snap-to-guides="false"
     inkscape:snap-smooth-nodes="true"
     inkscape:snap-midpoints="true"
     inkscape:snap-intersection-paths="true"
     inkscape:zoom="1.4492308"
     inkscape:cx="160.08492"
     inkscape:cy="100.39809"
     inkscape:window-width="3840"
     inkscape:window-height="2089"
     inkscape:window-x="0"
     inkscape:window-y="34"
     inkscape:window-maximized="1"
     inkscape:current-layer="g17367"
     fit-margin-top="0"
     fit-margin-left="0"
     fit-margin-right="0"
     fit-margin-bottom="0"
     showborder="true" />
  <g
     inkscape:groupmode="layer"
     id="layer1"
     inkscape:label="outer shape"
     style="display:inline"
     transform="translate(-19.24438,-182.7912)">
    <path
       id="path3309"
       style="display:inline;fill:#b2b2b2;fill-opacity:1;stroke:#000000;stroke-width:0.448741;stop-color:#000000"
       d="M 165.92383,183.01562 C 85.038841,183.01543 19.468557,248.58571 19.46875,329.4707 c 8.84e-4,80.88423 65.570852,146.45332 146.45508,146.45313 23.63726,-0.12192 46.89381,-5.96336 67.7832,-17.02539 h 173.19141 c 20.45317,10.85383 43.77079,17.02539 68.53906,17.02539 80.88471,-1e-5 146.45508,-65.56842 146.45508,-146.45313 0,-80.88471 -65.57037,-146.45507 -146.45508,-146.45508 -24.76827,0 -48.08589,6.17156 -68.53906,17.0254 -57.48893,0 -114.97787,0 -172.4668,0 -21.10618,-11.17607 -44.62528,-17.02098 -68.50781,-17.0254 z"
       sodipodi:nodetypes="cccccsssccc" />
  </g>
  <g
     inkscape:groupmode="layer"
     id="layer5"
     inkscape:label="inner shape"
     style="display:inline"
     transform="translate(-19.24438,-182.7912)">
    <path
       id="path996"
       style="display:inline;fill:#343434;fill-opacity:1;stroke:#000000;stroke-width:0.370938;stroke-miterlimit:4;stroke-dasharray:none;stop-color:#000000"
       d="M 165.92383,208.4082 A 121.06236,121.06236 0 0 0 44.861328,329.4707 121.06236,121.06236 0 0 0 165.92383,450.53125 H 475.4375 A 121.06236,121.06236 0 0 0 596.5,329.4707 121.06236,121.06236 0 0 0 475.4375,208.4082 Z" />
  </g>
  <g
     inkscape:groupmode="layer"
     id="layer3"
     inkscape:label="guide lines (hide)"
     style="display:none"
     transform="translate(-19.24438,-182.7912)">
    <path
       style="display:inline;fill:none;stroke:#000000;stroke-width:0.377953;stroke-linecap:butt;stroke-linejoin:miter;stroke-miterlimit:4;stroke-dasharray:none;stroke-opacity:1"
       d="M 165.92392,200.04199 36.496063,329.46985"
       id="path3585" />
    <path
       style="fill:none;stroke:#000000;stroke-width:0.377953;stroke-linecap:butt;stroke-linejoin:miter;stroke-miterlimit:4;stroke-dasharray:none;stroke-opacity:1"
       d="M 165.92392,450.53221 V 164.58849"
       id="path6267-3" />
    <path
       style="fill:none;stroke:#000000;stroke-width:0.377953;stroke-linecap:butt;stroke-linejoin:miter;stroke-miterlimit:4;stroke-dasharray:none;stroke-opacity:1"
       d="M 475.43793,200.04199 604.86579,329.46985"
       id="path3585-4" />
    <path
       style="fill:none;stroke:#000000;stroke-width:0.377953;stroke-linecap:butt;stroke-linejoin:miter;stroke-miterlimit:4;stroke-dasharray:none;stroke-opacity:1"
       d="M 475.43793,450.53221 V 164.58849"
       id="path6267-0" />
    <path
       style="fill:none;stroke:#000000;stroke-width:0.377953;stroke-linecap:butt;stroke-linejoin:miter;stroke-miterlimit:4;stroke-dasharray:none;stroke-opacity:1"
       d="M 631.29323,295.19141 H -30.871753"
       id="path7515"
       sodipodi:nodetypes="cc" />
    <path
       style="fill:none;stroke:#000000;stroke-width:0.377953;stroke-linecap:butt;stroke-linejoin:miter;stroke-miterlimit:4;stroke-dasharray:none;stroke-opacity:1"
       d="M 584.39286,220.51492 335.74357,469.16421"
       id="path5256-3"
       sodipodi:nodetypes="cc" />
  </g>
  <g
     inkscape:groupmode="layer"
     id="layer6"
     inkscape:label="start &amp; select trim"
     style="display:inline"
     transform="translate(-19.24438,-182.7912)">
    <path
       id="path1396"
       style="display:inline;fill:#b2b2b2;fill-opacity:1;stroke:#000000;stroke-width:0.377953;stroke-miterlimit:4;stroke-dasharray:none;stop-color:#000000"
       d="m 271.0957,272.88086 a 22.310036,22.310036 0 0 0 -22.30859,22.31055 22.310036,22.310036 0 0 0 22.30859,22.31054 h 99.16992 a 22.310036,22.310036 0 0 0 22.31055,-22.31054 22.310036,22.310036 0 0 0 -22.31055,-22.31055 z" />
  </g>
  <g
     inkscape:groupmode="layer"
     id="layer19"
     inkscape:label="start &amp; select"
     transform="translate(-19.24438,-182.7912)">
    <g
       inkscape:groupmode="layer"
       id="layer7"
       inkscape:label="start &amp; select (normal)"
       style="display:inline">
      <path
         id="path1500"
         style="display:inline;fill:#000000;fill-opacity:1;stroke:#000000;stroke-width:0.377953;stroke-miterlimit:4;stroke-dasharray:none;stop-color:#000000"
         d="m 271.0957,286.66992 a 8.5217648,8.5217648 0 0 0 -8.52148,8.52149 8.5217648,8.5217648 0 0 0 8.52148,8.52148 h 27.19336 a 8.5217648,8.5217648 0 0 0 8.52149,-8.52148 8.5217648,8.5217648 0 0 0 -8.52149,-8.52149 z" />
      <path
         id="path1500-8"
         style="fill:#000000;fill-opacity:1;stroke:#000000;stroke-width:0.377953;stroke-miterlimit:4;stroke-dasharray:none;stop-color:#000000"
         d="m 343.07227,286.66992 a 8.5217648,8.5217648 0 0 0 -8.52149,8.52149 8.5217648,8.5217648 0 0 0 8.52149,8.52148 h 27.19335 a 8.5217648,8.5217648 0 0 0 8.52149,-8.52148 8.5217648,8.5217648 0 0 0 -8.52149,-8.52149 z" />
    </g>
    <g
       inkscape:groupmode="layer"
       id="g17045"
       inkscape:label="select"
       style="display:none"
       data-state="select"
       data-type="button">
      <path
         id="path17041"
         style="display:inline;fill:#ff0000;fill-opacity:1;stroke:#000000;stroke-width:0.377953;stroke-miterlimit:4;stroke-dasharray:none;stop-color:#000000"
         d="m 271.0957,286.66992 a 8.5217648,8.5217648 0 0 0 -8.52148,8.52149 8.5217648,8.5217648 0 0 0 8.52148,8.52148 h 27.19336 a 8.5217648,8.5217648 0 0 0 8.52149,-8.52148 8.5217648,8.5217648 0 0 0 -8.52149,-8.52149 z" />
    </g>
    <g
       inkscape:groupmode="layer"
       id="g17039"
       inkscape:label="start"
       style="display:none"
       data-state="start"
       data-type="button">
      <path
         id="path17037"
         style="fill:#ff0000;fill-opacity:1;stroke:#000000;stroke-width:0.377953;stroke-miterlimit:4;stroke-dasharray:none;stop-color:#000000"
         d="m 343.07227,286.66992 a 8.5217648,8.5217648 0 0 0 -8.52149,8.52149 8.5217648,8.5217648 0 0 0 8.52149,8.52148 h 27.19335 a 8.5217648,8.5217648 0 0 0 8.52149,-8.52148 8.5217648,8.5217648 0 0 0 -8.52149,-8.52149 z" />
    </g>
  </g>
  <g
     inkscape:groupmode="layer"
     id="layer8"
     inkscape:label="sticks"
     style="display:inline"
     transform="translate(-19.24438,-182.7912)">
    <circle
       style="fill:#b2b2b2;fill-opacity:1;stroke:#000000;stroke-width:0.385042;stroke-miterlimit:4;stroke-dasharray:none;stop-color:#000000"
       id="path1144"
       cx="233.50203"
       cy="389.957"
       r="47.343525" />
    <circle
       style="fill:#ff0000;fill-opacity:0;stroke:#000000;stroke-width:0.27113;stroke-miterlimit:4;stroke-dasharray:none;stop-color:#000000"
       id="path1144-5"
       cx="233.50203"
       cy="389.957"
       r="33.337292" />
    <circle
       style="fill:#000000;fill-opacity:1;stroke:#000000;stroke-width:0.27113;stroke-miterlimit:4;stroke-dasharray:none;stop-color:#000000"
       id="path1144-5-9"
       cx="233.50203"
       cy="389.957"
       r="33.337292" />
    <circle
       style="fill:#b2b2b2;fill-opacity:1;stroke:#000000;stroke-width:0.385042;stroke-miterlimit:4;stroke-dasharray:none;stop-color:#000000"
       id="path1144-6"
       cx="-407.85983"
       cy="389.957"
       r="47.343525"
       transform="scale(-1,1)" />
    <circle
       style="fill:#ff0000;fill-opacity:0;stroke:#000000;stroke-width:0.27113;stroke-miterlimit:4;stroke-dasharray:none;stop-color:#000000"
       id="path1144-5-4"
       cx="-407.85983"
       cy="389.957"
       r="33.337292"
       transform="scale(-1,1)" />
    <circle
       style="fill:#000000;fill-opacity:1;stroke:#000000;stroke-width:0.27113;stroke-miterlimit:4;stroke-dasharray:none;stop-color:#000000"
       id="path1144-5-9-3"
       cx="-407.85983"
       cy="389.957"
       r="33.337292"
       transform="scale(-1,1)" />
  </g>
  <g
     inkscape:groupmode="layer"
     id="layer13"
     inkscape:label="rstick idle"
     style="display:none"
     data-state="rstick"
     transform="translate(-19.24438,-182.7912)"
     data-type="stick"
     data-extents-x="-30 30"
     data-extents-y="-30 30">
    <circle
       style="display:inline;fill:#292929;fill-opacity:0.998382;stroke:#000000;stroke-width:0.394443;stroke-miterlimit:4;stroke-dasharray:none;stop-color:#000000"
       id="path1292-3"
       cx="-407.85983"
       cy="389.957"
       r="20.020269"
       transform="scale(-1,1)" />
  </g>
  <g
     inkscape:groupmode="layer"
     id="g17787"
     inkscape:label="rstick active"
     style="display:none"
     data-state="rstick"
     transform="translate(-19.24438,-182.7912)"
     data-type="button">
    <circle
       style="display:inline;fill:#ff0000;fill-opacity:0.998382;stroke:#000000;stroke-width:0.394443;stroke-miterlimit:4;stroke-dasharray:none;stop-color:#000000"
       id="circle17785"
       cx="-407.85983"
       cy="389.957"
       r="20.020269"
       transform="scale(-1,1)" />
  </g>
  <g
     inkscape:groupmode="layer"
     id="g17367"
     inkscape:label="lstick idle"
     style="display:none"
     data-state="lstick"
     transform="translate(-19.24438,-182.7912)"
     data-type="stick"
     data-extents-x="-30 30"
     data-extents-y="-30 30">
    <circle
       style="display:inline;fill:#292929;fill-opacity:1;stroke:#000000;stroke-width:0.394443;stroke-miterlimit:4;stroke-dasharray:none;stop-color:#000000"
       id="circle17363"
       cx="233.50203"
       cy="389.957"
       r="20.020269" />
  </g>
  <g
     inkscape:groupmode="layer"
     id="g17531"
     inkscape:label="lstick active"
     style="display:none"
     data-state="lstick"
     transform="translate(-19.24438,-182.7912)"
     data-type="button">
    <circle
       style="display:inline;fill:#ff0000;fill-opacity:1;stroke:#000000;stroke-width:0.394443;stroke-miterlimit:4;stroke-dasharray:none;stop-color:#000000"
       id="circle17529"
       cx="233.50203"
       cy="389.957"
       r="20.020269" />
  </g>
  <g
     inkscape:groupmode="layer"
     id="layer18"
     inkscape:label="l and r buttons"
     style="display:inline"
     transform="translate(-19.24438,-182.7912)">
    <g
       inkscape:groupmode="layer"
       id="layer4"
       inkscape:label="l and r buttons (normal)"
       style="display:inline">
      <path
         id="path9669"
         style="display:inline;fill:#b2b2b2;fill-opacity:1;stroke:#000000;stroke-width:0.448741;stop-color:#000000"
         d="M 165.92383,183.01562 A 146.45473,146.45473 0 0 0 62.365234,225.91211 l 12.039063,12.03906 a 129.42786,129.42786 0 0 1 15.443359,-13.18945 129.42786,129.42786 0 0 1 17.316404,-10.61133 129.42786,129.42786 0 0 1 18.76367,-7.77344 129.42786,129.42786 0 0 1 19.75,-4.74023 129.42786,129.42786 0 0 1 20.2461,-1.59375 v -0.002 z" />
      <path
         id="path9669-8"
         style="display:inline;fill:#b2b2b2;fill-opacity:1;stroke:#000000;stroke-width:0.448741;stop-color:#000000"
         d="m 475.05579,183.01564 a 146.45473,146.45473 0 0 1 103.55859,42.89649 l -12.03906,12.03907 a 129.42786,129.42786 0 0 0 -15.44336,-13.18945 129.42786,129.42786 0 0 0 -17.3164,-10.61134 129.42786,129.42786 0 0 0 -18.76367,-7.77343 129.42786,129.42786 0 0 0 -19.75,-4.74023 129.42786,129.42786 0 0 0 -20.2461,-1.59375 v -0.002 z" />
      <path
         id="path9196"
         style="display:inline;fill:#b2b2b2;fill-opacity:1;stroke:#000000;stroke-width:0.448741;stop-color:#000000"
         d="m 165.92383,183.01562 v 17.0254 h 68.5039 a 146.45473,146.45473 0 0 0 -68.5039,-17.0254 z" />
      <path
         id="path9196-1"
         style="display:inline;fill:#b2b2b2;fill-opacity:1;stroke:#000000;stroke-width:0.448741;stop-color:#000000"
         d="m 475.05579,183.01562 v 17.0254 h -68.5039 a 146.45473,146.45473 0 0 1 68.5039,-17.0254 z" />
    </g>
    <g
       inkscape:groupmode="layer"
       id="g16394"
       inkscape:label="l2"
       style="display:none"
       data-state="l2"
       data-type="button">
      <path
         id="path16390"
         style="display:inline;fill:#ff0000;fill-opacity:1;stroke:#000000;stroke-width:0.448741;stop-color:#000000"
         d="m 165.92383,183.01562 v 17.0254 h 68.5039 a 146.45473,146.45473 0 0 0 -68.5039,-17.0254 z" />
    </g>
    <g
       inkscape:groupmode="layer"
       id="g16404"
       inkscape:label="r2"
       style="display:none"
       data-state="r2"
       data-type="button">
      <path
         id="path16402"
         style="display:inline;fill:#ff0000;fill-opacity:1;stroke:#000000;stroke-width:0.448741;stop-color:#000000"
         d="m 475.05579,183.01562 v 17.0254 h -68.5039 a 146.45473,146.45473 0 0 1 68.5039,-17.0254 z" />
    </g>
    <g
       inkscape:groupmode="layer"
       id="g16414"
       inkscape:label="l1"
       style="display:none"
       data-state="l1"
       data-type="button">
      <path
         id="path16406"
         style="display:inline;fill:#ff0000;fill-opacity:1;stroke:#000000;stroke-width:0.448741;stop-color:#000000"
         d="M 165.92383,183.01562 A 146.45473,146.45473 0 0 0 62.365234,225.91211 l 12.039063,12.03906 a 129.42786,129.42786 0 0 1 15.443359,-13.18945 129.42786,129.42786 0 0 1 17.316404,-10.61133 129.42786,129.42786 0 0 1 18.76367,-7.77344 129.42786,129.42786 0 0 1 19.75,-4.74023 129.42786,129.42786 0 0 1 20.2461,-1.59375 v -0.002 z" />
    </g>
    <g
       inkscape:groupmode="layer"
       id="g16424"
       inkscape:label="r1"
       style="display:none"
       data-state="r1"
       data-type="button">
      <path
         id="path16418"
         style="display:inline;fill:#ff0000;fill-opacity:1;stroke:#000000;stroke-width:0.448741;stop-color:#000000"
         d="m 475.05579,183.01564 a 146.45473,146.45473 0 0 1 103.55859,42.89649 l -12.03906,12.03907 a 129.42786,129.42786 0 0 0 -15.44336,-13.18945 129.42786,129.42786 0 0 0 -17.3164,-10.61134 129.42786,129.42786 0 0 0 -18.76367,-7.77343 129.42786,129.42786 0 0 0 -19.75,-4.74023 129.42786,129.42786 0 0 0 -20.2461,-1.59375 v -0.002 z" />
    </g>
  </g>
  <g
     inkscape:groupmode="layer"
     id="layer17"
     inkscape:label="d-pad"
     transform="translate(-19.24438,-182.7912)">
    <g
       inkscape:groupmode="layer"
       id="layer9"
       inkscape:label="d-pad (normal)"
       style="display:inline">
      <path
         style="display:inline;fill:#000000;fill-opacity:1;fill-rule:nonzero;stroke:#b2b2b2;stroke-width:1.52991;stroke-linecap:round;stroke-linejoin:miter;stroke-miterlimit:4;stroke-opacity:1"
         d="m 137.31571,241.50181 c -2.48958,0 -4.36458,2.05208 -4.36458,4.54166 v 31.24477 h -31.24998 c -2.484371,0 -4.536454,2.05209 -4.536454,4.54166 v 25.1354 c 0,2.48437 2.052083,4.53645 4.536454,4.53645 h 31.24998 v 31.24999 c 0,2.48437 1.875,4.36457 4.36458,4.36457 h 25.31249 c 2.48437,0 4.36458,-1.8802 4.36458,-4.36457 v -31.24999 h 31.24476 c 2.48438,0 4.53646,-2.05208 4.53646,-4.53645 v -25.1354 c 0,-2.48957 -2.05208,-4.54166 -4.53646,-4.54166 h -31.24476 v -31.24477 c 0,-2.48958 -1.88021,-4.54166 -4.36458,-4.54166 z m 0,0"
         id="path5" />
      <path
         style="display:inline;fill:#1a1a1a;fill-opacity:1;fill-rule:nonzero;stroke:none;stroke-width:1.33333"
         d="m 138.18556,245.43952 c -0.78646,0 -1.39584,0.60937 -1.39584,1.39583 v 34.09896 h -34.09896 c -0.78645,0 -1.39583,0.60938 -1.39583,1.39583 v 24.02604 c 0,0.78647 0.60938,1.45833 1.39583,1.45833 h 34.09896 v 34.04167 c 0,0.78647 0.60938,1.45833 1.39584,1.45833 h 24.08854 c 0.78646,0 1.39583,-0.67186 1.39583,-1.45833 v -34.04167 h 34.10417 c 0.78646,0 1.39583,-0.67186 1.39583,-1.45833 v -24.02604 c 0,-0.78645 -0.60937,-1.39583 -1.39583,-1.39583 h -34.10417 v -34.09896 c 0,-0.79166 -0.60937,-1.39583 -1.39583,-1.39583 z m 0,0"
         id="path6" />
      <path
         style="display:inline;fill:#1a1a1a;stroke:#000000;stroke-width:0.462963;stroke-linecap:butt;stroke-linejoin:miter;stroke-miterlimit:4;stroke-opacity:1"
         d="m 114.75843,284.40803 -5.07291,5.0677 -5.0677,5.07292 5.0677,5.07292 5.07291,5.0729 v -3.04688 h 10.14062 v -14.1979 h -10.14062 z m 0,0"
         id="path17" />
      <path
         style="display:inline;fill:#1a1a1a;stroke:#000000;stroke-width:0.462963;stroke-linecap:butt;stroke-linejoin:miter;stroke-miterlimit:4;stroke-opacity:1"
         d="m 185.59172,284.40803 5.07292,5.0677 5.0729,5.07292 -10.14582,10.14582 v -3.04688 H 175.4511 v -14.1979 h 10.14062 z m 0,0"
         id="path18" />
      <path
         style="display:inline;fill:#1a1a1a;stroke:#000000;stroke-width:0.462963;stroke-linecap:butt;stroke-linejoin:miter;stroke-miterlimit:4;stroke-opacity:1"
         d="m 160.21674,258.78304 -5.07291,-5.0677 -5.06771,-5.07292 -5.07291,5.07292 -5.07292,5.0677 h 3.04167 v 10.14583 h 14.20312 v -10.14583 z m 0,0"
         id="path19" />
      <path
         style="display:inline;fill:#1a1a1a;stroke:#000000;stroke-width:0.462963;stroke-linecap:butt;stroke-linejoin:miter;stroke-miterlimit:4;stroke-opacity:1"
         d="m 160.21674,330.69445 -5.07291,5.07292 -5.06771,5.0729 -10.14583,-10.14582 h 3.04167 v -10.14062 h 14.20312 v 10.14062 z m 0,0"
         id="path20" />
      <path
         style="display:inline;fill:#1a1a1a;stroke:#000000;stroke-width:0.682036;stroke-linecap:butt;stroke-linejoin:miter;stroke-miterlimit:4;stroke-opacity:1"
         d="m 162.40945,294.38198 c 0.006,6.71873 -5.4375,12.17187 -12.16146,12.17708 -6.72395,0.005 -12.17186,-5.44271 -12.17707,-12.16145 0,-0.005 0,-0.0156 0,-0.0208 -0.005,-6.71874 5.4375,-12.17186 12.16145,-12.17707 6.71875,-0.006 12.17187,5.44271 12.17708,12.16144 0,0.005 0,0.0156 0,0.0208 z m 0,0"
         id="path21" />
    </g>
    <g
       inkscape:groupmode="layer"
       id="g15327"
       inkscape:label="up"
       style="display:none"
       data-state="up"
       data-type="button">
      <path
         style="display:inline;fill:#ff0000;fill-opacity:1;stroke:#000000;stroke-width:0.462963;stroke-linecap:butt;stroke-linejoin:miter;stroke-miterlimit:4;stroke-opacity:1"
         d="m 160.21674,258.78304 -5.07291,-5.0677 -5.06771,-5.07292 -5.07291,5.07292 -5.07292,5.0677 h 3.04167 v 10.14583 h 14.20312 v -10.14583 z m 0,0"
         id="path15321" />
    </g>
    <g
       inkscape:groupmode="layer"
       id="g15577"
       inkscape:label="down"
       style="display:none"
       data-state="down"
       data-type="button">
      <path
         style="display:inline;fill:#f53434;fill-opacity:1;stroke:#000000;stroke-width:0.462963;stroke-linecap:butt;stroke-linejoin:miter;stroke-miterlimit:4;stroke-opacity:1"
         d="m 160.21674,330.69445 -5.07291,5.07292 -5.06771,5.0729 -10.14583,-10.14582 h 3.04167 v -10.14062 h 14.20312 v 10.14062 z m 0,0"
         id="path15575" />
    </g>
    <g
       inkscape:groupmode="layer"
       id="g15587"
       inkscape:label="left"
       style="display:none"
       data-state="left"
       data-type="button">
      <path
         style="display:inline;fill:#ff0000;fill-opacity:1;stroke:#000000;stroke-width:0.462963;stroke-linecap:butt;stroke-linejoin:miter;stroke-miterlimit:4;stroke-opacity:1"
         d="m 114.75843,284.40803 -5.07291,5.0677 -5.0677,5.07292 5.0677,5.07292 5.07291,5.0729 v -3.04688 h 10.14062 v -14.1979 h -10.14062 z m 0,0"
         id="path15579" />
    </g>
    <g
       inkscape:groupmode="layer"
       id="g15597"
       inkscape:label="right"
       style="display:none"
       data-state="right"
       data-type="button">
      <path
         style="display:inline;fill:#ff0000;fill-opacity:1;stroke:#000000;stroke-width:0.462963;stroke-linecap:butt;stroke-linejoin:miter;stroke-miterlimit:4;stroke-opacity:1"
         d="m 185.59172,284.40803 5.07292,5.0677 5.0729,5.07292 -10.14582,10.14582 v -3.04688 H 175.4511 v -14.1979 h 10.14062 z m 0,0"
         id="path15591" />
    </g>
  </g>
  <g
     inkscape:groupmode="layer"
     id="layer10"
     inkscape:label="hidey hole"
     style="display:none"
     transform="translate(-19.24438,-182.7912)" />
  <g
     inkscape:groupmode="layer"
     id="layer11"
     inkscape:label="centering studs"
     style="display:none"
     transform="translate(-19.24438,-182.7912)">
    <circle
       style="display:inline;fill:#ff0000;fill-opacity:0;stroke:#000000;stroke-width:0.0188976;stroke-miterlimit:4;stroke-dasharray:none;stop-color:#000000"
       id="path2289"
       cx="150.60052"
       cy="294.37939"
       r="0.36034074" />
    <circle
       style="display:inline;fill:#ff0000;fill-opacity:0;stroke:#000000;stroke-width:0.0188976;stroke-miterlimit:4;stroke-dasharray:none;stop-color:#000000"
       id="path2289-0"
       cx="-490.76132"
       cy="294.37939"
       r="0.36034074"
       transform="scale(-1,1)" />
  </g>
  <g
     inkscape:groupmode="layer"
     id="layer15"
     inkscape:label="face button outlines"
     style="display:inline"
     transform="translate(-19.24438,-182.7912)">
    <circle
       style="display:inline;fill:#b2b2b2;fill-opacity:1;stroke:#000000;stroke-width:0.418413;stroke-miterlimit:4;stroke-dasharray:none;stroke-dashoffset:0;stroke-opacity:1;stop-color:#000000"
       id="path13052"
       cx="492.0892"
       cy="254.95755"
       r="24.729767" />
    <circle
       style="display:inline;fill:#b2b2b2;fill-opacity:1;stroke:#000000;stroke-width:0.418413;stroke-miterlimit:4;stroke-dasharray:none;stroke-dashoffset:0;stroke-opacity:1;stop-color:#000000"
       id="path13052-9"
       cx="492.0892"
       cy="337.54834"
       r="24.729767" />
    <circle
       style="display:inline;fill:#b2b2b2;fill-opacity:1;stroke:#000000;stroke-width:0.418413;stroke-miterlimit:4;stroke-dasharray:none;stroke-dashoffset:0;stroke-opacity:1;stop-color:#000000"
       id="path13052-9-5"
       cx="450.70816"
       cy="295.19141"
       r="24.729767" />
    <circle
       style="display:inline;fill:#b2b2b2;fill-opacity:1;stroke:#000000;stroke-width:0.418413;stroke-miterlimit:4;stroke-dasharray:none;stroke-dashoffset:0;stroke-opacity:1;stop-color:#000000"
       id="path13052-9-5-0"
       cx="534.44617"
       cy="295.19141"
       r="24.729767" />
  </g>
  <g
     inkscape:groupmode="layer"
     id="layer14"
     inkscape:label="face buttons"
     style="display:inline"
     transform="translate(-19.24438,-182.7912)">
    <g
       inkscape:groupmode="layer"
       id="g14623"
       inkscape:label="face buttons (dark)"
       style="display:inline">
      <circle
         style="fill:#000000;fill-opacity:1;stroke:#000000;stroke-width:0.342358;stroke-miterlimit:4;stroke-dasharray:none;stroke-dashoffset:0;stroke-opacity:1;stop-color:#000000"
         id="circle14609"
         cx="492.0892"
         cy="254.95755"
         r="20.234638" />
      <circle
         style="fill:#000000;fill-opacity:1;stroke:#000000;stroke-width:0.342358;stroke-miterlimit:4;stroke-dasharray:none;stroke-dashoffset:0;stroke-opacity:1;stop-color:#000000"
         id="circle14613"
         cx="492.0892"
         cy="337.54834"
         r="20.234638" />
      <circle
         style="fill:#000000;fill-opacity:1;stroke:#000000;stroke-width:0.342358;stroke-miterlimit:4;stroke-dasharray:none;stroke-dashoffset:0;stroke-opacity:1;stop-color:#000000"
         id="circle14617"
         cx="450.70816"
         cy="295.19141"
         r="20.234638" />
      <circle
         style="fill:#000000;fill-opacity:1;stroke:#000000;stroke-width:0.342358;stroke-miterlimit:4;stroke-dasharray:none;stroke-dashoffset:0;stroke-opacity:1;stop-color:#000000"
         id="circle14621"
         cx="534.44617"
         cy="295.19141"
         r="20.234638" />
    </g>
    <g
       inkscape:groupmode="layer"
       id="layer12"
       inkscape:label="face buttons (normal)"
       style="display:none">
      <circle
         style="fill:#ff0000;fill-opacity:1;stroke:#000000;stroke-width:0.342358;stroke-miterlimit:4;stroke-dasharray:none;stroke-dashoffset:0;stroke-opacity:1;stop-color:#000000"
         id="path13052-0"
         cx="492.0892"
         cy="254.95755"
         r="20.234638" />
      <circle
         style="fill:#ff0000;fill-opacity:1;stroke:#000000;stroke-width:0.342358;stroke-miterlimit:4;stroke-dasharray:none;stroke-dashoffset:0;stroke-opacity:1;stop-color:#000000"
         id="path13052-0-2"
         cx="492.0892"
         cy="337.54834"
         r="20.234638" />
      <circle
         style="fill:#ff0000;fill-opacity:1;stroke:#000000;stroke-width:0.342358;stroke-miterlimit:4;stroke-dasharray:none;stroke-dashoffset:0;stroke-opacity:1;stop-color:#000000"
         id="path13052-0-2-4"
         cx="450.70816"
         cy="295.19141"
         r="20.234638" />
      <circle
         style="fill:#ff0000;fill-opacity:1;stroke:#000000;stroke-width:0.342358;stroke-miterlimit:4;stroke-dasharray:none;stroke-dashoffset:0;stroke-opacity:1;stop-color:#000000"
         id="path13052-0-2-4-5"
         cx="534.44617"
         cy="295.19141"
         r="20.234638" />
    </g>
    <g
       inkscape:groupmode="layer"
       id="g14982"
       inkscape:label="y"
       style="display:none"
       data-state="y"
       data-type="button">
      <circle
         style="fill:#ff0000;fill-opacity:1;stroke:#000000;stroke-width:0.342358;stroke-miterlimit:4;stroke-dasharray:none;stroke-dashoffset:0;stroke-opacity:1;stop-color:#000000"
         id="circle14978"
         cx="450.70816"
         cy="295.19141"
         r="20.234638" />
    </g>
    <g
       inkscape:groupmode="layer"
       id="g14972"
       inkscape:label="x"
       style="display:none"
       data-state="x"
       data-type="button">
      <circle
         style="fill:#ff0000;fill-opacity:1;stroke:#000000;stroke-width:0.342358;stroke-miterlimit:4;stroke-dasharray:none;stroke-dashoffset:0;stroke-opacity:1;stop-color:#000000"
         id="circle14964"
         cx="492.0892"
         cy="254.95755"
         r="20.234638" />
    </g>
    <g
       inkscape:groupmode="layer"
       id="g14962"
       inkscape:label="b"
       style="display:none"
       data-state="b"
       data-type="button">
      <circle
         style="fill:#ff0000;fill-opacity:1;stroke:#000000;stroke-width:0.342358;stroke-miterlimit:4;stroke-dasharray:none;stroke-dashoffset:0;stroke-opacity:1;stop-color:#000000"
         id="circle14956"
         cx="492.0892"
         cy="337.54834"
         r="20.234638" />
    </g>
    <g
       inkscape:groupmode="layer"
       id="g14952"
       inkscape:label="a"
       style="display:none"
       data-state="a"
       data-type="button">
      <circle
         style="fill:#ff0000;fill-opacity:1;stroke:#000000;stroke-width:0.342358;stroke-miterlimit:4;stroke-dasharray:none;stroke-dashoffset:0;stroke-opacity:1;stop-color:#000000"
         id="circle14950"
         cx="534.44617"
         cy="295.19141"
         r="20.234638" />
    </g>
  </g>
</svg>
