<?xml version="1.0" encoding="UTF-8" standalone="no"?>
<svg
   width="150.89619mm"
   height="133.78848mm"
   viewBox="0 0 150.89619 133.78848"
   version="1.1"
   id="svg5"
   inkscape:version="1.1.2 (0a00cf5339, 2022-02-04)"
   sodipodi:docname="ps1.svg"
   data-name="Playstation Controller"
   xmlns:inkscape="http://www.inkscape.org/namespaces/inkscape"
   xmlns:sodipodi="http://sodipodi.sourceforge.net/DTD/sodipodi-0.dtd"
   xmlns="http://www.w3.org/2000/svg"
   xmlns:svg="http://www.w3.org/2000/svg">
  <sodipodi:namedview
     id="namedview7"
     pagecolor="#ffffff"
     bordercolor="#cccccc"
     borderopacity="1"
     inkscape:pageshadow="0"
     inkscape:pageopacity="1"
     inkscape:pagecheckerboard="0"
     inkscape:document-units="mm"
     showgrid="false"
     inkscape:snap-smooth-nodes="false"
     inkscape:snap-intersection-paths="true"
     inkscape:object-paths="false"
     inkscape:snap-global="true"
     inkscape:snap-midpoints="true"
     inkscape:object-nodes="true"
     inkscape:snap-others="false"
     inkscape:snap-grids="false"
     inkscape:zoom="1.5411756"
     inkscape:cx="195.95431"
     inkscape:cy="65.209961"
     inkscape:window-width="3840"
     inkscape:window-height="2089"
     inkscape:window-x="0"
     inkscape:window-y="34"
     inkscape:window-maximized="1"
     inkscape:current-layer="layer11"
     inkscape:snap-bbox="true"
     inkscape:snap-nodes="true"
     inkscape:snap-bbox-midpoints="true"
     fit-margin-top="0"
     fit-margin-left="0"
     fit-margin-right="0"
     fit-margin-bottom="0">
    <inkscape:grid
       type="xygrid"
       id="grid5064"
       units="px"
       originx="-45.168879"
       originy="-104.31703" />
  </sodipodi:namedview>
  <defs
     id="defs2" />
  <g
     inkscape:groupmode="layer"
     id="layer17"
     inkscape:label="bottom"
     transform="translate(-1.7216479e-6,36.731934)"
     style="display:inline">
    <path
       style="display:inline;fill:#e1e1e1;stroke:#000000;stroke-width:0.264583px;stroke-linecap:butt;stroke-linejoin:miter;stroke-opacity:1"
       d="m 19.668667,-34.995 c 0.007,9.59654 -0.487848,20.761349 0.733475,29.0940498 6.639468,7.1769142 17.59535,6.09810808 24.009169,-0.5890294 0.372136,-9.3875514 0.144199,-18.8544654 -0.219161,-28.4819094 -0.397384,-1.365411 -1.328773,-1.400034 -1.76879,-1.6276 l -20.767723,0.09817 c -0.56945,0.0532 -1.743839,0.21386 -1.98697,1.506274 z"
       id="path1140"
       sodipodi:nodetypes="cccccccc" />
    <rect
       style="display:inline;fill:#4a4a4a;fill-opacity:0.998382;stroke:#8a8a8a;stroke-width:0.656;stroke-linecap:round;stroke-linejoin:round;stop-color:#000000"
       id="rect2133"
       width="17.787439"
       height="7.9752884"
       x="23.110748"
       y="-32.247387"
       ry="1.6614898" />
    <rect
       style="fill:#4a4a4a;fill-opacity:0.998382;stroke:#8a8a8a;stroke-width:0.656;stroke-linecap:round;stroke-linejoin:round;stop-color:#000000"
       id="rect2133-3"
       width="17.787439"
       height="7.9752884"
       x="23.110748"
       y="-16.412012"
       ry="1.6614898" />
    <path
       style="fill:#e1e1e1;stroke:#000000;stroke-width:0.264583px;stroke-linecap:butt;stroke-linejoin:miter;stroke-opacity:1"
       d="m 176.31989,106.05397 c -0.007,9.59654 0.48785,20.76135 -0.73348,29.09405 -6.63946,7.17691 -17.59535,6.09811 -24.00917,-0.58903 -0.37213,-9.38755 -0.14419,-18.85446 0.21917,-28.48191 0.39738,-1.36541 1.32877,-1.40003 1.76879,-1.6276 l 20.76772,0.0982 c 0.56945,0.0532 1.74384,0.21386 1.98697,1.50627 z"
       id="path1140-6"
       sodipodi:nodetypes="cccccccc"
       transform="translate(-45.168902,-141.04897)" />
    <rect
       style="fill:#4a4a4a;fill-opacity:0.998382;stroke:#8a8a8a;stroke-width:0.656;stroke-linecap:round;stroke-linejoin:round;stop-color:#000000"
       id="rect2133-7"
       width="17.787439"
       height="7.9752884"
       x="-172.87781"
       y="108.80158"
       ry="1.6614898"
       transform="matrix(-1,0,0,1,-45.168902,-141.04897)" />
    <rect
       style="fill:#4a4a4a;fill-opacity:0.998382;stroke:#8a8a8a;stroke-width:0.656;stroke-linecap:round;stroke-linejoin:round;stop-color:#000000"
       id="rect2133-3-5"
       width="17.787439"
       height="7.9752884"
       x="-172.87781"
       y="124.63696"
       ry="1.6614898"
       transform="matrix(-1,0,0,1,-45.168902,-141.04897)" />
  </g>
  <g
     inkscape:groupmode="layer"
     id="layer18"
     inkscape:label="l2"
     style="display:none"
     data-state="l2"
     transform="translate(-1.7216479e-6,36.731934)"
     data-type="button">
    <rect
       style="fill:#ff0000;fill-opacity:0.998382;stroke:#8a8a8a;stroke-width:0.656;stroke-linecap:round;stroke-linejoin:round;stop-color:#000000"
       id="rect2133-3-6"
       width="17.787439"
       height="7.9752884"
       x="23.110748"
       y="-16.412012"
       ry="1.6614898" />
  </g>
  <g
     inkscape:groupmode="layer"
     id="layer19"
     inkscape:label="r2"
     data-state="r2"
     style="display:none"
     transform="translate(-1.7216479e-6,36.731934)"
     data-type="button">
    <rect
       style="fill:#ff0000;fill-opacity:0.998382;stroke:#8a8a8a;stroke-width:0.656;stroke-linecap:round;stroke-linejoin:round;stop-color:#000000"
       id="rect2133-3-5-2"
       width="17.787439"
       height="7.9752884"
       x="-127.70891"
       y="-16.412006"
       ry="1.6614898"
       transform="scale(-1,1)" />
  </g>
  <g
     inkscape:groupmode="layer"
     id="layer15"
     inkscape:label="lr buttons"
     transform="translate(-45.168901,-104.31703)"
     style="display:inline">
    <path
       id="path4090"
       style="display:inline;fill:#4a4a4a;stroke:#848484;stroke-width:2.47937;stroke-linecap:butt;stroke-linejoin:miter;stroke-miterlimit:4;stroke-dasharray:none;stroke-opacity:1"
       d="m 124.0957,140.06836 c -10.05109,0.0421 -20.1032,1.75733 -30.154294,4.3457 L 94.09375,154.5 h 0.0039 c 0.38482,-0.10435 0.769268,-0.20854 1.154297,-0.30859 0.489912,-0.12731 0.980557,-0.25071 1.470703,-0.3711 0.490146,-0.12038 0.980442,-0.23807 1.470703,-0.35156 0.490262,-0.11349 0.980444,-0.22345 1.470703,-0.33008 0.490254,-0.10662 0.980564,-0.2088 1.470704,-0.30859 0.49013,-0.0998 0.9808,-0.19803 1.4707,-0.29102 0.4899,-0.093 0.97921,-0.18136 1.46875,-0.26758 0.48954,-0.0862 0.97968,-0.16857 1.46875,-0.24804 0.48907,-0.0795 0.97637,-0.15575 1.46484,-0.22852 0.48848,-0.0728 0.97708,-0.14289 1.46485,-0.20898 0.48776,-0.0661 0.97595,-0.12806 1.46289,-0.1875 0.48693,-0.0594 0.973,-0.1171 1.45898,-0.16992 0.48599,-0.0528 0.97211,-0.1022 1.45703,-0.14844 0.48492,-0.0463 0.96939,-0.0892 1.45313,-0.12891 0.48373,-0.0397 0.96678,-0.0762 1.44922,-0.10937 0.48243,-0.0332 0.9643,-0.0632 1.44531,-0.0899 0.48101,-0.0267 0.95998,-0.0501 1.43945,-0.0703 0.47948,-0.0202 0.95773,-0.037 1.43555,-0.0508 0.47782,-0.0138 0.9556,-0.0239 1.43164,-0.0312 0.47604,-0.007 0.95163,-0.0107 1.42578,-0.0117 0.47415,-10e-4 0.94779,5.5e-4 1.41992,0.006 0.47214,0.005 0.9421,0.0138 1.41211,0.0254 0.47001,0.0116 0.93849,0.027 1.40625,0.0449 0.46776,0.0179 0.935,0.0384 1.40039,0.0625 0.4654,0.0241 0.92967,0.0517 1.39258,0.082 0.46291,0.0303 0.92446,0.0631 1.38477,0.0996 0.4603,0.0365 0.91936,0.0765 1.37695,0.11914 0.45759,0.0427 0.91439,0.0879 1.36914,0.13672 0.45475,0.0488 0.90758,0.10138 1.35937,0.15625 0.4518,0.0549 0.9009,0.1129 1.34961,0.17383 0.44872,0.0609 0.89628,0.12445 1.3418,0.19141 0.44552,0.0669 0.88982,0.13603 1.33203,0.20898 0.44221,0.0729 0.88349,0.14961 1.32227,0.22852 0.43878,0.0789 0.87531,0.16125 1.31055,0.24609 0.43523,0.0848 0.86921,0.17293 1.30078,0.26367 0.43156,0.0907 0.86128,0.18269 1.28906,0.2793 0.42778,0.0966 0.85346,0.19638 1.27734,0.29883 0.42388,0.10244 0.84577,0.20815 1.26563,0.3164 0.41986,0.10826 0.83818,0.21996 1.2539,0.33399 0.41573,0.11403 0.82877,0.22984 1.24024,0.34961 0.32234,0.0938 0.64127,0.19172 0.96094,0.28906 h 0.004 v -10.08594 c -8.86861,-3.11747 -17.73686,-4.38287 -26.60547,-4.3457 z"
       transform="matrix(0.26458333,0,0,0.26458333,45.168901,104.31703)" />
    <path
       id="path4302"
       style="display:inline;fill:#4a4a4a;stroke:#848484;stroke-width:2.47937;stroke-linecap:butt;stroke-linejoin:miter;stroke-miterlimit:4;stroke-dasharray:none;stroke-opacity:1"
       d="m 446.2207,140.06836 c -8.86861,-0.0372 -17.73685,1.22823 -26.60547,4.3457 V 154.5 h 0.004 c 0.31967,-0.0973 0.63859,-0.19523 0.96094,-0.28906 0.41146,-0.11977 0.82451,-0.23558 1.24023,-0.34961 0.41572,-0.11403 0.83405,-0.22573 1.25391,-0.33399 0.41986,-0.10825 0.84174,-0.21396 1.26562,-0.3164 0.42389,-0.10245 0.84956,-0.20222 1.27735,-0.29883 0.42778,-0.0966 0.85749,-0.18856 1.28906,-0.2793 0.43157,-0.0907 0.86555,-0.17883 1.30078,-0.26367 0.43523,-0.0848 0.87177,-0.16718 1.31055,-0.24609 0.43878,-0.0789 0.88005,-0.15557 1.32226,-0.22852 0.44221,-0.0729 0.88651,-0.14203 1.33204,-0.20898 0.44552,-0.067 0.89112,-0.13048 1.33984,-0.19141 0.44871,-0.0609 0.89977,-0.11895 1.35156,-0.17383 0.45179,-0.0549 0.90463,-0.10746 1.35938,-0.15625 0.45474,-0.0488 0.91155,-0.0941 1.36914,-0.13672 0.45758,-0.0427 0.91664,-0.0826 1.37695,-0.11914 0.46031,-0.0365 0.92186,-0.0693 1.38477,-0.0996 0.4629,-0.0303 0.92718,-0.0579 1.39257,-0.082 0.4654,-0.0241 0.93264,-0.0446 1.40039,-0.0625 0.46776,-0.0179 0.93625,-0.0333 1.40625,-0.0449 0.47001,-0.0116 0.93998,-0.0201 1.41211,-0.0254 0.47214,-0.005 0.94578,-0.007 1.41993,-0.006 0.47414,0.001 0.94974,0.004 1.42578,0.0117 0.47604,0.007 0.95382,0.0175 1.43164,0.0312 0.47781,0.0138 0.95607,0.0306 1.43554,0.0508 0.47948,0.0202 0.95845,0.0436 1.43946,0.0703 0.48101,0.0267 0.96288,0.0567 1.44531,0.0899 0.48243,0.0332 0.96548,0.0697 1.44922,0.10937 0.48373,0.0397 0.9682,0.0827 1.45312,0.12891 0.48492,0.0462 0.97105,0.0956 1.45704,0.14844 0.48598,0.0528 0.97205,0.11047 1.45898,0.16992 0.48693,0.0594 0.97513,0.12141 1.46289,0.1875 0.48776,0.0661 0.97637,0.13621 1.46484,0.20898 0.48848,0.0728 0.97578,0.14904 1.46485,0.22852 0.48906,0.0795 0.9792,0.16183 1.46875,0.24804 0.48954,0.0862 0.97885,0.17459 1.46875,0.26758 0.4899,0.093 0.98056,0.19123 1.4707,0.29102 0.49014,0.0998 0.98044,0.20197 1.4707,0.30859 0.49026,0.10663 0.98045,0.21659 1.47071,0.33008 0.49026,0.11349 0.98055,0.23118 1.4707,0.35156 0.49015,0.12039 0.98079,0.24379 1.4707,0.3711 0.38503,0.10005 0.76948,0.20424 1.1543,0.30859 h 0.004 l 0.15234,-10.08594 c -10.05108,-2.58837 -20.10321,-4.30357 -30.1543,-4.3457 z"
       transform="matrix(0.26458333,0,0,0.26458333,45.168901,104.31703)" />
  </g>
  <g
     inkscape:groupmode="layer"
     id="layer10"
     inkscape:label="l1"
     data-state="l1"
     transform="translate(-45.168901,-104.31703)"
     style="display:none"
     data-type="button">
    <rect
       style="display:inline;fill:#ff0000;fill-opacity:0.998382;stroke:#8a8a8a;stroke-width:0.656;stroke-linecap:round;stroke-linejoin:round;stop-color:#000000"
       id="rect2133-35"
       width="17.787439"
       height="7.9752884"
       x="68.279648"
       y="108.80158"
       ry="1.6614898"
       transform="translate(-1.0208333e-6)" />
    <path
       id="path4090-3"
       style="display:inline;fill:#ff0000;stroke:#848484;stroke-width:0.656;stroke-linecap:butt;stroke-linejoin:miter;stroke-miterlimit:4;stroke-dasharray:none;stroke-opacity:1"
       d="m 78.002555,141.37678 c -2.659351,0.0111 -5.318972,0.46496 -7.978324,1.1498 l 0.04031,2.66857 h 10e-4 c 0.101817,-0.0276 0.203535,-0.0552 0.305407,-0.0816 0.129623,-0.0337 0.259439,-0.0663 0.389124,-0.0982 0.129684,-0.0318 0.259408,-0.063 0.389123,-0.093 0.129715,-0.03 0.259409,-0.0591 0.389124,-0.0873 0.129713,-0.0282 0.259441,-0.0553 0.389124,-0.0816 0.12968,-0.0264 0.259503,-0.0524 0.389122,-0.077 0.12962,-0.0246 0.259083,-0.048 0.388607,-0.0708 0.129524,-0.0228 0.259207,-0.0446 0.388607,-0.0656 0.1294,-0.021 0.258331,-0.0412 0.387572,-0.0605 0.129244,-0.0193 0.258519,-0.0378 0.387575,-0.0553 0.129053,-0.0175 0.25822,-0.0339 0.387056,-0.0496 0.128834,-0.0157 0.25744,-0.031 0.386022,-0.045 0.128585,-0.014 0.257204,-0.0271 0.385506,-0.0393 0.128302,-0.0122 0.256484,-0.0236 0.384474,-0.0341 0.127987,-0.0105 0.255794,-0.0202 0.383439,-0.0289 0.127643,-0.009 0.255138,-0.0167 0.382405,-0.0238 0.127267,-0.007 0.253995,-0.0133 0.380855,-0.0186 0.126862,-0.005 0.253399,-0.01 0.379822,-0.0134 0.126424,-0.004 0.252836,-0.006 0.378788,-0.008 0.125953,-0.002 0.251786,-0.003 0.377238,-0.003 0.125452,-2.7e-4 0.250769,1.4e-4 0.375687,0.002 0.124921,10e-4 0.249264,0.004 0.373621,0.007 0.124357,0.003 0.248309,0.007 0.37207,0.0119 0.123762,0.005 0.247386,0.0102 0.37052,0.0165 0.123137,0.006 0.245975,0.0137 0.368454,0.0217 0.122478,0.008 0.244596,0.0167 0.366387,0.0264 0.121787,0.01 0.243247,0.0202 0.364318,0.0315 0.12107,0.0113 0.241932,0.0233 0.362251,0.0362 0.12032,0.0129 0.240131,0.0268 0.359667,0.0413 0.119539,0.0145 0.238363,0.0299 0.357084,0.046 0.118724,0.0161 0.237141,0.0329 0.355018,0.0506 0.117877,0.0177 0.235432,0.036 0.352433,0.0553 0.117001,0.0193 0.233757,0.0396 0.349851,0.0605 0.116094,0.0209 0.231592,0.0427 0.346749,0.0651 0.115155,0.0224 0.229979,0.0458 0.344165,0.0698 0.114184,0.024 0.22788,0.0483 0.341064,0.0739 0.113183,0.0256 0.225811,0.052 0.337963,0.0791 0.112151,0.0271 0.223776,0.0551 0.334864,0.0837 0.111088,0.0286 0.221769,0.0582 0.331761,0.0884 0.109996,0.0302 0.219279,0.0608 0.328147,0.0925 0.08529,0.0248 0.16967,0.0507 0.254249,0.0765 h 0.0011 v -2.66857 c -2.346486,-0.82483 -4.692877,-1.15963 -7.039364,-1.1498 z"
       transform="translate(-1.0208333e-6)" />
  </g>
  <g
     inkscape:groupmode="layer"
     id="layer11"
     inkscape:label="r1"
     data-state="r1"
     transform="translate(-45.168901,-104.31703)"
     style="display:none"
     data-type="button">
    <rect
       style="fill:#ff0000;fill-opacity:0.998382;stroke:#8a8a8a;stroke-width:0.656;stroke-linecap:round;stroke-linejoin:round;stop-color:#000000"
       id="rect2133-7-9"
       width="17.787439"
       height="7.9752884"
       x="-127.70891"
       y="-32.247387"
       ry="1.6614898"
       transform="matrix(-1,0,0,1,45.168901,141.04897)" />
    <path
       id="path4302-9"
       style="display:inline;fill:#ff0000;stroke:#848484;stroke-width:0.656;stroke-linecap:butt;stroke-linejoin:miter;stroke-miterlimit:4;stroke-dasharray:none;stroke-opacity:1"
       d="m 163.23146,141.37678 c -2.34649,-0.01 -4.69288,0.32497 -7.03936,1.1498 v 2.66857 h 10e-4 c 0.0846,-0.0257 0.16896,-0.0517 0.25425,-0.0765 0.10887,-0.0317 0.21815,-0.0623 0.32815,-0.0925 0.10999,-0.0302 0.22067,-0.0597 0.33176,-0.0884 0.11109,-0.0286 0.22271,-0.0566 0.33486,-0.0837 0.11216,-0.0271 0.22478,-0.0535 0.33797,-0.0791 0.11318,-0.0256 0.22688,-0.0499 0.34106,-0.0739 0.11419,-0.024 0.22901,-0.0473 0.34417,-0.0698 0.11515,-0.0224 0.23065,-0.0442 0.34675,-0.0651 0.11609,-0.0209 0.23284,-0.0412 0.34984,-0.0605 0.11701,-0.0193 0.23456,-0.0376 0.35244,-0.0553 0.11788,-0.0177 0.23578,-0.0345 0.3545,-0.0507 0.11872,-0.0161 0.23806,-0.0315 0.3576,-0.046 0.11954,-0.0145 0.23935,-0.0284 0.35967,-0.0413 0.12032,-0.0129 0.24118,-0.0249 0.36225,-0.0362 0.12107,-0.0113 0.24253,-0.0219 0.36432,-0.0315 0.12179,-0.01 0.24391,-0.0183 0.36639,-0.0264 0.12247,-0.008 0.24531,-0.0153 0.36845,-0.0217 0.12313,-0.006 0.24676,-0.0118 0.37052,-0.0165 0.12376,-0.005 0.24771,-0.009 0.37207,-0.0119 0.12435,-0.003 0.2487,-0.005 0.37362,-0.007 0.12492,-0.001 0.25023,-0.002 0.37569,-0.002 0.12545,2.7e-4 0.25128,10e-4 0.37723,0.003 0.12596,0.002 0.25237,0.005 0.37879,0.008 0.12642,0.004 0.25296,0.008 0.37982,0.0134 0.12687,0.005 0.25359,0.0115 0.38086,0.0186 0.12727,0.007 0.25476,0.015 0.3824,0.0238 0.12765,0.009 0.25545,0.0184 0.38344,0.0289 0.12799,0.0105 0.25617,0.0219 0.38448,0.0341 0.1283,0.0122 0.25692,0.0253 0.3855,0.0393 0.12859,0.014 0.25719,0.0292 0.38603,0.045 0.12883,0.0157 0.258,0.0321 0.38705,0.0496 0.12906,0.0175 0.25833,0.036 0.38757,0.0553 0.12925,0.0193 0.25818,0.0394 0.38758,0.0605 0.1294,0.021 0.25908,0.0428 0.38861,0.0656 0.12952,0.0228 0.25898,0.0462 0.3886,0.0708 0.12962,0.0246 0.25944,0.0506 0.38913,0.077 0.12968,0.0264 0.2594,0.0534 0.38912,0.0816 0.12971,0.0282 0.25941,0.0573 0.38912,0.0873 0.12972,0.03 0.25944,0.0612 0.38913,0.093 0.12968,0.0319 0.2595,0.0645 0.38912,0.0982 0.10187,0.0265 0.20359,0.054 0.30541,0.0816 h 0.001 l 0.0403,-2.66857 c -2.65935,-0.68484 -5.31897,-1.13866 -7.97832,-1.1498 z"
       transform="translate(-1.0208333e-6)" />
  </g>
  <g
     inkscape:groupmode="layer"
     id="layer14"
     inkscape:label="above lr buttons"
     style="display:inline"
     transform="translate(-45.168901,-104.31703)">
    <path
       style="fill:#e1e1e1;fill-opacity:0.998382;stroke:#848484;stroke-width:0.656;stroke-linecap:butt;stroke-linejoin:miter;stroke-miterlimit:4;stroke-dasharray:none;stroke-opacity:1"
       d="m 51.858036,178.03738 c -4.941125,21.50945 -7.927543,39.98145 -5.495941,52.70002 2.830666,8.66865 18.68268,9.13364 23.769366,2.48271 L 94.546009,195.71932 51.858036,178.03738"
       id="path8926"
       sodipodi:nodetypes="ccccc" />
    <path
       style="fill:#e1e1e1;stroke:#848484;stroke-width:0.656;stroke-linecap:butt;stroke-linejoin:miter;stroke-miterlimit:4;stroke-dasharray:none;stroke-opacity:1"
       d="m 189.37597,178.03738 c 4.94112,21.50945 7.92754,39.98145 5.49594,52.70002 -2.83067,8.66865 -18.68268,9.13364 -23.76937,2.48271 l -24.41455,-37.50079 42.68798,-17.68194"
       id="path8926-6"
       sodipodi:nodetypes="ccccc" />
    <path
       id="path6999"
       style="fill:#e1e1e1;stroke:#848484;stroke-width:2.47937;stroke-linecap:butt;stroke-linejoin:miter;stroke-miterlimit:4;stroke-dasharray:none;stroke-opacity:1"
       d="m 357.33984,606.06836 v 133.6582 h 37.71485 121.64062 37.7168 v -133.6582 h -37.7168 -121.64062 z"
       transform="scale(0.26458333)" />
    <path
       style="fill:#e1e1e1;stroke:#848484;stroke-width:0.656;stroke-linecap:butt;stroke-linejoin:miter;stroke-miterlimit:4;stroke-dasharray:none;stroke-opacity:1"
       d="m 62.78588,157.37085 c 0.607497,-2.9476 1.255955,-9.54457 2.962679,-10.64087 8.092224,-3.60443 17.111645,-3.24467 22.959962,0 1.682919,1.69105 2.636424,6.16232 2.778186,11.02243 z"
       id="path1427"
       sodipodi:nodetypes="ccccc" />
    <path
       style="fill:#e1e1e1;stroke:#848484;stroke-width:0.656;stroke-linecap:butt;stroke-linejoin:miter;stroke-miterlimit:4;stroke-dasharray:none;stroke-opacity:1"
       d="m 178.44812,157.37085 c -0.6075,-2.9476 -1.25595,-9.54457 -2.96268,-10.64087 -8.09222,-3.60443 -17.11164,-3.24467 -22.95996,0 -1.68292,1.69105 -2.63642,6.16232 -2.77819,11.02243 z"
       id="path1427-3"
       sodipodi:nodetypes="ccccc" />
    <circle
       style="fill:#e1e1e1;fill-opacity:0.998382;stroke:#848484;stroke-width:0.656;stroke-linecap:round;stroke-linejoin:round;stroke-miterlimit:4;stroke-dasharray:none;stroke-opacity:1;stop-color:#000000"
       id="path904-4"
       cx="76.864075"
       cy="178.03738"
       r="25.006037" />
    <circle
       style="fill:#e1e1e1;fill-opacity:0.998382;stroke:#848484;stroke-width:0.656;stroke-linecap:round;stroke-linejoin:round;stroke-miterlimit:4;stroke-dasharray:none;stroke-opacity:1;stop-color:#000000"
       id="path904-6"
       cx="-164.36993"
       cy="178.03738"
       r="25.006037"
       transform="scale(-1,1)" />
    <path
       style="fill:none;stroke:#848484;stroke-width:0.656;stroke-linecap:butt;stroke-linejoin:miter;stroke-miterlimit:4;stroke-dasharray:none;stroke-opacity:1"
       d="M 83.660425,157.64836 H 70.067737 v 13.5927 H 56.475051 v 13.59269 h 13.592674 v 13.59267 H 83.660437 V 184.83375 H 97.253105 V 171.24104 H 83.660428 Z"
       id="path4262" />
    <path
       id="path5235-8"
       style="fill:none;stroke:#848484;stroke-width:0.656;stroke-linecap:butt;stroke-linejoin:miter;stroke-miterlimit:4;stroke-dasharray:none;stroke-opacity:1"
       d="m 92.276537,175.20739 v 2.8298 2.83032 l 2.830317,-2.83032 z"
       inkscape:transform-center-x="-16.830526" />
    <path
       id="path5235-8-6"
       style="fill:none;stroke:#848484;stroke-width:0.656;stroke-linecap:butt;stroke-linejoin:miter;stroke-miterlimit:4;stroke-dasharray:none;stroke-opacity:1"
       d="m 74.035176,162.63193 2.8298,-8.9e-4 2.83032,-9e-4 -2.831218,-2.82942 z"
       inkscape:transform-center-x="-16.830526" />
    <path
       id="path5235-8-6-0"
       style="fill:none;stroke:#848484;stroke-width:0.656;stroke-linecap:butt;stroke-linejoin:miter;stroke-miterlimit:4;stroke-dasharray:none;stroke-opacity:1"
       d="m 61.463661,180.86725 4.8e-5,-2.8298 4.8e-5,-2.83032 -2.830365,2.83027 z"
       inkscape:transform-center-x="-16.830526" />
    <path
       id="path5235-8-6-0-9"
       style="fill:none;stroke:#848484;stroke-width:0.656;stroke-linecap:butt;stroke-linejoin:miter;stroke-miterlimit:4;stroke-dasharray:none;stroke-opacity:1"
       d="m 79.694857,193.44484 -2.8298,-9.8e-4 -2.83032,-9.8e-4 2.829342,2.8313 z"
       inkscape:transform-center-x="-16.830526" />
    <path
       style="fill:none;stroke:#848484;stroke-width:0.656;stroke-linecap:butt;stroke-linejoin:miter;stroke-miterlimit:4;stroke-dasharray:none;stroke-opacity:1"
       d="m 157.57358,157.64836 h 13.59268 v 13.5927 h 13.59269 v 13.59269 h -13.59267 v 13.59267 H 157.57356 V 184.83375 H 143.9809 v -13.59271 h 13.59267 z"
       id="path4262-8" />
  </g>
  <g
     inkscape:label="Layer 1"
     inkscape:groupmode="layer"
     id="layer1"
     transform="translate(-45.168901,-104.31703)"
     style="display:none">
    <circle
       style="display:none;fill:none;fill-opacity:0.998382;stroke:#8f8f8e;stroke-width:0.656;stroke-linecap:round;stroke-linejoin:round;stroke-miterlimit:4;stroke-dasharray:none;stroke-opacity:1;stop-color:#000000"
       id="path904-6-2"
       cx="-164.36993"
       cy="178.03738"
       r="25.006037"
       transform="scale(-1,1)" />
  </g>
  <g
     inkscape:groupmode="layer"
     id="layer16"
     inkscape:label="regular buttons"
     transform="translate(-45.168901,-104.31703)"
     style="display:inline">
    <path
       id="path5101-8"
       style="font-variation-settings:normal;fill:#4a4a4a;fill-opacity:1;stroke:#848484;stroke-width:0.656;stroke-linecap:butt;stroke-linejoin:miter;stroke-miterlimit:4;stroke-dasharray:none;stroke-dashoffset:0;stroke-opacity:1;stop-color:#000000"
       d="m 83.332896,173.52429 c -1.135227,0.19 -3.534667,2.83616 -3.534667,4.5129 0,1.67674 2.39944,4.32342 3.534667,4.51342 h 6.512782 v -4.51342 -4.5129 z"
       inkscape:transform-center-x="-7.9607835" />
    <path
       id="path5101-8-7"
       style="font-variation-settings:normal;fill:#4a4a4a;fill-opacity:0.998382;stroke:#848484;stroke-width:0.656;stroke-linecap:butt;stroke-linejoin:miter;stroke-miterlimit:4;stroke-dasharray:none;stroke-dashoffset:0;stroke-opacity:1;stop-color:#000000"
       d="m 72.354913,171.57611 c 0.19036,1.13517 2.837281,3.53377 4.514021,3.53323 1.67674,-5.3e-4 4.322659,-2.40081 4.512299,-3.53609 l -0.0021,-6.51279 -4.51342,0.001 -4.5129,10e-4 z"
       inkscape:transform-center-x="-7.9607835" />
    <path
       id="path5101-8-7-3"
       style="font-variation-settings:normal;fill:#4a4a4a;fill-opacity:1;stroke:#848484;stroke-width:0.656;stroke-linecap:butt;stroke-linejoin:miter;stroke-miterlimit:4;stroke-dasharray:none;stroke-dashoffset:0;stroke-opacity:1;stop-color:#000000"
       d="m 70.407273,182.5505 c 1.13523,-0.18998 3.534715,-2.8361 3.534744,-4.51284 2.9e-5,-1.67674 -2.399366,-4.32346 -3.53459,-4.51348 l -6.512782,-1.1e-4 -7.7e-5,4.51342 -7.7e-5,4.5129 z"
       inkscape:transform-center-x="-7.9607835" />
    <path
       id="path5101-8-7-3-0"
       style="font-variation-settings:normal;fill:#4a4a4a;fill-opacity:1;stroke:#848484;stroke-width:0.656;stroke-linecap:butt;stroke-linejoin:miter;stroke-miterlimit:4;stroke-dasharray:none;stroke-dashoffset:0;stroke-opacity:1;stop-color:#000000"
       d="m 81.381049,184.50178 c -0.189608,-1.13529 -2.834938,-3.53564 -4.511678,-3.53622 -1.67674,-5.8e-4 -4.324249,2.39794 -4.514642,3.5331 l -0.0023,6.51278 4.513419,0.002 4.5129,0.002 z"
       inkscape:transform-center-x="-7.9607835" />
    <circle
       style="font-variation-settings:normal;opacity:1;fill:#4a4a4a;fill-opacity:1;stroke:#848484;stroke-width:0.552744;stroke-linecap:butt;stroke-linejoin:miter;stroke-miterlimit:4;stroke-dasharray:none;stroke-dashoffset:0;stroke-opacity:1;stop-color:#000000;stop-opacity:1"
       id="path13160"
       cx="164.36992"
       cy="164.44469"
       r="5.7265773" />
    <circle
       style="font-variation-settings:normal;fill:#4a4a4a;fill-opacity:1;stroke:#848484;stroke-width:0.552744;stroke-linecap:butt;stroke-linejoin:miter;stroke-miterlimit:4;stroke-dasharray:none;stroke-dashoffset:0;stroke-opacity:1;stop-color:#000000"
       id="path13160-8"
       cx="150.77724"
       cy="178.0374"
       r="5.7265773" />
    <circle
       style="font-variation-settings:normal;fill:#4a4a4a;fill-opacity:1;stroke:#848484;stroke-width:0.552744;stroke-linecap:butt;stroke-linejoin:miter;stroke-miterlimit:4;stroke-dasharray:none;stroke-dashoffset:0;stroke-opacity:1;stop-color:#000000"
       id="path13160-8-4"
       cx="164.36992"
       cy="191.63008"
       r="5.7265773" />
    <circle
       style="font-variation-settings:normal;fill:#4a4a4a;fill-opacity:1;stroke:#848484;stroke-width:0.552744;stroke-linecap:butt;stroke-linejoin:miter;stroke-miterlimit:4;stroke-dasharray:none;stroke-dashoffset:0;stroke-opacity:1;stop-color:#000000"
       id="path13160-8-4-7"
       cx="177.9626"
       cy="178.0374"
       r="5.7265773" />
    <path
       id="path16176"
       style="fill:#4a4a4a;stroke:#8a8a8a;stroke-width:0.656;stroke-linecap:round;stroke-linejoin:round;stroke-miterlimit:4;stroke-dasharray:none;stroke-opacity:1"
       d="m 124.18588,185.28688 v 2.45618 2.4567 l 8.63771,-2.4567 z" />
    <rect
       style="font-variation-settings:normal;opacity:1;fill:#4a4a4a;fill-opacity:0.998382;stroke:#8a8a8a;stroke-width:0.656;stroke-linecap:butt;stroke-linejoin:miter;stroke-miterlimit:4;stroke-dasharray:none;stroke-dashoffset:0;stroke-opacity:1;stop-color:#000000;stop-opacity:1"
       id="rect16108"
       width="8.6379242"
       height="4.913228"
       x="106.70915"
       y="185.28667" />
  </g>
  <g
     inkscape:groupmode="layer"
     id="layer2"
     inkscape:label="up"
     data-state="up"
     style="display:none"
     transform="translate(-45.168901,-104.31703)"
     data-type="button">
    <path
       id="path5101-8-7-9"
       style="font-variation-settings:normal;fill:#ff0000;fill-opacity:0.998382;stroke:#848484;stroke-width:0.656;stroke-linecap:butt;stroke-linejoin:miter;stroke-miterlimit:4;stroke-dasharray:none;stroke-dashoffset:0;stroke-opacity:1;stop-color:#000000"
       d="m 72.354913,171.57611 c 0.19036,1.13517 2.837281,3.53377 4.514021,3.53323 1.67674,-5.3e-4 4.322659,-2.40081 4.512299,-3.53609 l -0.0021,-6.51279 -4.51342,0.001 -4.5129,10e-4 z"
       inkscape:transform-center-x="-7.9607835" />
  </g>
  <g
     inkscape:groupmode="layer"
     id="layer3"
     inkscape:label="down"
     data-state="down"
     style="display:none"
     transform="translate(-45.168901,-104.31703)"
     data-type="button">
    <path
       id="path5101-8-7-3-0-1"
       style="font-variation-settings:normal;fill:#ff0000;fill-opacity:1;stroke:#848484;stroke-width:0.656;stroke-linecap:butt;stroke-linejoin:miter;stroke-miterlimit:4;stroke-dasharray:none;stroke-dashoffset:0;stroke-opacity:1;stop-color:#000000"
       d="m 81.381049,184.50178 c -0.189608,-1.13529 -2.834938,-3.53564 -4.511678,-3.53622 -1.67674,-5.8e-4 -4.324249,2.39794 -4.514642,3.5331 l -0.0023,6.51278 4.513419,0.002 4.5129,0.002 z"
       inkscape:transform-center-x="-7.9607835" />
  </g>
  <g
     inkscape:groupmode="layer"
     id="layer4"
     inkscape:label="left"
     data-state="left"
     style="display:none"
     transform="translate(-45.168901,-104.31703)"
     data-type="button">
    <path
       id="path5101-8-7-3-3"
       style="font-variation-settings:normal;fill:#ff0000;fill-opacity:1;stroke:#848484;stroke-width:0.656;stroke-linecap:butt;stroke-linejoin:miter;stroke-miterlimit:4;stroke-dasharray:none;stroke-dashoffset:0;stroke-opacity:1;stop-color:#000000"
       d="m 70.407273,182.5505 c 1.13523,-0.18998 3.534715,-2.8361 3.534744,-4.51284 2.9e-5,-1.67674 -2.399366,-4.32346 -3.53459,-4.51348 l -6.512782,-1.1e-4 -7.7e-5,4.51342 -7.7e-5,4.5129 z"
       inkscape:transform-center-x="-7.9607835" />
  </g>
  <g
     inkscape:groupmode="layer"
     id="layer5"
     inkscape:label="right"
     data-state="right"
     style="display:none"
     transform="translate(-45.168901,-104.31703)"
     data-type="button">
    <path
       id="path5101-8-1"
       style="font-variation-settings:normal;fill:#ff0000;fill-opacity:1;stroke:#848484;stroke-width:0.656;stroke-linecap:butt;stroke-linejoin:miter;stroke-miterlimit:4;stroke-dasharray:none;stroke-dashoffset:0;stroke-opacity:1;stop-color:#000000"
       d="m 83.332896,173.52429 c -1.135227,0.19 -3.534667,2.83616 -3.534667,4.5129 0,1.67674 2.39944,4.32342 3.534667,4.51342 h 6.512782 v -4.51342 -4.5129 z"
       inkscape:transform-center-x="-7.9607835" />
  </g>
  <g
     inkscape:groupmode="layer"
     id="layer6"
     inkscape:label="triangle"
     data-state="triangle"
     style="display:none"
     transform="translate(-45.168901,-104.31703)"
     data-type="button">
    <circle
       style="font-variation-settings:normal;fill:#ff0000;fill-opacity:1;stroke:#848484;stroke-width:0.552744;stroke-linecap:butt;stroke-linejoin:miter;stroke-miterlimit:4;stroke-dasharray:none;stroke-dashoffset:0;stroke-opacity:1;stop-color:#000000"
       id="path13160-1"
       cx="164.36992"
       cy="164.44469"
       r="5.7265773" />
  </g>
  <g
     inkscape:groupmode="layer"
     id="layer7"
     inkscape:label="cross"
     data-state="cross"
     style="display:none"
     transform="translate(-45.168901,-104.31703)"
     data-type="button">
    <circle
       style="font-variation-settings:normal;fill:#ff0000;fill-opacity:1;stroke:#848484;stroke-width:0.552744;stroke-linecap:butt;stroke-linejoin:miter;stroke-miterlimit:4;stroke-dasharray:none;stroke-dashoffset:0;stroke-opacity:1;stop-color:#000000"
       id="path13160-8-4-3"
       cx="164.36992"
       cy="191.63008"
       r="5.7265773" />
  </g>
  <g
     inkscape:groupmode="layer"
     id="layer8"
     inkscape:label="square"
     data-state="square"
     style="display:none"
     transform="translate(-45.168901,-104.31703)"
     data-type="button">
    <circle
       style="font-variation-settings:normal;fill:#ff0000;fill-opacity:1;stroke:#848484;stroke-width:0.552744;stroke-linecap:butt;stroke-linejoin:miter;stroke-miterlimit:4;stroke-dasharray:none;stroke-dashoffset:0;stroke-opacity:1;stop-color:#000000"
       id="path13160-8-0"
       cx="150.77724"
       cy="178.0374"
       r="5.7265773" />
  </g>
  <g
     inkscape:groupmode="layer"
     id="layer9"
     inkscape:label="circle"
     data-state="circle"
     style="display:none"
     transform="translate(-45.168901,-104.31703)"
     data-type="button">
    <circle
       style="font-variation-settings:normal;fill:#ff0000;fill-opacity:1;stroke:#848484;stroke-width:0.552744;stroke-linecap:butt;stroke-linejoin:miter;stroke-miterlimit:4;stroke-dasharray:none;stroke-dashoffset:0;stroke-opacity:1;stop-color:#000000"
       id="path13160-8-4-7-4"
       cx="177.9626"
       cy="178.0374"
       r="5.7265773" />
  </g>
  <g
     inkscape:groupmode="layer"
     id="layer12"
     inkscape:label="select"
     data-state="select"
     style="display:none"
     transform="translate(-45.168901,-104.31703)"
     data-type="button">
    <rect
       style="font-variation-settings:normal;fill:#ff0000;fill-opacity:0.998382;stroke:#8a8a8a;stroke-width:0.656;stroke-linecap:butt;stroke-linejoin:miter;stroke-miterlimit:4;stroke-dasharray:none;stroke-dashoffset:0;stroke-opacity:1;stop-color:#000000"
       id="rect16108-0"
       width="8.6379242"
       height="4.913228"
       x="106.70915"
       y="185.28667" />
  </g>
  <g
     inkscape:groupmode="layer"
     id="layer13"
     inkscape:label="start"
     data-state="start"
     style="display:none"
     transform="translate(-45.168901,-104.31703)"
     data-type="button">
    <path
       id="path16176-3"
       style="fill:#ff0000;stroke:#8a8a8a;stroke-width:0.656;stroke-linecap:round;stroke-linejoin:round;stroke-miterlimit:4;stroke-dasharray:none;stroke-opacity:1"
       d="m 124.18588,185.28688 v 2.45618 2.4567 l 8.63771,-2.4567 z" />
  </g>
</svg>
