<?xml version="1.0" encoding="UTF-8" standalone="no"?>
<!-- Created with Inkscape (http://www.inkscape.org/) -->

<svg
   width="480"
   height="512"
   viewBox="0 0 127 135.46666"
   version="1.1"
   id="svg5"
   inkscape:version="1.1.2 (0a00cf5339, 2022-02-04)"
   sodipodi:docname="slimblade.svg"
   data-name="Kensington Slimblade Trackball"
   xmlns:inkscape="http://www.inkscape.org/namespaces/inkscape"
   xmlns:sodipodi="http://sodipodi.sourceforge.net/DTD/sodipodi-0.dtd"
   xmlns="http://www.w3.org/2000/svg"
   xmlns:svg="http://www.w3.org/2000/svg">
  <sodipodi:namedview
     id="namedview7"
     pagecolor="#ffffff"
     bordercolor="#cccccc"
     borderopacity="1"
     inkscape:pageshadow="0"
     inkscape:pageopacity="0"
     inkscape:pagecheckerboard="0"
     inkscape:document-units="mm"
     showgrid="false"
     units="px"
     inkscape:snap-bbox="true"
     inkscape:snap-page="true"
     inkscape:snap-object-midpoints="true"
     inkscape:zoom="4.3994184"
     inkscape:cx="100.58148"
     inkscape:cy="129.44893"
     inkscape:window-width="3840"
     inkscape:window-height="2089"
     inkscape:window-x="0"
     inkscape:window-y="34"
     inkscape:window-maximized="1"
     inkscape:current-layer="layer1"
     inkscape:object-paths="true"
     inkscape:snap-midpoints="true"
     inkscape:snap-smooth-nodes="true" />
  <defs
     id="defs2">
    <marker
       style="overflow:visible"
       id="Tail"
       refX="0.0"
       refY="0.0"
       orient="auto"
       inkscape:stockid="Tail"
       inkscape:isstock="true">
      <g
         transform="scale(-1.2)"
         id="g8477">
        <path
           style="fill:none;fill-rule:evenodd;stroke:context-stroke;stroke-width:0.8;stroke-linecap:round"
           d="M -3.8048674,-3.9585227 L 0.54352094,0"
           id="path8465" />
        <path
           style="fill:none;fill-rule:evenodd;stroke:context-stroke;stroke-width:0.8;stroke-linecap:round"
           d="M -1.2866832,-3.9585227 L 3.0617053,0"
           id="path8467" />
        <path
           style="fill:none;fill-rule:evenodd;stroke:context-stroke;stroke-width:0.8;stroke-linecap:round"
           d="M 1.3053582,-3.9585227 L 5.6537466,0"
           id="path8469" />
        <path
           style="fill:none;fill-rule:evenodd;stroke:context-stroke;stroke-width:0.8;stroke-linecap:round"
           d="M -3.8048674,4.1775838 L 0.54352094,0.21974226"
           id="path8471" />
        <path
           style="fill:none;fill-rule:evenodd;stroke:context-stroke;stroke-width:0.8;stroke-linecap:round"
           d="M -1.2866832,4.1775838 L 3.0617053,0.21974226"
           id="path8473" />
        <path
           style="fill:none;fill-rule:evenodd;stroke:context-stroke;stroke-width:0.8;stroke-linecap:round"
           d="M 1.3053582,4.1775838 L 5.6537466,0.21974226"
           id="path8475" />
      </g>
    </marker>
    <marker
       style="overflow:visible"
       id="Scissors"
       refX="0.0"
       refY="0.0"
       orient="auto"
       inkscape:stockid="Scissors"
       inkscape:isstock="true">
      <path
         style="fill:context-stroke;"
         d="M 9.0898857,-3.6061018 C 8.1198849,-4.7769976 6.3697607,-4.7358294 5.0623558,-4.2327734 L -3.1500488,-1.1548705 C -5.5383421,-2.4615840 -7.8983361,-2.0874077 -7.8983361,-2.7236578 C -7.8983361,-3.2209742 -7.4416699,-3.1119800 -7.5100293,-4.4068519 C -7.5756648,-5.6501286 -8.8736064,-6.5699315 -10.100428,-6.4884954 C -11.327699,-6.4958500 -12.599867,-5.5553341 -12.610769,-4.2584343 C -12.702194,-2.9520479 -11.603560,-1.7387447 -10.304005,-1.6532027 C -8.7816644,-1.4265411 -6.0857470,-2.3487593 -4.8210600,-0.082342643 C -5.7633447,1.6559151 -7.4350844,1.6607341 -8.9465707,1.5737277 C -10.201445,1.5014928 -11.708664,1.8611256 -12.307219,3.0945882 C -12.885586,4.2766744 -12.318421,5.9591904 -10.990470,6.3210002 C -9.6502788,6.8128279 -7.8098011,6.1912892 -7.4910978,4.6502760 C -7.2454393,3.4624530 -8.0864637,2.9043186 -7.7636052,2.4731223 C -7.5199917,2.1477623 -5.9728246,2.3362771 -3.2164999,1.0982979 L 5.6763468,4.2330688 C 6.8000164,4.5467672 8.1730685,4.5362646 9.1684433,3.4313614 L -0.051640930,-0.053722219 L 9.0898857,-3.6061018 z M -9.2179159,-5.5066058 C -7.9233569,-4.7838060 -8.0290767,-2.8230356 -9.3743431,-2.4433169 C -10.590861,-2.0196559 -12.145370,-3.2022863 -11.757521,-4.5207817 C -11.530373,-5.6026336 -10.104134,-6.0014137 -9.2179159,-5.5066058 z M -9.1616516,2.5107591 C -7.8108215,3.0096239 -8.0402087,5.2951947 -9.4138723,5.6023681 C -10.324932,5.9187072 -11.627422,5.4635705 -11.719569,4.3902287 C -11.897178,3.0851737 -10.363484,1.9060805 -9.1616516,2.5107591 z "
         id="schere" />
    </marker>
    <marker
       style="overflow:visible;"
       id="Arrow1Mend"
       refX="0.0"
       refY="0.0"
       orient="auto"
       inkscape:stockid="Arrow1Mend"
       inkscape:isstock="true">
      <path
         transform="scale(0.4) rotate(180) translate(10,0)"
         style="fill-rule:evenodd;fill:context-stroke;stroke:context-stroke;stroke-width:1.0pt;"
         d="M 0.0,0.0 L 5.0,-5.0 L -12.5,0.0 L 5.0,5.0 L 0.0,0.0 z "
         id="path8438" />
    </marker>
    <marker
       style="overflow:visible;"
       id="Arrow1Lend"
       refX="0.0"
       refY="0.0"
       orient="auto"
       inkscape:stockid="Arrow1Lend"
       inkscape:isstock="true">
      <path
         transform="scale(0.8) rotate(180) translate(12.5,0)"
         style="fill-rule:evenodd;fill:context-stroke;stroke:context-stroke;stroke-width:1.0pt;"
         d="M 0.0,0.0 L 5.0,-5.0 L -12.5,0.0 L 5.0,5.0 L 0.0,0.0 z "
         id="path8432" />
    </marker>
  </defs>
  <g
     inkscape:label="Layer 1"
     inkscape:groupmode="layer"
     id="layer1">
    <path
       style="display:inline;fill:#4d4d4d;stroke:#000000;stroke-width:0.264583px;stroke-linecap:butt;stroke-linejoin:miter;stroke-opacity:1"
       d="M 20.391638,4.5789889 8.9477015,130.00987 c 37.0182205,3.15382 73.9315335,2.88297 110.7648285,0 L 109.52397,4.5944367 l -6.2e-4,-0.00772 -6.3e-4,-0.00772 c -27.272966,2.2548815 -55.932048,3.2274394 -89.131082,0 z"
       id="path2226"
       sodipodi:nodetypes="ccccccc" />
    <circle
       style="display:inline;fill:#808080;fill-opacity:0.561008;stroke:#000000;stroke-width:0.264583;stroke-linecap:round;stroke-linejoin:round;stroke-miterlimit:4;stroke-dasharray:none;stroke-opacity:1;stop-color:#000000"
       id="path2633"
       cx="64.034142"
       cy="53.541473"
       r="31.968872" />
    <path
       id="path6563"
       style="display:inline;fill:#333333;fill-opacity:1;stroke:#000000;stroke-width:0.999999px;stroke-linecap:butt;stroke-linejoin:miter;stroke-opacity:1"
       d="m 394.29102,29.949219 c -50.87958,1.810668 -101.73246,2.750394 -152.5586,2.759765 v 48.835938 a 120.82723,120.82723 0 0 1 0.28711,-0.0098 120.82723,120.82723 0 0 1 120.82617,120.826178 120.82723,120.82723 0 0 1 -0.0547,1.71875 l 47.01171,3.16406 z"
       transform="scale(0.26458333)" />
    <path
       id="path2966"
       style="fill:#333333;stroke:#000000;stroke-width:0.999999px;stroke-linecap:butt;stroke-linejoin:miter;stroke-opacity:1;fill-opacity:1"
       d="M 121.25977 204.17578 L 76.417969 207.24414 L 59.097656 413.79883 C 118.6785 417.47735 179.58163 419.85241 242.14648 420.5918 L 241.9668 323.1875 A 120.82723 120.82723 0 0 1 121.25977 204.17578 z "
       transform="scale(0.26458333)" />
    <path
       id="path4137"
       style="fill:#333333;stroke:#000000;stroke-width:0.999999px;stroke-linecap:butt;stroke-linejoin:miter;stroke-opacity:1;fill-opacity:0.99359888"
       d="M 362.73242 204.07617 A 120.82723 120.82723 0 0 1 242.01953 323.18945 A 120.82723 120.82723 0 0 1 241.9668 323.18555 L 242.14648 420.5918 C 302.49883 421.30504 364.396 420.49777 428.22266 417.78906 L 409.80273 207.24414 L 362.73242 204.07617 z "
       transform="scale(0.26458333)" />
    <path
       id="path3897-7"
       style="fill:#333333;fill-opacity:0.9838317;stroke:#000000;stroke-width:0.999999px;stroke-linecap:butt;stroke-linejoin:miter;stroke-opacity:1"
       d="M 91.285156 29.949219 L 76.417969 207.24414 L 121.25977 204.17578 A 120.82723 120.82723 0 0 1 121.19141 202.36133 A 120.82723 120.82723 0 0 1 241.73242 81.546875 L 241.73242 32.708984 C 191.55604 32.718236 141.40571 31.820835 91.285156 29.949219 z "
       transform="scale(0.26458333)" />
    <circle
       style="display:inline;fill:#ff0000;fill-opacity:1;stroke:#000000;stroke-width:0.264583;stroke-linecap:round;stroke-linejoin:round;stroke-miterlimit:4;stroke-dasharray:none;stroke-opacity:1;stop-color:#000000"
       id="path2345-3"
       cx="64.034142"
       cy="53.541473"
       r="24.087418" />
  </g>
  <g
     inkscape:groupmode="layer"
     id="layer6"
     inkscape:label="REL_XY"
     style="display:none"
     data-state="REL_XY"
     data-type="relative"
     data-center-x="64.034142"
     data-center-y="53.541473"
     data-radius="24.087418"
     data-rgba="0 0 0 1">
    <circle
       style="fill:#ff0000;fill-opacity:0.561008;stroke:#000000;stroke-width:0.264583;stroke-linecap:round;stroke-linejoin:round;stroke-miterlimit:4;stroke-dasharray:none;stroke-opacity:1;stop-color:#000000"
       id="path2345"
       cx="64.034142"
       cy="53.541473"
       r="24.087418" />
  </g>
  <g
     inkscape:groupmode="layer"
     id="layer7"
     inkscape:label="WHEELPOS"
     style="display:none"
     data-type="button"
     data-state="wheelpos">
    <path
       id="path12571-0"
       style="color:#000000;display:inline;fill:#000000;stroke-width:1;stroke-linejoin:round;-inkscape-stroke:none"
       d="m 64.033299,24.361304 v 3.359483 c -10.276457,0 -19.413562,6.056194 -23.532415,15.189772 -6.3e-5,1.43e-4 6.4e-5,2.64e-4 0,5.29e-4 l 0.955498,0.391708 -3.987356,3.121257 -0.849042,-5.105632 0.77153,0.316261 C 42.024543,31.26328 52.395778,24.361304 64.033299,24.361304 Z" />
  </g>
  <g
     inkscape:groupmode="layer"
     id="layer8"
     inkscape:label="WHEELNEG"
     style="display:none"
     data-type="button"
     data-state="wheelneg">
    <path
       id="path12571"
       style="color:#000000;display:inline;fill:#000000;stroke-width:3.77953;stroke-linejoin:round;-inkscape-stroke:none"
       d="m 242.01562,92.074219 v 12.697261 c 38.84015,0 73.37409,22.88955 88.94141,57.41016 2.4e-4,5.4e-4 -2.4e-4,0.001 0,0.002 l -3.61133,1.48047 15.07032,11.79688 3.20898,-19.29688 -2.91602,1.19532 C 325.19832,118.16043 285.99995,92.074219 242.01562,92.074219 Z"
       transform="scale(0.26458333)" />
  </g>
  <g
     inkscape:groupmode="layer"
     id="layer2"
     inkscape:label="LMB"
     style="display:none"
     data-type="button"
     data-state="lmb">
    <path
       id="path2966-6"
       style="fill:#ff0000;fill-opacity:1;stroke:#000000;stroke-width:0.264583px;stroke-linecap:butt;stroke-linejoin:miter;stroke-opacity:1"
       d="m 32.083314,54.021508 -11.864393,0.811837 -4.582666,54.650925 c 15.764098,0.97328 31.878051,1.60168 48.431667,1.79731 L 64.020382,85.510025 A 31.968871,31.968871 0 0 1 32.083314,54.021508 Z" />
  </g>
  <g
     inkscape:groupmode="layer"
     id="layer3"
     inkscape:label="RMB"
     style="display:none"
     data-type="button"
     data-state="rmb">
    <path
       id="path4137-2"
       style="fill:#ff0000;fill-opacity:0.993599;stroke:#000000;stroke-width:0.264583px;stroke-linecap:butt;stroke-linejoin:miter;stroke-opacity:1"
       d="m 95.972943,53.995179 a 31.968871,31.968871 0 0 1 -31.938618,31.515388 31.968871,31.968871 0 0 1 -0.01394,-0.0011 l 0.04754,25.772073 c 15.968225,0.18871 32.345185,-0.0249 49.232655,-0.74156 l -4.87362,-55.706651 z" />
  </g>
  <g
     inkscape:groupmode="layer"
     id="layer4"
     inkscape:label="MMB"
     style="display:none"
     data-type="button"
     data-state="mmb">
    <path
       id="path3897-7-9"
       style="fill:#ff0000;fill-opacity:0.983832;stroke:#000000;stroke-width:0.264583px;stroke-linecap:butt;stroke-linejoin:miter;stroke-opacity:1"
       d="m 24.152531,7.9240641 -3.93361,46.9092809 11.864393,-0.811837 a 31.968871,31.968871 0 0 1 -0.0181,-0.480073 31.968871,31.968871 0 0 1 31.893153,-31.965491 V 8.6542519 C 50.682535,8.6567125 37.413594,8.4192625 24.152531,7.9240641 Z" />
  </g>
  <g
     inkscape:groupmode="layer"
     id="layer5"
     inkscape:label="SMB"
     style="display:none"
     data-type="button"
     data-state="smb">
    <path
       id="path6563-1"
       style="fill:#ff0000;fill-opacity:1;stroke:#000000;stroke-width:0.264583px;stroke-linecap:butt;stroke-linejoin:miter;stroke-opacity:1"
       d="M 104.32283,7.9240641 C 90.860942,8.4031367 77.406118,8.6517725 63.958369,8.6542519 V 21.575427 a 31.968871,31.968871 0 0 1 0.07596,-0.0026 31.968871,31.968871 0 0 1 31.968591,31.968593 31.968871,31.968871 0 0 1 -0.01447,0.454752 l 12.43852,0.837158 z" />
  </g>
</svg>
