<?xml version="1.0" encoding="UTF-8" standalone="no"?>
<!-- Created with Inkscape (http://www.inkscape.org/) -->

<svg
   data-name="GuliKit TT Max"
   width="534.84979"
   height="503.2937"
   viewBox="-5 -5 149.763 140.927"
   version="1.1"
   id="svg5"
   xml:space="preserve"
   inkscape:version="1.2.2 (b0a8486541, 2022-12-01)"
   sodipodi:docname="tt_max.svg"
   xmlns:inkscape="http://www.inkscape.org/namespaces/inkscape"
   xmlns:sodipodi="http://sodipodi.sourceforge.net/DTD/sodipodi-0.dtd"
   xmlns:xlink="http://www.w3.org/1999/xlink"
   xmlns="http://www.w3.org/2000/svg"
   xmlns:svg="http://www.w3.org/2000/svg">
<sodipodi:namedview
   id="namedview7"
   pagecolor="#ffffff"
   bordercolor="#cccccc"
   borderopacity="1"
   inkscape:showpageshadow="0"
   inkscape:pageopacity="1"
   inkscape:pagecheckerboard="0"
   inkscape:deskcolor="#d1d1d1"
   inkscape:document-units="px"
   showgrid="false"
   showguides="true"
   inkscape:zoom="2.56"
   inkscape:cx="245.70312"
   inkscape:cy="283.39844"
   inkscape:current-layer="layer13">
  
<sodipodi:guide
   position="70.835447,57.306362"
   orientation="1,0"
   id="guide2814"
   inkscape:locked="false" />
  
<sodipodi:guide
   position="38.327727,44.471609"
   orientation="0,-1"
   id="guide5193"
   inkscape:locked="false" />
  
<sodipodi:guide
   position="93.626378,45.219528"
   orientation="1,0"
   id="guide5204"
   inkscape:locked="false" />
  
<sodipodi:guide
   position="30.801594,63.850564"
   orientation="1,0"
   id="guide5534"
   inkscape:locked="false" />
  
<sodipodi:guide
   position="32.00151,65.05048"
   orientation="0,-1"
   id="guide5536"
   inkscape:locked="false" />
  
<sodipodi:guide
   position="26.748271,69.103585"
   orientation="0.70708785,0.70712571"
   id="guide5572"
   inkscape:locked="false" />
  
<sodipodi:guide
   position="34.85449,69.103585"
   orientation="0.70712501,-0.70708855"
   id="guide5574"
   inkscape:locked="false" />
  
<sodipodi:guide
   position="110.86931,63.850567"
   orientation="1,0"
   id="guide5956"
   inkscape:locked="false" />
</sodipodi:namedview>
<defs
   id="defs2">
<linearGradient
   inkscape:collect="always"
   id="linearGradient7902">
  <stop
   style="stop-color:#00ff00;stop-opacity:1;"
   offset="0"
   id="stop7898" />
  <stop
   style="stop-color:#00ff00;stop-opacity:1;"
   offset="0.80000001"
   id="stop10810" />
  <stop
   style="stop-color:#abffae;stop-opacity:0;"
   offset="0.80000001"
   id="stop10812" />
  <stop
   style="stop-color:#abffae;stop-opacity:0;"
   offset="1"
   id="stop7900" />
</linearGradient>
  
<inkscape:path-effect
   effect="mirror_symmetry"
   start_point="84.71107,51.84995"
   end_point="84.71107,71.042928"
   center_point="84.71107,61.476712"
   id="path-effect6163"
   is_visible="true"
   lpeversion="1.2"
   lpesatellites=""
   mode="free"
   discard_orig_path="true"
   fuse_paths="false"
   oposite_fuse="false"
   split_items="false"
   split_open="false"
   link_styles="false" />
  
<inkscape:path-effect
   effect="mirror_symmetry"
   start_point="84.71107,38.1835"
   end_point="84.71107,51.704444"
   center_point="84.71107,44.943972"
   id="path-effect6161"
   is_visible="true"
   lpeversion="1.2"
   lpesatellites=""
   mode="free"
   discard_orig_path="true"
   fuse_paths="false"
   oposite_fuse="false"
   split_items="false"
   split_open="false"
   link_styles="false" />
  
<inkscape:path-effect
   effect="copy_rotate"
   starting_point="129.79803,102.68703"
   origin="124.74493,102.68703"
   id="path-effect6011"
   is_visible="true"
   lpeversion="1.2"
   lpesatellites=""
   method="normal"
   num_copies="4"
   starting_angle="0"
   rotation_angle="90"
   gap="-0.01"
   copies_to_360="true"
   mirror_copies="false"
   split_items="true"
   link_styles="false" />
  
<inkscape:path-effect
   effect="mirror_symmetry"
   start_point="84.71107,89.265048"
   end_point="84.71107,95.879779"
   center_point="84.71107,92.572414"
   id="path-effect5296"
   is_visible="true"
   lpeversion="1.2"
   lpesatellites=""
   mode="free"
   discard_orig_path="true"
   fuse_paths="false"
   oposite_fuse="false"
   split_items="false"
   split_open="false"
   link_styles="false" />
  
<inkscape:path-effect
   effect="mirror_symmetry"
   start_point="84.71107,99.488708"
   end_point="84.71107,105.88537"
   center_point="84.71107,102.68704"
   id="path-effect5290"
   is_visible="true"
   lpeversion="1.2"
   lpesatellites=""
   mode="free"
   discard_orig_path="true"
   fuse_paths="false"
   oposite_fuse="false"
   split_items="false"
   split_open="false"
   link_styles="false" />
  
<inkscape:path-effect
   effect="mirror_symmetry"
   start_point="84.71107,104.56593"
   end_point="84.71107,106.96576"
   center_point="84.71107,105.76585"
   id="path-effect5286"
   is_visible="true"
   lpeversion="1.2"
   lpesatellites=""
   mode="free"
   discard_orig_path="true"
   fuse_paths="false"
   oposite_fuse="false"
   split_items="false"
   split_open="false"
   link_styles="false" />
  
<inkscape:path-effect
   effect="mirror_symmetry"
   start_point="84.71107,122.51798"
   end_point="84.71107,124.01382"
   center_point="84.71107,123.2659"
   id="path-effect5201"
   is_visible="true"
   lpeversion="1.2"
   lpesatellites=""
   mode="free"
   discard_orig_path="true"
   fuse_paths="false"
   oposite_fuse="false"
   split_items="false"
   split_open="false"
   link_styles="false" />
  
<inkscape:path-effect
   effect="mirror_symmetry"
   start_point="84.666667,79.855952"
   end_point="84.666667,95.099524"
   center_point="84.666667,87.477738"
   id="path-effect2778"
   is_visible="true"
   lpeversion="1.2"
   lpesatellites=""
   mode="free"
   discard_orig_path="true"
   fuse_paths="false"
   oposite_fuse="false"
   split_items="false"
   split_open="false"
   link_styles="false" />
  
<inkscape:path-effect
   effect="mirror_symmetry"
   start_point="84.631695,179.46068"
   end_point="84.631695,91.771255"
   center_point="84.631695,135.61597"
   id="path-effect2735"
   is_visible="true"
   lpeversion="1.2"
   lpesatellites=""
   mode="free"
   discard_orig_path="false"
   fuse_paths="false"
   oposite_fuse="false"
   split_items="true"
   split_open="false"
   link_styles="false" />
  
<inkscape:path-effect
   effect="mirror_symmetry"
   start_point="82.778521,76.479815"
   end_point="140.24527,57.370273"
   center_point="82.77852,57.370273"
   id="path-effect6040"
   is_visible="true"
   lpeversion="1.2"
   lpesatellites=""
   mode="free"
   discard_orig_path="false"
   fuse_paths="false"
   oposite_fuse="false"
   split_items="true"
   split_open="false"
   link_styles="false" />
  
<inkscape:path-effect
   effect="mirror_symmetry"
   start_point="84.666667,79.855952"
   end_point="84.666667,95.099524"
   center_point="84.666667,87.477738"
   id="path-effect2778-6"
   is_visible="true"
   lpeversion="1.2"
   lpesatellites=""
   mode="free"
   discard_orig_path="false"
   fuse_paths="false"
   oposite_fuse="false"
   split_items="false"
   split_open="false"
   link_styles="false" />
  
<inkscape:path-effect
   effect="mirror_symmetry"
   start_point="84.71107,89.265048"
   end_point="84.71107,95.879779"
   center_point="84.71107,92.572414"
   id="path-effect5296-2"
   is_visible="true"
   lpeversion="1.2"
   lpesatellites=""
   mode="free"
   discard_orig_path="false"
   fuse_paths="false"
   oposite_fuse="false"
   split_items="false"
   split_open="false"
   link_styles="false" />
  
<inkscape:path-effect
   effect="mirror_symmetry"
   start_point="84.71107,99.488708"
   end_point="84.71107,105.88537"
   center_point="84.71107,102.68704"
   id="path-effect5290-1"
   is_visible="true"
   lpeversion="1.2"
   lpesatellites=""
   mode="free"
   discard_orig_path="false"
   fuse_paths="false"
   oposite_fuse="false"
   split_items="false"
   split_open="false"
   link_styles="false" />
  
<inkscape:path-effect
   effect="mirror_symmetry"
   start_point="84.71107,38.1835"
   end_point="84.71107,51.704444"
   center_point="84.71107,44.943972"
   id="path-effect6161-2"
   is_visible="true"
   lpeversion="1.2"
   lpesatellites=""
   mode="free"
   discard_orig_path="false"
   fuse_paths="false"
   oposite_fuse="false"
   split_items="false"
   split_open="false"
   link_styles="false" />
  
<inkscape:path-effect
   effect="mirror_symmetry"
   start_point="84.71107,51.84995"
   end_point="84.71107,71.042928"
   center_point="84.71107,61.476712"
   id="path-effect6163-9"
   is_visible="true"
   lpeversion="1.2"
   lpesatellites=""
   mode="free"
   discard_orig_path="false"
   fuse_paths="false"
   oposite_fuse="false"
   split_items="false"
   split_open="false"
   link_styles="false" />
<linearGradient
   inkscape:collect="always"
   xlink:href="#linearGradient7902"
   id="linearGradient7904"
   x1="32.102146"
   y1="50.144966"
   x2="32.095486"
   y2="69.673508"
   gradientUnits="userSpaceOnUse" /></defs>
<g
   inkscape:groupmode="layer"
   id="layer2"
   inkscape:label="graveyard"
   style="display:none"
   transform="translate(-13.875619,-34.5744)">
  
<path
   id="path2716-3"
   style="display:inline;fill:#abbbff;fill-opacity:0.623588;stroke:#000000;stroke-width:0.264583;stroke-linecap:butt;stroke-linejoin:miter;stroke-dasharray:none;stroke-opacity:1"
   d="m 63.290194,79.916569 c -4.637642,0.08802 -9.538803,-0.09059 -13.469979,0.712618 -4.780536,0.735584 -8.553711,2.417347 -12.112439,4.300513 -2.766993,1.28749 -5.417156,2.697615 -7.35614,4.854484 -0.727188,0.376224 -2.789066,4.163309 -2.923336,4.653462 -4.091439,10.224984 -5.777872,16.876454 -8.364864,26.383924 -3.168077,9.08382 -4.795326,18.1984 -5.055505,27.34045 0.03903,3.6594 0.42691,7.18443 1.772501,10.34045 1.700634,2.84487 3.186023,5.79849 6.905005,7.62176 1.122685,0.55086 2.264915,1.07852 3.546037,1.43919 1.621976,0.17409 2.571046,-0.21067 3.353283,-0.73433 1.832321,-0.99005 3.664502,-2.83842 5.496823,-4.78162 l 4.448824,-5.77535 3.77703,-4.74028 c 1.351024,-1.69315 2.632374,-3.55335 4.071586,-5.03484 0.421112,-0.40616 0.861311,-0.806 1.336353,-1.19321 0.313725,-0.23895 0.647141,-0.46577 1.004073,-0.67799 0.261238,-0.1413 0.5219,-0.28314 0.787549,-0.41755 0.917048,-0.44086 1.987753,-0.78666 3.287654,-0.99064 0.184833,-0.0117 0.370097,-0.0229 0.564824,-0.0191 h 60.544107 c 0.19495,-0.004 0.38083,0.007 0.56586,0.0191 1.29967,0.20399 2.37021,0.54984 3.28714,0.99064 0.26551,0.13434 0.52592,0.27633 0.78703,0.41755 0.35707,0.21228 0.69024,0.43895 1.00407,0.67799 0.47443,0.38671 0.91418,0.78605 1.3348,1.19166 1.43984,1.48174 2.72215,3.34264 4.07366,5.03639 l 3.77703,4.74028 4.44882,5.77535 c 1.83232,1.9432 3.6645,3.79157 5.49682,4.78162 0.78224,0.52366 1.73131,0.90842 3.35329,0.73433 1.28112,-0.36067 2.42283,-0.88833 3.54552,-1.43919 3.71898,-1.82327 5.20437,-4.77689 6.905,-7.62176 1.34559,-3.15602 1.73399,-6.68105 1.77302,-10.34045 -0.26018,-9.14205 -1.88743,-18.25663 -5.05551,-27.34045 -2.58699,-9.50747 -4.27342,-16.15894 -8.36486,-26.383924 -0.13427,-0.490153 -2.19615,-4.277238 -2.92334,-4.653462 -1.93898,-2.156869 -4.58966,-3.566994 -7.35665,-4.854484 -3.55873,-1.883166 -7.33191,-3.564929 -12.11244,-4.300513 -3.93118,-0.803212 -8.83182,-0.624598 -13.46946,-0.712618 H 104.9569 64.306152 Z" /><path
   style="fill:#ffffff;fill-opacity:0;stroke:#ff0000;stroke-width:0.264583;stroke-linejoin:bevel;stroke-dasharray:none;stroke-opacity:1;stop-color:#000000"
   id="path5520-9"
   sodipodi:type="arc"
   sodipodi:cx="44.677204"
   sodipodi:cy="102.68703"
   sodipodi:rx="12.079587"
   sodipodi:ry="12.079587"
   sodipodi:start="0.44305067"
   sodipodi:end="0.43953411"
   sodipodi:open="true"
   sodipodi:arc-type="arc"
   d="m 55.590483,107.86552 a 12.079587,12.079587 0 0 1 -16.082172,5.73933 12.079587,12.079587 0 0 1 -5.753475,-16.077116 12.079587,12.079587 0 0 1 16.072057,-5.767606 12.079587,12.079587 0 0 1 5.781733,16.066982" />
  
<rect
   style="display:inline;fill:#ffffff;fill-opacity:0;stroke:#ff0000;stroke-width:0.264583;stroke-linejoin:bevel;stroke-dasharray:none;stroke-opacity:1;stop-color:#000000"
   id="rect5532-3"
   width="7.8416376"
   height="7.8416376"
   x="40.756382"
   y="98.76622"
   ry="0.81056929" />
  
<path
   id="path5520-2"
   style="display:inline;fill:#ffffff;fill-opacity:0.623588;stroke:#ff0000;stroke-width:0.264583;stroke-linejoin:bevel;stroke-dasharray:none;stroke-opacity:1;stop-color:#000000"
   d="m 44.729589,90.606236 a 12.079587,12.079587 0 0 0 -10.974523,6.920508 12.079587,12.079587 0 0 0 5.753137,16.077056 12.079587,12.079587 0 0 0 16.082222,-5.73918 l 0.01809,-0.0388 A 12.079587,12.079587 0 0 0 49.826953,91.759138 12.079587,12.079587 0 0 0 44.729589,90.606236 Z m -3.162597,8.158675 h 6.220292 c 0.449055,0 0.810803,0.361749 0.810803,0.810804 v 6.220295 c 0,0.44905 -0.361748,0.8108 -0.810803,0.8108 h -6.220292 c -0.449055,0 -0.810803,-0.36175 -0.810803,-0.8108 v -6.220295 c 0,-0.449055 0.361748,-0.810804 0.810803,-0.810804 z" />
<path
   id="path5885-0"
   style="display:inline;font-variation-settings:normal;vector-effect:none;fill:#abbbff;fill-opacity:0.623588;stroke:#000000;stroke-width:0.264583;stroke-linecap:butt;stroke-linejoin:miter;stroke-miterlimit:4;stroke-dasharray:none;stroke-dashoffset:0;stroke-opacity:1;-inkscape-stroke:none;stop-color:#000000"
   d="m 60.199165,34.706692 -0.535368,0.06976 h -0.0021 l -10.802442,0.207222 c -1.121744,0.153423 -2.212356,0.30561 -3.266467,0.456303 -1.054111,0.150693 -2.071839,0.299955 -3.048393,0.447518 -0.996506,0.138811 -1.873981,0.29959 -2.656168,0.47749 -0.391094,0.08895 -0.75842,0.181955 -1.104842,0.279053 -1.732112,0.485489 -2.942626,1.066377 -4.003374,1.674317 -0.244072,0.120731 -0.474697,0.243417 -0.693497,0.368453 -0.437602,0.25007 -0.828429,0.508001 -1.187008,0.771529 -0.179289,0.131763 -0.350681,0.26527 -0.515731,0.399458 -0.0014,0.0012 -0.0027,0.0024 -0.0041,0.0036 -0.910365,0.658127 -1.705971,1.35739 -2.511991,2.132686 -0.968323,1.340965 -1.766067,2.611712 -2.170927,3.935161 -0.0382,0.121006 -0.07338,0.242717 -0.104387,0.365352 -0.05868,0.237568 -0.107315,0.476955 -0.137976,0.719336 -0.03783,0.315417 -0.07079,0.628087 -0.0987,0.937927 -0.0068,0.07494 -0.01038,0.14812 -0.01654,0.222725 -0.0011,0.01022 -0.0031,0.02079 -0.0041,0.03101 -0.06257,0.603232 -0.08802,1.193651 -0.09043,1.775603 -3.8e-4,0.09173 0.0034,0.182021 0.0041,0.273368 3.1e-5,0.004 -3.3e-5,0.0079 0,0.01189 -0.0011,0.4257 0.0047,0.847573 0.02739,1.259872 0.0059,0.107716 0.0172,0.212588 0.0248,0.31936 2.83e-4,0.004 2.32e-4,0.0079 5.17e-4,0.01189 0.04414,0.804881 0.102873,1.604543 0.13901,2.412256 0.405984,2.863728 1.670689,5.461371 3.061312,7.860502 1.007362,1.155216 1.983828,2.451339 3.038574,3.358451 l 1.37821,1.872754 2.989999,2.711462 c 0.205252,0.167274 0.417098,0.327084 0.63562,0.479041 0.218522,0.151957 0.443787,0.296214 0.675411,0.433048 0.231624,0.136835 0.46961,0.266185 0.714168,0.38809 0.244558,0.121906 0.495601,0.236479 0.752926,0.343649 1.029297,0.42868 2.160029,0.740359 3.386873,0.941028 0.371754,-0.01481 0.738688,-0.01856 1.104325,-0.01912 l 0.04444,0.02325 c 0.235812,0.04401 0.463759,0.08174 0.684196,0.114205 0.220437,0.03246 0.433345,0.05959 0.639238,0.08113 0.205892,0.02154 0.404682,0.03785 0.596862,0.04909 0.57654,0.03374 1.093063,0.02238 1.561145,-0.02532 0.156028,-0.0159 0.30653,-0.03573 0.452169,-0.05943 0.145639,-0.0237 0.286632,-0.05129 0.422713,-0.08217 0.303604,-0.108806 0.586628,-0.238077 0.854729,-0.382405 0.2681,-0.144328 0.521217,-0.303476 0.765327,-0.471806 0.488222,-0.336661 0.939605,-0.709768 1.400949,-1.07332 0.192761,-0.204919 0.377222,-0.413638 0.552421,-0.626318 0.175198,-0.21268 0.3414,-0.429462 0.497644,-0.650606 0.07812,-0.110572 0.153737,-0.22256 0.226859,-0.33538 0.07312,-0.112821 0.143925,-0.226425 0.211874,-0.341581 0.135897,-0.230314 0.261011,-0.465713 0.37517,-0.705901 0.04646,-0.166991 0.09132,-0.343956 0.134359,-0.530717 0.04304,-0.18676 0.08413,-0.383102 0.124024,-0.588077 0.07979,-0.409951 0.153908,-0.854597 0.222725,-1.328085 0.06882,-0.473487 0.132761,-0.975575 0.192753,-1.500166 0.05999,-0.524592 0.115669,-1.071778 0.168982,-1.635043 l 0.701766,-4.403865 c 0.312396,-0.958941 0.826006,-1.358094 1.427303,-1.513603 0.20919,-0.04053 0.419126,-0.06023 0.626835,-0.07131 h 52.517728 0.7798 c 0.2077,0.01108 0.41713,0.03079 0.62632,0.07131 0.60129,0.155509 1.1149,0.554662 1.4273,1.513603 l 0.70177,4.403865 c 0.0533,0.563265 0.1095,1.110451 0.1695,1.635043 0.06,0.524591 0.12393,1.026679 0.19275,1.500166 0.0688,0.473488 0.14242,0.918134 0.22221,1.328085 0.0399,0.204975 0.0815,0.401317 0.12454,0.588077 0.043,0.186761 0.0874,0.363726 0.13384,0.530717 0.11416,0.240188 0.23979,0.475587 0.37569,0.705901 0.068,0.115156 0.13823,0.22876 0.21135,0.341581 0.0731,0.11282 0.14874,0.224808 0.22686,0.33538 0.15625,0.221144 0.32245,0.437926 0.49765,0.650606 0.1752,0.21268 0.35966,0.421399 0.55242,0.626318 0.46134,0.363552 0.91324,0.736659 1.40146,1.07332 0.24411,0.16833 0.49723,0.327478 0.76533,0.471806 0.2681,0.144328 0.55113,0.273599 0.85473,0.382405 0.13608,0.03088 0.27656,0.05846 0.4222,0.08217 0.14563,0.0237 0.29614,0.04353 0.45216,0.05943 0.31206,0.0318 0.646,0.04759 1.00459,0.04444 0.1793,-0.0016 0.3649,-0.0079 0.55708,-0.01912 0.19218,-0.01125 0.39097,-0.02755 0.59686,-0.04909 0.20589,-0.02154 0.4188,-0.04867 0.63924,-0.08113 0.22043,-0.03246 0.44838,-0.0702 0.68419,-0.114205 l 0.0444,-0.02325 c 0.36554,5.63e-4 0.73216,0.0043 1.10381,0.01912 1.22685,-0.200669 2.35758,-0.512348 3.38688,-0.941028 0.25732,-0.10717 0.50836,-0.221743 0.75292,-0.343649 0.24456,-0.121905 0.48255,-0.251255 0.71417,-0.38809 0.23162,-0.136834 0.45689,-0.281091 0.67541,-0.433048 0.21852,-0.151957 0.43037,-0.311767 0.63562,-0.479041 l 2.99,-2.711462 1.37718,-1.871204 5.1e-4,-0.001 c 1.05506,-0.907145 2.03199,-2.203454 3.03961,-3.358968 1.39062,-2.399131 2.65481,-4.996774 3.0608,-7.860502 0.0366,-0.817573 0.0968,-1.626867 0.14107,-2.441712 2.7e-4,-0.0038 7.7e-4,-0.0076 0.001,-0.01137 0.007,-0.09717 0.0168,-0.19247 0.0222,-0.290421 0.0225,-0.408466 0.0288,-0.826364 0.0279,-1.247986 -1e-5,-0.004 10e-6,-0.0079 0,-0.01189 7.9e-4,-0.0953 0.005,-0.189532 0.004,-0.285253 -0.002,-0.581952 -0.0279,-1.172371 -0.0904,-1.775603 -10e-4,-0.01294 -0.004,-0.02632 -0.005,-0.03927 -0.006,-0.07185 -0.01,-0.142297 -0.016,-0.214457 -0.0279,-0.30984 -0.0609,-0.62251 -0.0987,-0.937927 -0.0136,-0.107702 -0.0303,-0.21527 -0.0496,-0.321944 -6e-5,-3.32e-4 6e-5,-7.02e-4 0,-10e-4 -0.0241,-0.133056 -0.0558,-0.264685 -0.0884,-0.396358 -0.031,-0.122635 -0.0662,-0.244346 -0.10439,-0.365352 -0.40486,-1.323449 -1.2026,-2.594196 -2.17093,-3.935161 -0.80567,-0.77496 -1.60109,-1.473775 -2.51095,-2.131653 -0.002,-0.0014 -0.003,-0.0033 -0.005,-0.0047 -0.16505,-0.134188 -0.33644,-0.267695 -0.51573,-0.399458 -0.35858,-0.263528 -0.74941,-0.521459 -1.18701,-0.771529 -0.2188,-0.125036 -0.44891,-0.247722 -0.69298,-0.368453 -0.4243,-0.243176 -0.87283,-0.482019 -1.36891,-0.712102 -0.24804,-0.115041 -0.508,-0.228337 -0.7829,-0.33848 -0.54979,-0.220287 -1.15924,-0.429539 -1.85208,-0.623735 -0.34642,-0.0971 -0.71375,-0.190102 -1.10484,-0.279053 -0.78219,-0.1779 -1.65967,-0.338679 -2.65617,-0.47749 -0.97656,-0.147563 -1.99428,-0.296825 -3.04839,-0.447518 -1.05412,-0.150693 -2.14473,-0.30288 -3.26647,-0.456303 l -10.80451,-0.207222 h -0.002 l -0.5333,-0.06976 h -3.08715 -42.849067 z" /></g>
<g
   inkscape:label="Layer 1"
   inkscape:groupmode="layer"
   id="layer1"
   style="display:inline"
   transform="translate(-13.875619,-34.5744)">
  
<path
   id="path5885"
   style="font-variation-settings:normal;opacity:1;vector-effect:none;fill:#333333;fill-opacity:1;stroke:#000000;stroke-width:0.264583;stroke-linecap:butt;stroke-linejoin:miter;stroke-miterlimit:4;stroke-dasharray:none;stroke-dashoffset:0;stroke-opacity:1;-inkscape-stroke:none;stop-color:#000000;stop-opacity:1"
   d="M 60.199384 34.706448 L 59.663976 34.776451 L 59.661788 34.776451 L 48.859001 34.983723 C 47.737261 35.137146 46.64706 35.28914 45.592953 35.439833 C 44.538846 35.590522 43.521119 35.740175 42.544569 35.887738 C 41.548067 36.026549 40.670494 36.18728 39.888307 36.365176 C 39.497217 36.454126 39.130001 36.546994 38.783583 36.644092 C 37.051475 37.129581 35.840516 37.710197 34.779776 38.318133 C 34.535704 38.438864 34.305111 38.561703 34.086315 38.686739 C 33.648713 38.936809 33.258131 39.194878 32.899556 39.458406 C 32.720267 39.590169 32.548885 39.72345 32.383835 39.857638 C 32.382435 39.858838 32.38086 39.860266 32.37946 39.861466 C 31.469099 40.519593 30.673594 41.219059 29.867578 41.994351 C 28.899259 43.335312 28.101818 44.605808 27.696958 45.929249 C 27.658758 46.050255 27.623508 46.171939 27.592501 46.294574 C 27.533821 46.532142 27.484798 46.771358 27.454137 47.013739 C 27.416307 47.329156 27.383607 47.641822 27.355697 47.951662 C 27.348897 48.026598 27.34545 48.100189 27.33929 48.174794 C 27.33819 48.185014 27.335915 48.1952 27.334915 48.20542 C 27.272345 48.808652 27.247087 49.399235 27.244677 49.981183 C 27.244297 50.072913 27.247805 50.163283 27.248505 50.25463 C 27.248536 50.25863 27.248472 50.262672 27.248505 50.266662 C 27.247405 50.692358 27.25316 51.113862 27.27585 51.526157 C 27.28175 51.633873 27.293407 51.738771 27.301007 51.845543 C 27.30129 51.849543 27.301269 51.853585 27.301554 51.857575 C 27.345694 52.662452 27.404328 53.462213 27.440465 54.269922 C 27.846449 57.133638 29.111356 59.731299 30.501975 62.130422 C 31.509333 63.285634 32.485773 64.581787 33.540515 65.488895 L 34.918686 67.361458 L 37.908553 70.072956 C 38.113805 70.24023 38.325525 70.400078 38.544043 70.552035 C 38.762565 70.703988 38.987833 70.84834 39.219457 70.985174 C 39.451081 71.122009 39.689142 71.251017 39.9337 71.372922 C 40.178254 71.494828 40.429447 71.609748 40.686772 71.716918 C 41.716065 72.145594 42.846847 72.457456 44.073683 72.658121 C 44.445437 72.643311 44.812228 72.63954 45.177861 72.63898 L 45.22216 72.66195 C 45.457968 72.70596 45.68589 72.743785 45.906323 72.77625 C 46.12676 72.80871 46.339749 72.835651 46.545642 72.857191 C 46.751534 72.878731 46.950673 72.895171 47.142849 72.906411 C 47.719389 72.940151 48.235605 72.928954 48.703683 72.881254 C 48.859711 72.865354 49.010329 72.845342 49.155964 72.821642 C 49.301603 72.797946 49.442632 72.770488 49.578713 72.739608 C 49.882317 72.630806 50.165407 72.501658 50.433508 72.35733 C 50.701604 72.213002 50.954502 72.053691 51.198612 71.885361 C 51.68683 71.5487 52.138409 71.175361 52.599753 70.811809 C 52.79251 70.60689 52.976916 70.398296 53.152115 70.185616 C 53.327313 69.972936 53.493544 69.755953 53.649788 69.534813 C 53.727908 69.424241 53.803627 69.312387 53.876749 69.199567 C 53.949869 69.086746 54.020448 68.973461 54.088397 68.858305 C 54.224294 68.627995 54.349407 68.392454 54.463566 68.152266 C 54.510026 67.985275 54.555062 67.807993 54.598101 67.621232 C 54.641141 67.434476 54.682352 67.238297 54.722246 67.033322 C 54.802036 66.623371 54.876015 66.178949 54.944832 65.705465 C 55.013652 65.231978 55.077346 64.729923 55.137338 64.205336 C 55.197328 63.680744 55.253015 63.133389 55.306328 62.570124 L 56.007993 58.165991 C 56.320385 57.207054 56.834088 56.808246 57.435385 56.652737 C 57.644575 56.612207 57.854416 56.592174 58.062125 56.581094 L 110.58031 56.581094 L 111.35963 56.581094 C 111.56733 56.592174 111.77718 56.612217 111.98637 56.652737 C 112.58766 56.808246 113.10136 57.207054 113.41376 58.165991 L 114.11542 62.570124 C 114.16872 63.133389 114.22496 63.680744 114.28496 64.205336 C 114.34496 64.729923 114.40865 65.231978 114.47747 65.705465 C 114.54627 66.178949 114.61972 66.623371 114.69951 67.033322 C 114.73941 67.238297 114.78116 67.434476 114.8242 67.621232 C 114.8672 67.807993 114.91175 67.985275 114.95819 68.152266 C 115.07235 68.392454 115.198 68.627995 115.3339 68.858305 C 115.4019 68.973461 115.47188 69.086746 115.545 69.199567 C 115.6181 69.312387 115.69385 69.424241 115.77197 69.534813 C 115.92822 69.755953 116.09444 69.972936 116.26964 70.185616 C 116.44484 70.398296 116.62924 70.60689 116.822 70.811809 C 117.28334 71.175361 117.73547 71.5487 118.22369 71.885361 C 118.4678 72.053691 118.72069 72.213002 118.98879 72.35733 C 119.25689 72.501658 119.53999 72.630806 119.84359 72.739608 C 119.97967 72.770488 120.12015 72.797936 120.26579 72.821642 C 120.41142 72.845342 120.56205 72.865354 120.71807 72.881254 C 121.03013 72.913054 121.36412 72.928702 121.72271 72.925552 C 121.90201 72.923952 122.08727 72.917631 122.27945 72.906411 C 122.47163 72.895161 122.67077 72.878731 122.87666 72.857191 C 123.08255 72.835651 123.29554 72.80871 123.51598 72.77625 C 123.73641 72.74379 123.96433 72.705955 124.20014 72.66195 L 124.24444 72.63898 C 124.60998 72.639543 124.97642 72.643301 125.34807 72.658121 C 126.57492 72.457456 127.70568 72.145594 128.73498 71.716918 C 128.9923 71.609748 129.24349 71.494828 129.48805 71.372922 C 129.73261 71.251017 129.97068 71.122009 130.2023 70.985174 C 130.43392 70.84834 130.65919 70.703988 130.87771 70.552035 C 131.09623 70.400078 131.30795 70.24023 131.5132 70.072956 L 134.50307 67.361458 L 135.88014 65.490535 L 135.88069 65.489442 C 136.93575 64.582301 137.91271 63.285932 138.92033 62.130422 C 140.31091 59.731299 141.5753 57.133638 141.98129 54.269922 C 142.01789 53.452353 142.07812 52.642884 142.12239 51.828043 C 142.12266 51.824243 142.12325 51.820328 142.12348 51.816558 C 142.13048 51.719388 142.13996 51.624108 142.14536 51.526157 C 142.16786 51.117695 142.17415 50.699768 142.17325 50.278146 C 142.17324 50.274146 142.17326 50.270652 142.17325 50.266662 C 142.17404 50.171362 142.17862 50.076904 142.17762 49.981183 C 142.17562 49.399235 142.14934 48.808652 142.08684 48.20542 C 142.08584 48.19248 142.08292 48.179541 142.08192 48.166591 C 142.07592 48.094741 142.07206 48.023818 142.06606 47.951662 C 142.03816 47.641822 142.00487 47.329156 141.96707 47.013739 C 141.95347 46.906037 141.93715 46.79884 141.91785 46.692166 C 141.91779 46.691834 141.91791 46.69137 141.91785 46.691072 C 141.89375 46.558016 141.86185 46.426247 141.82925 46.294574 C 141.79825 46.171939 141.76299 46.050255 141.7248 45.929249 C 141.31994 44.605808 140.52247 43.335312 139.55418 41.994351 C 138.74851 41.219395 137.9527 40.520434 137.04284 39.86256 C 137.04084 39.86116 137.03992 39.859038 137.03792 39.857638 C 136.87287 39.72345 136.70149 39.590169 136.5222 39.458406 C 136.16362 39.194878 135.77304 38.936809 135.33544 38.686739 C 135.11664 38.561703 134.88659 38.438864 134.64252 38.318133 C 134.21826 38.074957 133.76973 37.836157 133.27365 37.606078 C 133.02561 37.491037 132.7654 37.37769 132.4905 37.267551 C 131.94071 37.047264 131.33101 36.838288 130.63817 36.644092 C 130.29175 36.546992 129.92454 36.454127 129.53345 36.365176 C 128.75126 36.18728 127.87368 36.026549 126.87718 35.887738 C 125.90066 35.740175 124.88291 35.590522 123.8288 35.439833 C 122.77468 35.28914 121.68449 35.137146 120.56275 34.983723 L 109.75778 34.776451 L 109.75614 34.776451 L 109.22292 34.706448 L 106.1357 34.706448 L 63.286598 34.706448 L 60.199384 34.706448 z M 52.149659 36.75894 C 54.719947 36.765492 57.290573 36.803114 59.860857 36.76058 C 60.745321 36.874637 61.423183 37.247005 61.674356 38.151877 C 62.267034 40.380004 62.246855 42.30919 62.127731 44.190128 C 61.930972 45.162909 61.38794 45.98839 59.881092 46.402859 L 50.589919 47.067882 C 50.237834 47.088954 49.877048 47.070784 49.661294 47.683684 L 48.795015 50.278693 L 32.021792 49.461634 L 32.076481 46.145272 C 32.403933 44.20432 33.139782 42.645824 34.22796 41.417378 C 35.296816 39.906577 36.802841 38.541134 39.298209 37.504355 C 43.58202 36.823968 47.865852 36.748019 52.149659 36.75894 z M 117.27209 36.75894 C 121.55592 36.748019 125.84028 36.823967 130.12409 37.504355 C 132.61946 38.541135 134.12493 39.906575 135.19379 41.417378 C 136.28198 42.645825 137.01837 44.204318 137.34582 46.145272 L 137.40051 49.461634 L 120.62674 50.278693 L 119.76101 47.683684 C 119.54525 47.070784 119.18447 47.088954 118.83238 47.067882 L 109.54121 46.402859 C 108.03436 45.988389 107.49132 45.16291 107.29457 44.190128 C 107.17544 42.309188 107.15527 40.380006 107.74794 38.151877 C 107.99912 37.247004 108.67697 36.874637 109.56144 36.76058 C 112.13174 36.803114 114.70182 36.765492 117.27209 36.75894 z M 32.244377 50.348149 L 48.581726 51.217709 C 47.797824 57.052151 48.069428 64.192536 45.742802 68.188361 C 44.956311 69.123456 43.845922 69.536075 41.983456 69.541375 C 39.824205 69.435763 38.118468 68.384529 36.449441 67.258095 C 34.670835 65.71761 33.800337 63.584099 33.437699 61.118669 L 32.244377 50.348149 z M 137.17792 50.348149 L 135.9846 61.118669 C 135.62197 63.584102 134.75092 65.717608 132.97231 67.258095 C 131.30328 68.38453 129.59809 69.435762 127.43884 69.541375 C 125.57638 69.536075 124.46545 69.123457 123.67895 68.188361 C 121.35232 64.192532 121.62393 57.052156 120.84003 51.217709 L 137.17792 50.348149 z " />
  

  
<path
   style="fill:#808080;fill-opacity:0.989309;stroke:#000000;stroke-width:0.264583px;stroke-linecap:butt;stroke-linejoin:miter;stroke-dasharray:none;stroke-opacity:1;font-variation-settings:normal;opacity:1;vector-effect:none;stroke-miterlimit:4;stroke-dashoffset:0;-inkscape-stroke:none;stop-color:#000000;stop-opacity:1"
   d="m 107.50184,114.64259 a 8.6235123,8.6235123 0 0 0 -8.622867,8.62341 8.6235123,8.6235123 0 0 0 8.622867,8.62342 8.6235123,8.6235123 0 0 0 8.62397,-8.62342 8.6235123,8.6235123 0 0 0 -8.62397,-8.62341 z"
   id="path4980" /><path
   style="fill:#808080;fill-opacity:0.989309;stroke:#000000;stroke-width:0.264583px;stroke-linecap:butt;stroke-linejoin:miter;stroke-dasharray:none;stroke-opacity:1;font-variation-settings:normal;opacity:1;vector-effect:none;stroke-miterlimit:4;stroke-dashoffset:0;-inkscape-stroke:none;stop-color:#000000;stop-opacity:1"
   d="m 61.920458,114.64259 a 8.6235123,8.6235123 0 0 0 -8.623963,8.62341 8.6235123,8.6235123 0 0 0 8.623963,8.62342 8.6235123,8.6235123 0 0 0 8.62287,-8.62342 8.6235123,8.6235123 0 0 0 -8.62287,-8.62341 z"
   id="path4978" /><path
   style="fill:#abbbff;fill-opacity:0.623588;stroke:#000000;stroke-width:0.264583;stroke-linecap:butt;stroke-linejoin:miter;stroke-dasharray:none;stroke-opacity:1"
   d="m 41.566724,98.765175 c -0.449055,0 -0.810497,0.361454 -0.810497,0.810496 v 6.220369 c 0,0.44905 0.361442,0.81104 0.810497,0.81104 h 6.220366 c 0.449055,0 0.811043,-0.36199 0.811043,-0.81104 v -6.220369 c 0,-0.449042 -0.361988,-0.810496 -0.811043,-0.810496 z"
   id="path4976" /><path
   style="fill:#333333;fill-opacity:1;stroke:#000000;stroke-width:0.264583;stroke-linecap:butt;stroke-linejoin:miter;stroke-dasharray:none;stroke-opacity:1"
   d="m 63.290426,79.916492 c -4.637577,0.08802 -9.538862,-0.0906 -13.469986,0.712602 -4.780471,0.735571 -8.553908,2.41763 -12.112597,4.30077 -2.766954,1.287477 -5.417306,2.697384 -7.356264,4.854227 -0.727175,0.376211 -2.788876,4.163376 -2.923146,4.653516 -4.091387,10.224853 -5.777782,16.876443 -8.364735,26.383783 -3.168038,9.08369 -4.795852,18.19892 -5.056031,27.34084 0.03903,3.6594 0.427451,7.1841 1.773029,10.34012 1.700608,2.84487 3.1856,5.79891 6.90453,7.62205 1.122672,0.55086 2.264949,1.07821 3.546058,1.43888 1.62195,0.17409 2.571326,-0.21027 3.35355,-0.73393 1.832308,-0.99005 3.664532,-2.83884 5.496827,-4.78204 l 4.448978,-5.77519 3.776847,-4.74047 c 1.350998,-1.69315 2.632435,-3.55322 4.071621,-5.03471 0.421112,-0.40616 0.861032,-0.80611 1.336061,-1.19332 0.313725,-0.23895 0.647165,-0.46538 1.004097,-0.6776 0.261225,-0.1413 0.52189,-0.28341 0.787526,-0.41782 0.917035,-0.44086 1.988036,-0.78645 3.287924,-0.99043 0.184833,-0.0117 0.370214,-0.0229 0.564941,-0.0191 H 114.9035 c 0.19495,-0.004 0.381,0.007 0.56603,0.0191 1.29967,0.20399 2.3699,0.54963 3.28683,0.99043 0.26551,0.13434 0.52587,0.2766 0.78698,0.41782 0.35707,0.21228 0.69027,0.43856 1.0041,0.6776 0.47443,0.38671 0.91435,0.78607 1.33497,1.19168 1.43971,1.48174 2.7223,3.3426 4.07381,5.03635 l 3.77684,4.74047 4.44898,5.77519 c 1.83232,1.9432 3.66451,3.79199 5.49683,4.78204 0.78224,0.52366 1.73102,0.90802 3.353,0.73393 1.28112,-0.36067 2.42282,-0.88802 3.54551,-1.43888 3.71898,-1.82314 5.20445,-4.77718 6.90508,-7.62205 1.34559,-3.15602 1.734,-6.68072 1.77303,-10.34012 -0.26018,-9.14192 -1.88741,-18.25715 -5.05549,-27.34084 -2.58686,-9.50734 -4.27342,-16.15893 -8.36473,-26.383783 -0.13427,-0.49014 -2.19596,-4.277305 -2.92315,-4.653516 -1.93898,-2.156843 -4.58982,-3.56675 -7.35681,-4.854227 -3.55873,-1.88314 -7.33207,-3.565199 -12.1126,-4.30077 -3.93105,-0.803199 -8.8318,-0.624582 -13.46944,-0.712602 h -1.01612 -40.651142 z m 3.266048,7.700807 a 3.3073654,3.3073654 0 0 1 3.307065,3.307611 3.3073654,3.3073654 0 0 1 -3.307065,3.307065 3.3073654,3.3073654 0 0 1 -3.307612,-3.307065 3.3073654,3.3073654 0 0 1 3.307612,-3.307611 z m 36.309356,0 c 1.82656,0 3.30761,1.481014 3.30761,3.307611 0,1.826603 -1.48105,3.307065 -3.30761,3.307065 -1.8266,0 -3.307069,-1.480462 -3.307069,-3.307065 0,-1.826597 1.480469,-3.307611 3.307069,-3.307611 z m 21.838,0.438608 a 5.0531058,5.0531058 0 0 1 2.19523,0.481813 5.0531058,5.0531058 0 0 1 2.41891,6.720774 l -0.008,0.01641 a 5.0531058,5.0531058 0 0 1 -6.72788,2.400863 5.0531058,5.0531058 0 0 1 -2.40633,-6.725696 5.0531058,5.0531058 0 0 1 4.15037,-2.877207 5.0531058,5.0531058 0 0 1 0.37736,-0.01695 z m -79.974421,2.550165 a 12.079587,12.079587 0 0 1 5.097594,1.152851 12.079587,12.079587 0 0 1 5.781758,16.066637 l -0.01859,0.0388 a 12.079587,12.079587 0 0 1 -16.081949,5.73965 12.079587,12.079587 0 0 1 -5.75332,-16.077032 12.079587,12.079587 0 0 1 10.974512,-6.920936 z m 89.621071,7.026487 c 0.0613,2.9e-4 0.12286,0.0018 0.18431,0.0044 0.65547,0.02714 1.31648,0.183469 1.94694,0.481266 2.52176,1.191202 3.60189,4.20008 2.41289,6.72296 -1.18899,2.52288 -4.1974,3.60569 -6.72132,2.41891 l -0.0159,-0.008 c -2.51973,-1.19565 -3.59429,-4.20711 -2.40086,-6.72789 0.8671,-1.831487 2.69292,-2.900949 4.5939,-2.891971 z m -19.16588,5.47e-4 c 0.0613,1.82e-4 0.12285,0.0014 0.1843,0.0038 0.65553,0.02599 1.31651,0.180743 1.94749,0.477438 l 0.0164,0.0077 c 2.51973,1.195636 3.59429,4.206561 2.40086,6.727341 -1.19343,2.52072 -4.20392,3.59809 -6.72569,2.40687 -2.52183,-1.19121 -3.60135,-4.20069 -2.41235,-6.7235 0.86387,-1.833051 2.68792,-2.90528 4.58898,-2.899634 z m -42.238769,1.855609 a 3.1983311,3.1983311 0 0 1 3.198233,3.198235 3.1983311,3.1983311 0 0 1 -3.198233,3.19823 3.1983311,3.1983311 0 0 1 -3.198233,-3.19823 3.1983311,3.1983311 0 0 1 3.198233,-3.198235 z m 23.530639,0 c 1.766383,0 3.198233,1.431845 3.198233,3.198235 0,1.76639 -1.43185,3.19823 -3.198233,3.19823 -1.766387,0 -3.198234,-1.43184 -3.198234,-3.19823 0,-1.76639 1.431847,-3.198235 3.198234,-3.198235 z m -11.76532,0.720805 a 2.4776597,2.4776597 0 0 1 2.477428,2.47743 2.4776597,2.4776597 0 0 1 -2.477428,2.47797 2.4776597,2.4776597 0 0 1 -2.477974,-2.47797 2.4776597,2.4776597 0 0 1 2.477974,-2.47743 z m 40.06542,7.00188 c 0.0613,3.4e-4 0.12285,0.002 0.1843,0.004 0.65545,0.0277 1.3162,0.18455 1.94639,0.48291 2.52079,1.19343 3.5981,4.20332 2.40688,6.72515 -1.19121,2.52183 -4.20063,3.60189 -6.72351,2.41289 -2.52282,-1.18899 -3.60514,-4.1974 -2.41836,-6.72132 l 0.008,-0.0159 c 0.8687,-1.83074 2.69559,-2.89876 4.59664,-2.88814 z m -40.06542,2.63001 a 2.4776597,2.4776597 0 0 1 2.477428,2.47797 2.4776597,2.4776597 0 0 1 -2.477428,2.47743 2.4776597,2.4776597 0 0 1 -2.477974,-2.47743 2.4776597,2.4776597 0 0 1 2.477974,-2.47797 z m -22.790692,3.70794 a 9.7167931,9.7167931 0 0 1 9.716657,9.71665 9.7167931,9.7167931 0 0 1 -9.716657,9.71666 9.7167931,9.7167931 0 0 1 -9.716656,-9.71666 9.7167931,9.7167931 0 0 1 9.716656,-9.71665 z m 45.581382,0 a 9.7167931,9.7167931 0 0 1 9.71666,9.71665 9.7167931,9.7167931 0 0 1 -9.71666,9.71666 9.7167931,9.7167931 0 0 1 -9.716654,-9.71666 9.7167931,9.7167931 0 0 1 9.716654,-9.71665 z"
   id="path2716" />
  
<path
   id="path2870"
   style="display:inline;fill:#0270ff;fill-opacity:1;stroke:#000000;stroke-width:0.264583;stroke-linejoin:bevel;stroke-dasharray:none;stroke-opacity:1;stop-color:#000000"
   d="m 61.920251,113.54914 a 9.7167931,9.7167931 0 0 0 -9.716719,9.71672 9.7167931,9.7167931 0 0 0 9.716719,9.71672 9.7167931,9.7167931 0 0 0 9.71672,-9.71672 9.7167931,9.7167931 0 0 0 -9.71672,-9.71672 z m 0,1.09347 a 8.6235123,8.6235123 0 0 1 8.623247,8.62325 8.6235123,8.6235123 0 0 1 -8.623247,8.62376 8.6235123,8.6235123 0 0 1 -8.623763,-8.62376 8.6235123,8.6235123 0 0 1 8.623763,-8.62325 z" />
  
<path
   id="path2870-5"
   style="font-variation-settings:normal;display:inline;opacity:1;vector-effect:none;fill:#0270ff;fill-opacity:1;stroke:#000000;stroke-width:0.264583;stroke-linecap:butt;stroke-linejoin:bevel;stroke-miterlimit:4;stroke-dasharray:none;stroke-dashoffset:0;stroke-opacity:1;-inkscape-stroke:none;stop-color:#000000;stop-opacity:1"
   d="m 107.50197,113.54914 a 9.7167931,9.7167931 0 0 0 -9.716724,9.71672 9.7167931,9.7167931 0 0 0 9.716724,9.71672 9.7167931,9.7167931 0 0 0 9.71671,-9.71672 9.7167931,9.7167931 0 0 0 -9.71671,-9.71672 z m 0,1.09347 a 8.6235123,8.6235123 0 0 1 8.62376,8.62325 8.6235123,8.6235123 0 0 1 -8.62376,8.62376 8.6235123,8.6235123 0 0 1 -8.623251,-8.62376 8.6235123,8.6235123 0 0 1 8.623251,-8.62325 z" />
  
<ellipse
   style="fill:#ffffff;fill-opacity:0;stroke:#ff0000;stroke-width:0.264583;stroke-linejoin:bevel;stroke-dasharray:none;stroke-opacity:1;stop-color:#000000"
   id="path5197"
   cx="61.920139"
   cy="123.2659"
   rx="9.7758834e-13"
   ry="6.0159283e-13" />
  
<circle
   style="font-variation-settings:normal;opacity:1;vector-effect:none;fill:#808080;fill-opacity:0.989309;stroke:#000000;stroke-width:0.264583px;stroke-linecap:butt;stroke-linejoin:miter;stroke-miterlimit:4;stroke-dasharray:none;stroke-dashoffset:0;stroke-opacity:1;-inkscape-stroke:none;stop-color:#000000;stop-opacity:1"
   id="path5288-2"
   cx="72.945755"
   cy="102.68703"
   r="3.1983311" /><path
   id="path5520-2-1-5-3"
   style="font-variation-settings:normal;display:inline;vector-effect:none;fill:#808080;fill-opacity:0.989309;stroke:#000000;stroke-width:0.264583px;stroke-linecap:butt;stroke-linejoin:miter;stroke-miterlimit:4;stroke-dasharray:none;stroke-dashoffset:0;stroke-opacity:1;-inkscape-stroke:none;stop-color:#000000"
   d="m 53.218457,94.145675 -4.856551,4.857068 c 0.145966,0.146488 0.236161,0.349087 0.236161,0.573091 v 6.220296 c 0,0.22479 -0.09084,0.42751 -0.237711,0.57412 l 4.852417,4.8519 a 12.079587,12.079587 0 0 0 2.377632,-3.35742 l 0.01809,-0.0387 A 12.079587,12.079587 0 0 0 53.218457,94.145675 Z" /><path
   id="path5520-2-1-5-9"
   style="font-variation-settings:normal;display:inline;vector-effect:none;fill:#808080;fill-opacity:0.989309;stroke:#000000;stroke-width:0.264583px;stroke-linecap:butt;stroke-linejoin:miter;stroke-miterlimit:4;stroke-dasharray:none;stroke-dashoffset:0;stroke-opacity:1;-inkscape-stroke:none;stop-color:#000000"
   d="m 53.218457,94.145675 -4.856551,4.857068 c 0.145966,0.146488 0.236161,0.349087 0.236161,0.573091 v 6.220296 c 0,0.22479 -0.09084,0.42751 -0.237711,0.57412 l 4.852417,4.8519 a 12.079587,12.079587 0 0 0 2.377632,-3.35742 l 0.01809,-0.0387 A 12.079587,12.079587 0 0 0 53.218457,94.145675 Z" />
  
<circle
   style="font-variation-settings:normal;opacity:1;vector-effect:none;fill:#808080;fill-opacity:0.989309;stroke:#000000;stroke-width:0.264583px;stroke-linecap:butt;stroke-linejoin:miter;stroke-miterlimit:4;stroke-dasharray:none;stroke-dashoffset:0;stroke-opacity:1;-inkscape-stroke:none;stop-color:#000000;stop-opacity:1"
   id="path5288-2-7"
   r="2.4776597"
   cy="102.68704"
   cx="84.711067" />
  
<circle
   style="font-variation-settings:normal;opacity:1;vector-effect:none;fill:#808080;fill-opacity:0.989309;stroke:#000000;stroke-width:0.264583px;stroke-linecap:butt;stroke-linejoin:miter;stroke-miterlimit:4;stroke-dasharray:none;stroke-dashoffset:0;stroke-opacity:1;-inkscape-stroke:none;stop-color:#000000;stop-opacity:1"
   id="path5288-2-7-0"
   r="2.4776597"
   cy="112.31931"
   cx="84.711067" />
  
<rect
   style="fill:#808080;fill-opacity:0.989309;stroke:#000000;stroke-width:0.264583px;stroke-linejoin:miter;stroke-dasharray:none;stroke-opacity:1;stop-color:#000000;font-variation-settings:normal;opacity:1;vector-effect:none;stroke-linecap:butt;stroke-miterlimit:4;stroke-dashoffset:0;-inkscape-stroke:none;stop-opacity:1"
   id="rect5532-3-9"
   width="7.8416376"
   height="7.8416376"
   x="40.756393"
   y="98.766205"
   ry="0.81056929" />
  

<path
   id="path5520-7"
   style="font-variation-settings:normal;display:inline;opacity:1;vector-effect:none;fill:#808080;fill-opacity:0.989309;stroke:#000000;stroke-width:0.264583px;stroke-linecap:butt;stroke-linejoin:miter;stroke-miterlimit:4;stroke-dasharray:none;stroke-dashoffset:0;stroke-opacity:1;-inkscape-stroke:none;stop-color:#000000;stop-opacity:1"
   d="m 44.729569,90.607389 a 12.079587,12.079587 0 0 0 -8.588106,3.544487 l 4.8519,4.851383 c 0.146569,-0.146569 0.349082,-0.237195 0.573609,-0.237195 h 6.220292 c 0.224527,0 0.42704,0.09063 0.573608,0.237195 l 4.857068,-4.857068 a 12.079587,12.079587 0 0 0 -3.391007,-2.3859 12.079587,12.079587 0 0 0 -5.097364,-1.152902 z" /><path
   id="path5520-2-7-5"
   style="font-variation-settings:normal;display:inline;vector-effect:none;fill:#808080;fill-opacity:0.989309;stroke:#000000;stroke-width:0.264583px;stroke-linecap:butt;stroke-linejoin:miter;stroke-miterlimit:4;stroke-dasharray:none;stroke-dashoffset:0;stroke-opacity:1;-inkscape-stroke:none;stop-color:#000000"
   d="m 40.994397,106.37025 -4.852417,4.85242 a 12.079587,12.079587 0 0 0 3.366203,2.38125 12.079587,12.079587 0 0 0 13.70459,-2.38177 l -4.852417,-4.8519 c -0.146529,0.14627 -0.348829,0.23668 -0.573092,0.23668 h -6.220292 c -0.224125,0 -0.426068,-0.0906 -0.572575,-0.23668 z" /><path
   id="path5520-2-8-3"
   style="font-variation-settings:normal;display:inline;opacity:1;vector-effect:none;fill:#808080;fill-opacity:0.989309;stroke:#000000;stroke-width:0.264583px;stroke-linecap:butt;stroke-linejoin:miter;stroke-miterlimit:4;stroke-dasharray:none;stroke-dashoffset:0;stroke-opacity:1;-inkscape-stroke:none;stop-color:#000000;stop-opacity:1"
   d="m 36.140946,94.151359 a 12.079587,12.079587 0 0 0 -2.3859,3.375505 12.079587,12.079587 0 0 0 2.386934,13.695806 l 4.852417,-4.85242 c -0.147033,-0.14663 -0.238228,-0.3492 -0.238228,-0.57412 v -6.220296 c 0,-0.224001 0.0902,-0.426604 0.236161,-0.573091 z" /><path
   id="path5520-2-1-5"
   style="font-variation-settings:normal;display:inline;opacity:1;vector-effect:none;fill:#808080;fill-opacity:0.989309;stroke:#000000;stroke-width:0.264583px;stroke-linecap:butt;stroke-linejoin:miter;stroke-miterlimit:4;stroke-dasharray:none;stroke-dashoffset:0;stroke-opacity:1;-inkscape-stroke:none;stop-color:#000000;stop-opacity:1"
   d="m 53.218457,94.145675 -4.856551,4.857068 c 0.145966,0.146488 0.236161,0.349087 0.236161,0.573091 v 6.220296 c 0,0.22479 -0.09084,0.42751 -0.237711,0.57412 l 4.852417,4.8519 a 12.079587,12.079587 0 0 0 2.377632,-3.35742 l 0.01809,-0.0387 A 12.079587,12.079587 0 0 0 53.218457,94.145675 Z" /><path
   style="display:inline;font-variation-settings:normal;vector-effect:none;fill:#808080;fill-opacity:0.989309;stroke:#000000;stroke-width:0.264583px;stroke-linecap:butt;stroke-linejoin:miter;stroke-miterlimit:4;stroke-dasharray:none;stroke-dashoffset:0;stroke-opacity:1;-inkscape-stroke:none;stop-color:#000000;opacity:1;stop-opacity:1"
   id="path5947-3"
   sodipodi:type="arc"
   sodipodi:cx="124.74493"
   sodipodi:cy="93.108444"
   sodipodi:rx="5.0531058"
   sodipodi:ry="5.0531058"
   sodipodi:start="0.44305067"
   sodipodi:end="0.43953411"
   sodipodi:open="true"
   sodipodi:arc-type="arc"
   d="m 129.31015,95.274698 a 5.0531058,5.0531058 0 0 1 -6.72746,2.400868 5.0531058,5.0531058 0 0 1 -2.40678,-6.725346 5.0531058,5.0531058 0 0 1 6.72322,-2.412692 5.0531058,5.0531058 0 0 1 2.4186,6.721103" /><path
   style="display:inline;font-variation-settings:normal;vector-effect:none;fill:#808080;fill-opacity:0.989309;stroke:#000000;stroke-width:0.264583px;stroke-linecap:butt;stroke-linejoin:miter;stroke-miterlimit:4;stroke-dasharray:none;stroke-dashoffset:0;stroke-opacity:1;-inkscape-stroke:none;stop-color:#000000;opacity:1;stop-opacity:1"
   id="path6017-2-7"
   d="m 129.31015,95.274698 c -1.19565,2.519734 -4.20668,3.594297 -6.72746,2.400868 -2.52079,-1.19343 -3.598,-4.203514 -2.40678,-6.725346 1.19121,-2.521832 4.20034,-3.601688 6.72322,-2.412692 2.52288,1.188996 3.60538,4.197181 2.4186,6.721103"
   transform="rotate(90,124.74493,102.68703)"
   class="UnoptimicedTransforms" /><path
   style="display:inline;font-variation-settings:normal;vector-effect:none;fill:#808080;fill-opacity:0.989309;stroke:#000000;stroke-width:0.264583px;stroke-linecap:butt;stroke-linejoin:miter;stroke-miterlimit:4;stroke-dasharray:none;stroke-dashoffset:0;stroke-opacity:1;-inkscape-stroke:none;stop-color:#000000;opacity:1;stop-opacity:1"
   id="path6015-2-5"
   d="m 129.31015,95.274698 c -1.19565,2.519734 -4.20668,3.594297 -6.72746,2.400868 -2.52079,-1.19343 -3.598,-4.203514 -2.40678,-6.725346 1.19121,-2.521832 4.20034,-3.601688 6.72322,-2.412692 2.52288,1.188996 3.60538,4.197181 2.4186,6.721103"
   transform="rotate(180,124.74493,102.68703)"
   class="UnoptimicedTransforms" /><path
   style="display:inline;font-variation-settings:normal;vector-effect:none;fill:#808080;fill-opacity:0.989309;stroke:#000000;stroke-width:0.264583px;stroke-linecap:butt;stroke-linejoin:miter;stroke-miterlimit:4;stroke-dasharray:none;stroke-dashoffset:0;stroke-opacity:1;-inkscape-stroke:none;stop-color:#000000;opacity:1;stop-opacity:1"
   id="path6013-0-9"
   d="m 129.31015,95.274698 c -1.19565,2.519734 -4.20668,3.594297 -6.72746,2.400868 -2.52079,-1.19343 -3.598,-4.203514 -2.40678,-6.725346 1.19121,-2.521832 4.20034,-3.601688 6.72322,-2.412692 2.52288,1.188996 3.60538,4.197181 2.4186,6.721103"
   transform="rotate(-90,124.74493,102.68703)"
   class="UnoptimicedTransforms" /><circle
   style="display:inline;font-variation-settings:normal;vector-effect:none;fill:#808080;fill-opacity:0.989309;stroke:#000000;stroke-width:0.264583px;stroke-linecap:butt;stroke-linejoin:miter;stroke-miterlimit:4;stroke-dasharray:none;stroke-dashoffset:0;stroke-opacity:1;-inkscape-stroke:none;stop-color:#000000;opacity:1;stop-opacity:1"
   id="path5294-9-2"
   cx="66.556206"
   cy="90.924789"
   r="3.3073654" /><path
   id="path5294-93"
   d="m 99.558569,90.924789 c 0,1.826608 1.480761,3.307366 3.307361,3.307366 1.82661,0 3.30737,-1.480758 3.30737,-3.307366 0,-1.826607 -1.48076,-3.307365 -3.30737,-3.307365 -1.8266,0 -3.307361,1.480758 -3.307361,3.307365 z"
   style="display:inline;font-variation-settings:normal;vector-effect:none;fill:#808080;fill-opacity:0.989309;stroke:#000000;stroke-width:0.264583px;stroke-linecap:butt;stroke-linejoin:miter;stroke-miterlimit:4;stroke-dasharray:none;stroke-dashoffset:0;stroke-opacity:1;-inkscape-stroke:none;stop-color:#000000;opacity:1;stop-opacity:1" /><path
   id="path5288-1"
   d="m 93.278054,102.68703 c 0,1.76639 1.431941,3.19833 3.198331,3.19833 1.766389,0 3.198331,-1.43194 3.198331,-3.19833 0,-1.76639 -1.431942,-3.198334 -3.198331,-3.198334 -1.76639,0 -3.198331,1.431944 -3.198331,3.198334 z"
   style="display:inline;font-variation-settings:normal;vector-effect:none;fill:#808080;fill-opacity:0.989309;stroke:#000000;stroke-width:0.264583px;stroke-linecap:butt;stroke-linejoin:miter;stroke-miterlimit:4;stroke-dasharray:none;stroke-dashoffset:0;stroke-opacity:1;-inkscape-stroke:none;stop-color:#000000;opacity:1;stop-opacity:1" /><path
   id="path2776-7-4"
   style="display:inline;font-variation-settings:normal;vector-effect:none;fill:#808080;fill-opacity:0.989309;stroke:#000000;stroke-width:0.264583px;stroke-linecap:butt;stroke-linejoin:miter;stroke-miterlimit:4;stroke-dasharray:none;stroke-dashoffset:0;stroke-opacity:1;-inkscape-stroke:none;stop-color:#000000;opacity:1;stop-opacity:1"
   d="m 53.486658,76.750871 c -0.814396,0.0115 -1.630482,0.141259 -2.32544,0.264583 -2.824463,0.647323 -5.714003,1.33076 -9.484692,2.726449 -2.95363,1.216298 -4.81072,2.181706 -6.975285,3.450952 -1.649251,1.194877 -2.429276,2.562718 -2.796212,4.012675 v 1.11156 c 1.698244,-1.376856 3.717332,-2.417041 5.802747,-3.38739 3.558724,-1.883164 7.331908,-3.56493 12.112439,-4.300513 3.757088,-0.767639 8.399666,-0.639423 12.851929,-0.703316 -1.306151,-0.160905 -2.599607,-0.519398 -3.875216,-1.156002 -1.190044,-0.740802 -2.068212,-1.327255 -3.873149,-1.885156 -0.460545,-0.1054 -0.948484,-0.140743 -1.437121,-0.133842 z" /><path
   id="path2776-5"
   style="display:inline;font-variation-settings:normal;vector-effect:none;fill:#808080;fill-opacity:0.989309;stroke:#000000;stroke-width:0.264583px;stroke-linecap:butt;stroke-linejoin:miter;stroke-miterlimit:4;stroke-dasharray:none;stroke-dashoffset:0;stroke-opacity:1;-inkscape-stroke:none;stop-color:#000000;opacity:1;stop-opacity:1"
   d="m 115.84668,76.750871 c -0.48864,-0.0069 -0.97658,0.02844 -1.43713,0.133842 -1.80493,0.557901 -2.68311,1.144354 -3.87314,1.885156 -1.27814,0.637865 -2.57418,0.996609 -3.88297,1.157035 4.43326,0.06183 9.04977,-0.06179 12.7894,0.702283 4.78052,0.735583 8.55371,2.417349 12.11244,4.300513 2.11426,0.983773 4.16019,2.039863 5.87302,3.445267 V 87.20553 c -0.36694,-1.449957 -1.14696,-2.817798 -2.79621,-4.012675 -2.16457,-1.269246 -4.02165,-2.234654 -6.97528,-3.450952 -3.77069,-1.395689 -6.66024,-2.079126 -9.48469,-2.726449 -0.69497,-0.123324 -1.51105,-0.253081 -2.32544,-0.264583 z" /><path
   style="display:inline;font-variation-settings:normal;vector-effect:none;fill:#808080;fill-opacity:0.989309;stroke:#000000;stroke-width:0.264583px;stroke-linecap:butt;stroke-linejoin:miter;stroke-miterlimit:4;stroke-dasharray:none;stroke-dashoffset:0;stroke-opacity:1;-inkscape-stroke:none;stop-color:#000000;opacity:1;stop-opacity:1"
   d="m 32.076392,46.14519 -0.05452,3.31651 16.773354,0.817176 0.865838,-2.594943 c 0.215754,-0.6129 0.57686,-0.594815 0.928945,-0.615887 l 9.290944,-0.665451 c 1.506852,-0.414473 2.050043,-1.239621 2.246802,-2.212406 0.119124,-1.880946 0.13905,-3.810276 -0.453628,-6.038411 -0.251173,-0.904876 -0.929005,-1.276968 -1.813473,-1.391025 -6.854123,0.113424 -13.708246,-0.344958 -20.562369,0.743667 -2.49538,1.036783 -4.001258,2.402373 -5.070118,3.913182 -1.088182,1.22845 -1.824323,2.786628 -2.151775,4.727588 z"
   id="path6157-8-0"
   sodipodi:nodetypes="cccccccccccc" /><path
   style="display:inline;font-variation-settings:normal;vector-effect:none;fill:#808080;fill-opacity:0.989309;stroke:#000000;stroke-width:0.264583px;stroke-linecap:butt;stroke-linejoin:miter;stroke-miterlimit:4;stroke-dasharray:none;stroke-dashoffset:0;stroke-opacity:1;-inkscape-stroke:none;stop-color:#000000;opacity:1;stop-opacity:1"
   d="m 137.34575,46.14519 0.0545,3.31651 -16.77336,0.817176 -0.86583,-2.594943 c -0.21576,-0.6129 -0.57686,-0.594815 -0.92895,-0.615887 l -9.29094,-0.665451 c -1.50685,-0.414473 -2.05005,-1.239621 -2.2468,-2.212406 -0.11913,-1.880946 -0.13905,-3.810276 0.45362,-6.038411 0.25118,-0.904876 0.92901,-1.276968 1.81348,-1.391025 6.85412,0.113424 13.70824,-0.344958 20.56237,0.743667 2.49537,1.036783 4.00125,2.402373 5.07011,3.913182 1.08819,1.22845 1.82433,2.786628 2.15178,4.727588 z"
   id="path6157-3"
   sodipodi:nodetypes="cccccccccccc" /><path
   style="font-variation-settings:normal;display:inline;vector-effect:none;fill:#808080;fill-opacity:0.989309;stroke:#000000;stroke-width:0.264583px;stroke-linecap:butt;stroke-linejoin:miter;stroke-miterlimit:4;stroke-dasharray:none;stroke-dashoffset:0;stroke-opacity:1;-inkscape-stroke:none;stop-color:#000000;opacity:1;stop-opacity:1"
   d="m 18.368522,15.773829 1.193334,10.770608 c 0.362638,2.465436 1.233573,4.598841 3.012183,6.13933 1.669029,1.126436 3.374289,2.177426 5.533546,2.28304 1.862468,-0.0053 2.97333,-0.417526 3.759823,-1.352623 2.32663,-3.995833 2.055061,-11.136255 2.838965,-16.970707 z"
   id="path6159-7-4"
   sodipodi:nodetypes="ccccccc"
   transform="translate(13.875619,34.5744)" /><path
   style="font-variation-settings:normal;display:inline;vector-effect:none;fill:#808080;fill-opacity:0.989309;stroke:#000000;stroke-width:0.264583px;stroke-linecap:butt;stroke-linejoin:miter;stroke-miterlimit:4;stroke-dasharray:none;stroke-dashoffset:0;stroke-opacity:1;-inkscape-stroke:none;stop-color:#000000;opacity:1;stop-opacity:1"
   d="m 123.30238,15.773829 -1.19334,10.770608 c -0.36263,2.465436 -1.23357,4.598841 -3.01218,6.13933 -1.66903,1.126436 -3.37429,2.177426 -5.53354,2.28304 -1.86247,-0.0053 -2.97333,-0.417526 -3.75983,-1.352623 -2.32663,-3.995833 -2.05506,-11.136255 -2.83896,-16.970707 z"
   id="path6159-9"
   sodipodi:nodetypes="ccccccc"
   transform="translate(13.875619,34.5744)" /></g>
<g
   inkscape:groupmode="layer"
   id="layer3"
   inkscape:label="up"
   data-state="up"
   data-type="button"
   style="display:inline"
   transform="translate(-13.875619,-34.5744)">
  
<path
   id="path5520"
   style="font-variation-settings:normal;display:inline;opacity:1;vector-effect:none;fill:#00ff00;fill-opacity:1;stroke:#000000;stroke-width:0.264583px;stroke-linecap:butt;stroke-linejoin:miter;stroke-miterlimit:4;stroke-dasharray:none;stroke-dashoffset:0;stroke-opacity:1;-inkscape-stroke:none;stop-color:#000000;stop-opacity:1"
   d="m 44.729569,90.607389 a 12.079587,12.079587 0 0 0 -8.588106,3.544487 l 4.8519,4.851383 c 0.146569,-0.146569 0.349082,-0.237195 0.573609,-0.237195 h 6.220292 c 0.224527,0 0.42704,0.09063 0.573608,0.237195 l 4.857068,-4.857068 a 12.079587,12.079587 0 0 0 -3.391007,-2.3859 12.079587,12.079587 0 0 0 -5.097364,-1.152902 z" />
</g>
<g
   inkscape:groupmode="layer"
   id="layer4"
   inkscape:label="down"
   data-state="down"
   data-type="button"
   style="display:inline"
   transform="translate(-13.875619,-34.5744)">
  
<path
   id="path5520-2-7"
   style="font-variation-settings:normal;display:inline;opacity:1;vector-effect:none;fill:#00ff00;fill-opacity:1;stroke:#000000;stroke-width:0.264583px;stroke-linecap:butt;stroke-linejoin:miter;stroke-miterlimit:4;stroke-dasharray:none;stroke-dashoffset:0;stroke-opacity:1;-inkscape-stroke:none;stop-color:#000000;stop-opacity:1"
   d="m 40.994397,106.37025 -4.852417,4.85242 a 12.079587,12.079587 0 0 0 3.366203,2.38125 12.079587,12.079587 0 0 0 13.70459,-2.38177 l -4.852417,-4.8519 c -0.146529,0.14627 -0.348829,0.23668 -0.573092,0.23668 h -6.220292 c -0.224125,0 -0.426068,-0.0906 -0.572575,-0.23668 z" />
</g>
<g
   inkscape:groupmode="layer"
   id="layer5"
   inkscape:label="left"
   data-state="left"
   data-type="button"
   style="display:inline"
   transform="translate(-13.875619,-34.5744)">
  
<path
   id="path5520-2-8"
   style="font-variation-settings:normal;display:inline;opacity:1;vector-effect:none;fill:#00ff00;fill-opacity:1;stroke:#000000;stroke-width:0.264583px;stroke-linecap:butt;stroke-linejoin:miter;stroke-miterlimit:4;stroke-dasharray:none;stroke-dashoffset:0;stroke-opacity:1;-inkscape-stroke:none;stop-color:#000000;stop-opacity:1"
   d="m 36.140946,94.151359 a 12.079587,12.079587 0 0 0 -2.3859,3.375505 12.079587,12.079587 0 0 0 2.386934,13.695806 l 4.852417,-4.85242 c -0.147033,-0.14663 -0.238228,-0.3492 -0.238228,-0.57412 v -6.220296 c 0,-0.224001 0.0902,-0.426604 0.236161,-0.573091 z" />
</g>
<g
   inkscape:groupmode="layer"
   id="layer6"
   inkscape:label="right"
   data-state="right"
   data-type="button"
   style="display:inline"
   transform="translate(-13.875619,-34.5744)">
  
<path
   id="path5520-2-1"
   style="font-variation-settings:normal;display:inline;opacity:1;vector-effect:none;fill:#00ff00;fill-opacity:1;stroke:#000000;stroke-width:0.264583px;stroke-linecap:butt;stroke-linejoin:miter;stroke-miterlimit:4;stroke-dasharray:none;stroke-dashoffset:0;stroke-opacity:1;-inkscape-stroke:none;stop-color:#000000;stop-opacity:1"
   d="m 53.218457,94.145675 -4.856551,4.857068 c 0.145966,0.146488 0.236161,0.349087 0.236161,0.573091 v 6.220296 c 0,0.22479 -0.09084,0.42751 -0.237711,0.57412 l 4.852417,4.8519 a 12.079587,12.079587 0 0 0 2.377632,-3.35742 l 0.01809,-0.0387 A 12.079587,12.079587 0 0 0 53.218457,94.145675 Z" />
</g>
<g
   inkscape:groupmode="layer"
   id="layer7"
   inkscape:label="home"
   data-state="home"
   data-type="button"
   style="display:inline"
   transform="translate(-13.875619,-34.5744)">
  
<path
   id="path5288"
   d="m 93.278054,102.68703 c 0,1.76639 1.431941,3.19833 3.198331,3.19833 1.766389,0 3.198331,-1.43194 3.198331,-3.19833 0,-1.76639 -1.431942,-3.198334 -3.198331,-3.198334 -1.76639,0 -3.198331,1.431944 -3.198331,3.198334 z"
   style="font-variation-settings:normal;opacity:1;vector-effect:none;fill:#00ff00;fill-opacity:1;stroke:#000000;stroke-width:0.264583px;stroke-linecap:butt;stroke-linejoin:miter;stroke-miterlimit:4;stroke-dasharray:none;stroke-dashoffset:0;stroke-opacity:1;-inkscape-stroke:none;stop-color:#000000;stop-opacity:1" />
</g>
<g
   inkscape:groupmode="layer"
   id="layer8"
   inkscape:label="a"
   data-state="a"
   data-type="button"
   style="display:inline"
   transform="translate(-13.875619,-34.5744)">
  
<path
   style="font-variation-settings:normal;vector-effect:none;fill:#00ff00;fill-opacity:1;stroke:#000000;stroke-width:0.264583px;stroke-linecap:butt;stroke-linejoin:miter;stroke-miterlimit:4;stroke-dasharray:none;stroke-dashoffset:0;stroke-opacity:1;-inkscape-stroke:none;stop-color:#000000;opacity:1;stop-opacity:1"
   id="path6017-2"
   d="m 129.31015,95.274698 c -1.19565,2.519734 -4.20668,3.594297 -6.72746,2.400868 -2.52079,-1.19343 -3.598,-4.203514 -2.40678,-6.725346 1.19121,-2.521832 4.20034,-3.601688 6.72322,-2.412692 2.52288,1.188996 3.60538,4.197181 2.4186,6.721103"
   transform="rotate(90,124.74493,102.68703)"
   class="UnoptimicedTransforms" />
</g>
<g
   inkscape:groupmode="layer"
   id="layer9"
   inkscape:label="b"
   data-state="b"
   data-type="button"
   style="display:inline"
   transform="translate(-13.875619,-34.5744)">
  
<path
   style="font-variation-settings:normal;vector-effect:none;fill:#00ff00;fill-opacity:1;stroke:#000000;stroke-width:0.264583px;stroke-linecap:butt;stroke-linejoin:miter;stroke-miterlimit:4;stroke-dasharray:none;stroke-dashoffset:0;stroke-opacity:1;-inkscape-stroke:none;stop-color:#000000;opacity:1;stop-opacity:1"
   id="path6015-2"
   d="m 129.31015,95.274698 c -1.19565,2.519734 -4.20668,3.594297 -6.72746,2.400868 -2.52079,-1.19343 -3.598,-4.203514 -2.40678,-6.725346 1.19121,-2.521832 4.20034,-3.601688 6.72322,-2.412692 2.52288,1.188996 3.60538,4.197181 2.4186,6.721103"
   transform="rotate(180,124.74493,102.68703)"
   class="UnoptimicedTransforms" />
</g>
<g
   inkscape:groupmode="layer"
   id="layer10"
   inkscape:label="x"
   data-state="x"
   data-type="button"
   style="display:inline"
   transform="translate(-13.875619,-34.5744)">
  
<path
   style="font-variation-settings:normal;opacity:1;vector-effect:none;fill:#00ff00;fill-opacity:1;stroke:#000000;stroke-width:0.264583px;stroke-linecap:butt;stroke-linejoin:miter;stroke-miterlimit:4;stroke-dasharray:none;stroke-dashoffset:0;stroke-opacity:1;-inkscape-stroke:none;stop-color:#000000;stop-opacity:1"
   id="path5947"
   sodipodi:type="arc"
   sodipodi:cx="124.74493"
   sodipodi:cy="93.108444"
   sodipodi:rx="5.0531058"
   sodipodi:ry="5.0531058"
   sodipodi:start="0.44305067"
   sodipodi:end="0.43953411"
   sodipodi:open="true"
   sodipodi:arc-type="arc"
   d="m 129.31015,95.274698 a 5.0531058,5.0531058 0 0 1 -6.72746,2.400868 5.0531058,5.0531058 0 0 1 -2.40678,-6.725346 5.0531058,5.0531058 0 0 1 6.72322,-2.412692 5.0531058,5.0531058 0 0 1 2.4186,6.721103" />
</g>
<g
   inkscape:groupmode="layer"
   id="layer11"
   inkscape:label="y"
   data-state="y"
   data-type="button"
   style="display:inline"
   transform="translate(-13.875619,-34.5744)">
  
<path
   style="font-variation-settings:normal;vector-effect:none;fill:#00ff00;fill-opacity:1;stroke:#000000;stroke-width:0.264583px;stroke-linecap:butt;stroke-linejoin:miter;stroke-miterlimit:4;stroke-dasharray:none;stroke-dashoffset:0;stroke-opacity:1;-inkscape-stroke:none;stop-color:#000000;opacity:1;stop-opacity:1"
   id="path6013-0"
   d="m 129.31015,95.274698 c -1.19565,2.519734 -4.20668,3.594297 -6.72746,2.400868 -2.52079,-1.19343 -3.598,-4.203514 -2.40678,-6.725346 1.19121,-2.521832 4.20034,-3.601688 6.72322,-2.412692 2.52288,1.188996 3.60538,4.197181 2.4186,6.721103"
   transform="rotate(-90,124.74493,102.68703)"
   class="UnoptimicedTransforms" />
</g>
<g
   inkscape:groupmode="layer"
   id="layer12"
   inkscape:label="l"
   data-state="l"
   data-type="button"
   style="display:inline"
   transform="translate(-13.875619,-34.5744)">
  
<path
   style="font-variation-settings:normal;opacity:1;vector-effect:none;fill:#00ff00;fill-opacity:1;stroke:#000000;stroke-width:0.264583px;stroke-linecap:butt;stroke-linejoin:miter;stroke-miterlimit:4;stroke-dasharray:none;stroke-dashoffset:0;stroke-opacity:1;-inkscape-stroke:none;stop-color:#000000;stop-opacity:1"
   d="m 32.076392,46.14519 -0.05452,3.31651 16.773354,0.817176 0.865838,-2.594943 c 0.215754,-0.6129 0.57686,-0.594815 0.928945,-0.615887 l 9.290944,-0.665451 c 1.506852,-0.414473 2.050043,-1.239621 2.246802,-2.212406 0.119124,-1.880946 0.13905,-3.810276 -0.453628,-6.038411 -0.251173,-0.904876 -0.929005,-1.276968 -1.813473,-1.391025 -6.854123,0.113424 -13.708246,-0.344958 -20.562369,0.743667 -2.49538,1.036783 -4.001258,2.402373 -5.070118,3.913182 -1.088182,1.22845 -1.824323,2.786628 -2.151775,4.727588 z"
   id="path6157-8"
   sodipodi:nodetypes="cccccccccccc" />
  
<path
   id="path2776-7"
   style="font-variation-settings:normal;display:inline;opacity:1;vector-effect:none;fill:#00ff00;fill-opacity:1;stroke:#000000;stroke-width:0.264583px;stroke-linecap:butt;stroke-linejoin:miter;stroke-miterlimit:4;stroke-dasharray:none;stroke-dashoffset:0;stroke-opacity:1;-inkscape-stroke:none;stop-color:#000000;stop-opacity:1"
   d="m 53.486658,76.750871 c -0.814396,0.0115 -1.630482,0.141259 -2.32544,0.264583 -2.824463,0.647323 -5.714003,1.33076 -9.484692,2.726449 -2.95363,1.216298 -4.81072,2.181706 -6.975285,3.450952 -1.649251,1.194877 -2.429276,2.562718 -2.796212,4.012675 v 1.11156 c 1.698244,-1.376856 3.717332,-2.417041 5.802747,-3.38739 3.558724,-1.883164 7.331908,-3.56493 12.112439,-4.300513 3.757088,-0.767639 8.399666,-0.639423 12.851929,-0.703316 -1.306151,-0.160905 -2.599607,-0.519398 -3.875216,-1.156002 -1.190044,-0.740802 -2.068212,-1.327255 -3.873149,-1.885156 -0.460545,-0.1054 -0.948484,-0.140743 -1.437121,-0.133842 z" />
</g>
<g
   inkscape:groupmode="layer"
   id="layer13"
   inkscape:label="r"
   data-state="r"
   data-type="button"
   style="display:inline"
   transform="translate(-13.875619,-34.5744)">
  
<path
   id="path2776"
   style="font-variation-settings:normal;opacity:1;vector-effect:none;fill:#00ff00;fill-opacity:1;stroke:#000000;stroke-width:0.264583px;stroke-linecap:butt;stroke-linejoin:miter;stroke-miterlimit:4;stroke-dasharray:none;stroke-dashoffset:0;stroke-opacity:1;-inkscape-stroke:none;stop-color:#000000;stop-opacity:1"
   d="m 115.84668,76.750871 c -0.48864,-0.0069 -0.97658,0.02844 -1.43713,0.133842 -1.80493,0.557901 -2.68311,1.144354 -3.87314,1.885156 -1.27814,0.637865 -2.57418,0.996609 -3.88297,1.157035 4.43326,0.06183 9.04977,-0.06179 12.7894,0.702283 4.78052,0.735583 8.55371,2.417349 12.11244,4.300513 2.11426,0.983773 4.16019,2.039863 5.87302,3.445267 V 87.20553 c -0.36694,-1.449957 -1.14696,-2.817798 -2.79621,-4.012675 -2.16457,-1.269246 -4.02165,-2.234654 -6.97528,-3.450952 -3.77069,-1.395689 -6.66024,-2.079126 -9.48469,-2.726449 -0.69497,-0.123324 -1.51105,-0.253081 -2.32544,-0.264583 z" />
  
<path
   style="font-variation-settings:normal;opacity:1;vector-effect:none;fill:#00ff00;fill-opacity:1;stroke:#000000;stroke-width:0.264583px;stroke-linecap:butt;stroke-linejoin:miter;stroke-miterlimit:4;stroke-dasharray:none;stroke-dashoffset:0;stroke-opacity:1;-inkscape-stroke:none;stop-color:#000000;stop-opacity:1"
   d="m 137.34575,46.14519 0.0545,3.31651 -16.77336,0.817176 -0.86583,-2.594943 c -0.21576,-0.6129 -0.57686,-0.594815 -0.92895,-0.615887 l -9.29094,-0.665451 c -1.50685,-0.414473 -2.05005,-1.239621 -2.2468,-2.212406 -0.11913,-1.880946 -0.13905,-3.810276 0.45362,-6.038411 0.25118,-0.904876 0.92901,-1.276968 1.81348,-1.391025 6.85412,0.113424 13.70824,-0.344958 20.56237,0.743667 2.49537,1.036783 4.00125,2.402373 5.07011,3.913182 1.08819,1.22845 1.82433,2.786628 2.15178,4.727588 z"
   id="path6157"
   sodipodi:nodetypes="cccccccccccc" />
</g>
<g
   inkscape:groupmode="layer"
   id="layer14"
   inkscape:label="minus"
   data-state="minus"
   data-type="button"
   style="display:inline"
   transform="translate(-13.875619,-34.5744)">
  
<circle
   style="font-variation-settings:normal;opacity:1;vector-effect:none;fill:#00ff00;fill-opacity:1;stroke:#000000;stroke-width:0.264583px;stroke-linecap:butt;stroke-linejoin:miter;stroke-miterlimit:4;stroke-dasharray:none;stroke-dashoffset:0;stroke-opacity:1;-inkscape-stroke:none;stop-color:#000000;stop-opacity:1"
   id="path5294-9"
   cx="66.556206"
   cy="90.924789"
   r="3.3073654" />
</g>
<g
   inkscape:groupmode="layer"
   id="layer15"
   inkscape:label="plus"
   data-state="plus"
   data-type="button"
   style="display:inline"
   transform="translate(-13.875619,-34.5744)">
  
<path
   id="path5294"
   d="m 99.558569,90.924789 c 0,1.826608 1.480761,3.307366 3.307361,3.307366 1.82661,0 3.30737,-1.480758 3.30737,-3.307366 0,-1.826607 -1.48076,-3.307365 -3.30737,-3.307365 -1.8266,0 -3.307361,1.480758 -3.307361,3.307365 z"
   style="font-variation-settings:normal;opacity:1;vector-effect:none;fill:#00ff00;fill-opacity:1;stroke:#000000;stroke-width:0.264583px;stroke-linecap:butt;stroke-linejoin:miter;stroke-miterlimit:4;stroke-dasharray:none;stroke-dashoffset:0;stroke-opacity:1;-inkscape-stroke:none;stop-color:#000000;stop-opacity:1" />
</g>
<g
   inkscape:groupmode="layer"
   id="layer16"
   inkscape:label="lstick idle"
   data-state="lstick"
   data-type="stick"
   data-extents-x="-30 30"
   data-extents-y="-30 30"
   style="display:none"
   transform="translate(-13.875619,-34.5744)">
  
<path
   id="path5121"
   style="font-variation-settings:normal;display:inline;opacity:1;vector-effect:none;fill:#333333;fill-opacity:1;stroke:#000000;stroke-width:0.264583;stroke-linecap:butt;stroke-linejoin:miter;stroke-miterlimit:4;stroke-dasharray:none;stroke-dashoffset:0;stroke-opacity:1;-inkscape-stroke:none;stop-color:#000000;stop-opacity:1"
   d="m 61.919911,115.60785 a 7.6581225,7.6581225 0 0 0 -7.658149,7.65815 7.6581225,7.6581225 0 0 0 7.658149,7.65815 7.6581225,7.6581225 0 0 0 7.65815,-7.65815 7.6581225,7.6581225 0 0 0 -7.65815,-7.65815 z m 0,2.01749 a 5.6403766,5.6403766 0 0 1 5.64066,5.64066 5.6403766,5.6403766 0 0 1 -5.64066,5.64012 5.6403766,5.6403766 0 0 1 -5.640112,-5.64012 5.6403766,5.6403766 0 0 1 5.640112,-5.64066 z" />
  
<circle
   style="font-variation-settings:normal;display:inline;opacity:1;vector-effect:none;fill:#808080;fill-opacity:0.989309;stroke:#000000;stroke-width:0.264583px;stroke-linecap:butt;stroke-linejoin:miter;stroke-miterlimit:4;stroke-dasharray:none;stroke-dashoffset:0;stroke-opacity:1;-inkscape-stroke:none;stop-color:#000000;stop-opacity:1"
   id="path5189"
   cx="61.920139"
   cy="123.2659"
   r="5.6403766" />
</g>
<g
   inkscape:groupmode="layer"
   id="layer17"
   inkscape:label="lstick active"
   data-state="lstick"
   data-type="button"
   style="display:inline"
   transform="translate(-13.875619,-34.5744)">
  
<path
   id="path5121-7"
   style="font-variation-settings:normal;display:inline;opacity:1;vector-effect:none;fill:#333333;fill-opacity:1;stroke:#000000;stroke-width:0.264583;stroke-linecap:butt;stroke-linejoin:miter;stroke-miterlimit:4;stroke-dasharray:none;stroke-dashoffset:0;stroke-opacity:1;-inkscape-stroke:none;stop-color:#000000;stop-opacity:1"
   d="m 61.919911,115.60785 a 7.6581225,7.6581225 0 0 0 -7.658149,7.65815 7.6581225,7.6581225 0 0 0 7.658149,7.65815 7.6581225,7.6581225 0 0 0 7.65815,-7.65815 7.6581225,7.6581225 0 0 0 -7.65815,-7.65815 z m 0,2.01749 a 5.6403766,5.6403766 0 0 1 5.64066,5.64066 5.6403766,5.6403766 0 0 1 -5.64066,5.64012 5.6403766,5.6403766 0 0 1 -5.640112,-5.64012 5.6403766,5.6403766 0 0 1 5.640112,-5.64066 z" />
  
<circle
   style="font-variation-settings:normal;display:inline;opacity:1;vector-effect:none;fill:#00ff00;fill-opacity:1;stroke:#000000;stroke-width:0.264583px;stroke-linecap:butt;stroke-linejoin:miter;stroke-miterlimit:4;stroke-dasharray:none;stroke-dashoffset:0;stroke-opacity:1;-inkscape-stroke:none;stop-color:#000000;stop-opacity:1"
   id="path5189-5"
   cx="61.920139"
   cy="123.2659"
   r="5.6403766" />
</g>
<g
   inkscape:groupmode="layer"
   id="layer18"
   inkscape:label="rstick idle"
   data-state="rstick"
   data-type="stick"
   data-extents-x="-30 30"
   data-extents-y="-30 30"
   style="display:none"
   transform="translate(-13.875619,-34.5744)">
  
<path
   id="path5121-5"
   style="font-variation-settings:normal;display:inline;opacity:1;vector-effect:none;fill:#333333;fill-opacity:1;stroke:#000000;stroke-width:0.264583;stroke-linecap:butt;stroke-linejoin:miter;stroke-miterlimit:4;stroke-dasharray:none;stroke-dashoffset:0;stroke-opacity:1;-inkscape-stroke:none;stop-color:#000000;stop-opacity:1"
   d="m 107.50184,115.60785 a 7.6581225,7.6581225 0 0 0 -7.658147,7.65815 7.6581225,7.6581225 0 0 0 7.658147,7.65815 7.6581225,7.6581225 0 0 0 7.65815,-7.65815 7.6581225,7.6581225 0 0 0 -7.65815,-7.65815 z m 0,2.01749 a 5.6403766,5.6403766 0 0 1 5.64066,5.64066 5.6403766,5.6403766 0 0 1 -5.64066,5.64012 5.6403766,5.6403766 0 0 1 -5.64011,-5.64012 5.6403766,5.6403766 0 0 1 5.64011,-5.64066 z" />
  
<circle
   style="font-variation-settings:normal;display:inline;opacity:1;vector-effect:none;fill:#808080;fill-opacity:0.989309;stroke:#000000;stroke-width:0.264583px;stroke-linecap:butt;stroke-linejoin:miter;stroke-miterlimit:4;stroke-dasharray:none;stroke-dashoffset:0;stroke-opacity:1;-inkscape-stroke:none;stop-color:#000000;stop-opacity:1"
   id="path5189-6"
   cx="107.502"
   cy="123.2659"
   r="5.6403766" />
</g>
<g
   inkscape:groupmode="layer"
   id="layer19"
   inkscape:label="rstick active"
   data-state="rstick"
   data-type="button"
   style="display:none"
   transform="translate(-13.875619,-34.5744)">
  
<path
   id="path5121-5-3"
   style="font-variation-settings:normal;display:inline;opacity:1;vector-effect:none;fill:#333333;fill-opacity:1;stroke:#000000;stroke-width:0.264583;stroke-linecap:butt;stroke-linejoin:miter;stroke-miterlimit:4;stroke-dasharray:none;stroke-dashoffset:0;stroke-opacity:1;-inkscape-stroke:none;stop-color:#000000;stop-opacity:1"
   d="m 107.50184,115.60785 a 7.6581225,7.6581225 0 0 0 -7.658147,7.65815 7.6581225,7.6581225 0 0 0 7.658147,7.65815 7.6581225,7.6581225 0 0 0 7.65815,-7.65815 7.6581225,7.6581225 0 0 0 -7.65815,-7.65815 z m 0,2.01749 a 5.6403766,5.6403766 0 0 1 5.64066,5.64066 5.6403766,5.6403766 0 0 1 -5.64066,5.64012 5.6403766,5.6403766 0 0 1 -5.64011,-5.64012 5.6403766,5.6403766 0 0 1 5.64011,-5.64066 z" />
  
<circle
   style="font-variation-settings:normal;display:inline;vector-effect:none;fill:#00ff00;fill-opacity:1;stroke:#000000;stroke-width:0.264583px;stroke-linecap:butt;stroke-linejoin:miter;stroke-miterlimit:4;stroke-dasharray:none;stroke-dashoffset:0;stroke-opacity:1;-inkscape-stroke:none;stop-color:#000000"
   id="path5189-6-6"
   cx="107.502"
   cy="123.2659"
   r="5.6403766" />
</g>
<g
   inkscape:groupmode="layer"
   id="layer20"
   inkscape:label="zl"
   data-state="zl"
   data-type="axis"
   data-segments="32"
   style="display:inline">
  <path
   style="font-variation-settings:normal;display:inline;opacity:1;vector-effect:none;fill:url(#linearGradient7904);fill-opacity:1;stroke:#000000;stroke-width:0.264583px;stroke-linecap:butt;stroke-linejoin:miter;stroke-miterlimit:4;stroke-dasharray:none;stroke-dashoffset:0;stroke-opacity:1;-inkscape-stroke:none;stop-color:#000000;stop-opacity:1"
   d="m 32.244141,50.348229 1.193334,10.770608 c 0.362638,2.465436 1.233573,4.598841 3.012183,6.13933 1.669029,1.126436 3.374289,2.177426 5.533546,2.28304 1.862468,-0.0053 2.97333,-0.417526 3.759823,-1.352623 2.32663,-3.995833 2.055061,-11.136255 2.838965,-16.970707 z"
   id="path6159-7"
   sodipodi:nodetypes="ccccccc"
   transform="translate(-13.875619,-34.5744)" />
</g>
<g
   inkscape:groupmode="layer"
   id="layer21"
   inkscape:label="zr"
   data-state="zr"
   data-type="axis"
   data-segments="32"
   style="display:inline">
  <path
   style="font-variation-settings:normal;display:inline;opacity:1;vector-effect:none;fill:url(#linearGradient7904);fill-opacity:1;stroke:#000000;stroke-width:0.264583px;stroke-linecap:butt;stroke-linejoin:miter;stroke-miterlimit:4;stroke-dasharray:none;stroke-dashoffset:0;stroke-opacity:1;-inkscape-stroke:none;stop-color:#000000;stop-opacity:1"
   d="m 137.178,50.348229 -1.19334,10.770608 c -0.36263,2.465436 -1.23357,4.598841 -3.01218,6.13933 -1.66903,1.126436 -3.37429,2.177426 -5.53354,2.28304 -1.86247,-0.0053 -2.97333,-0.417526 -3.75983,-1.352623 -2.32663,-3.995833 -2.05506,-11.136255 -2.83896,-16.970707 z"
   id="path6159"
   sodipodi:nodetypes="ccccccc"
   transform="translate(-13.875619,-34.5744)" />
</g>
</svg>
